<svg width="25" height="24" viewBox="0 0 25 24" fill="none" xmlns="http://www.w3.org/2000/svg">
<path d="M1.43567 1.2887H5.43567L8.11567 14.6787C8.20711 15.1391 8.45758 15.5527 8.82321 15.847C9.18885 16.1413 9.64637 16.2977 10.1157 16.2887H19.8357C20.305 16.2977 20.7625 16.1413 21.1281 15.847C21.4938 15.5527 21.7442 15.1391 21.8357 14.6787L23.4357 6.2887H6.43567M10.4357 21.2887C10.4357 21.841 9.98795 22.2887 9.43567 22.2887C8.88338 22.2887 8.43567 21.841 8.43567 21.2887C8.43567 20.7364 8.88338 20.2887 9.43567 20.2887C9.98795 20.2887 10.4357 20.7364 10.4357 21.2887ZM21.4357 21.2887C21.4357 21.841 20.988 22.2887 20.4357 22.2887C19.8834 22.2887 19.4357 21.841 19.4357 21.2887C19.4357 20.7364 19.8834 20.2887 20.4357 20.2887C20.988 20.2887 21.4357 20.7364 21.4357 21.2887Z" fill="none"  stroke="white" stroke-width="2" stroke-linecap="round" stroke-linejoin="round"/>
</svg>
