<svg width="114" height="24" viewBox="0 0 114 24" fill="none" xmlns="http://www.w3.org/2000/svg">
<path fill-rule="evenodd" clip-rule="evenodd" d="M4 2H20C21.1046 2 22 2.89543 22 4V20C22 21.1046 21.1046 22 20 22H4C2.89543 22 2 21.1046 2 20V4C2 2.89543 2.89543 2 4 2ZM4 4V20H20V4H4ZM11.1331 12.0044H13V18H15V12.0044H16.9824V10.0044H15V9C15 8.44772 15.4477 8 16 8H17V6H16C14.3431 6 13 7.34315 13 9V10.0044H11.1331V12.0044Z" fill="#0C5CB7"/>
<path d="M43.16 7.97H38.145V11.302H42.99V13.172H38.145V18H36.19V6.1H43.16V7.97ZM51.6018 9.5H53.4378V18H51.6018V16.776C50.9105 17.7393 49.9188 18.221 48.6268 18.221C47.4595 18.221 46.4622 17.7903 45.6348 16.929C44.8075 16.0563 44.3938 14.9967 44.3938 13.75C44.3938 12.492 44.8075 11.4323 45.6348 10.571C46.4622 9.70967 47.4595 9.279 48.6268 9.279C49.9188 9.279 50.9105 9.755 51.6018 10.707V9.5ZM46.9948 15.705C47.5048 16.215 48.1452 16.47 48.9158 16.47C49.6865 16.47 50.3268 16.215 50.8368 15.705C51.3468 15.1837 51.6018 14.532 51.6018 13.75C51.6018 12.968 51.3468 12.322 50.8368 11.812C50.3268 11.2907 49.6865 11.03 48.9158 11.03C48.1452 11.03 47.5048 11.2907 46.9948 11.812C46.4848 12.322 46.2298 12.968 46.2298 13.75C46.2298 14.532 46.4848 15.1837 46.9948 15.705ZM59.5898 18.221C58.3092 18.221 57.2382 17.7903 56.3768 16.929C55.5268 16.0677 55.1018 15.008 55.1018 13.75C55.1018 12.4807 55.5268 11.421 56.3768 10.571C57.2382 9.70967 58.3092 9.279 59.5898 9.279C60.4172 9.279 61.1708 9.47733 61.8508 9.874C62.5308 10.2707 63.0408 10.8033 63.3808 11.472L61.7998 12.39C61.6072 11.982 61.3125 11.6647 60.9158 11.438C60.5305 11.2 60.0828 11.081 59.5728 11.081C58.8248 11.081 58.1958 11.336 57.6858 11.846C57.1872 12.356 56.9378 12.9907 56.9378 13.75C56.9378 14.5093 57.1872 15.144 57.6858 15.654C58.1958 16.164 58.8248 16.419 59.5728 16.419C60.0715 16.419 60.5192 16.3 60.9158 16.062C61.3238 15.824 61.6298 15.5067 61.8338 15.11L63.4148 16.011C63.0522 16.691 62.5308 17.2293 61.8508 17.626C61.1708 18.0227 60.4172 18.221 59.5898 18.221ZM66.0541 14.532C66.1901 15.178 66.5018 15.6767 66.9891 16.028C67.4764 16.368 68.0714 16.538 68.7741 16.538C69.7488 16.538 70.4798 16.1867 70.9671 15.484L72.4801 16.368C71.6414 17.6033 70.4004 18.221 68.7571 18.221C67.3744 18.221 66.2581 17.8017 65.4081 16.963C64.5581 16.113 64.1331 15.042 64.1331 13.75C64.1331 12.4807 64.5524 11.421 65.3911 10.571C66.2298 9.70967 67.3064 9.279 68.6211 9.279C69.8678 9.279 70.8878 9.71533 71.6811 10.588C72.4858 11.4607 72.8881 12.5203 72.8881 13.767C72.8881 13.9597 72.8654 14.2147 72.8201 14.532H66.0541ZM66.0371 13.036H71.0351C70.9104 12.3447 70.6214 11.8233 70.1681 11.472C69.7261 11.1207 69.2048 10.945 68.6041 10.945C67.9241 10.945 67.3574 11.132 66.9041 11.506C66.4508 11.88 66.1618 12.39 66.0371 13.036ZM79.3146 9.279C80.482 9.279 81.4793 9.70967 82.3066 10.571C83.134 11.4323 83.5476 12.492 83.5476 13.75C83.5476 14.9967 83.134 16.0563 82.3066 16.929C81.4793 17.7903 80.482 18.221 79.3146 18.221C78.0226 18.221 77.031 17.7393 76.3396 16.776V18H74.5036V6.1H76.3396V10.707C77.031 9.755 78.0226 9.279 79.3146 9.279ZM77.1046 15.705C77.6146 16.215 78.255 16.47 79.0256 16.47C79.7963 16.47 80.4366 16.215 80.9466 15.705C81.4566 15.1837 81.7116 14.532 81.7116 13.75C81.7116 12.968 81.4566 12.322 80.9466 11.812C80.4366 11.2907 79.7963 11.03 79.0256 11.03C78.255 11.03 77.6146 11.2907 77.1046 11.812C76.5946 12.322 76.3396 12.968 76.3396 13.75C76.3396 14.532 76.5946 15.1837 77.1046 15.705ZM89.2236 18.221C87.977 18.221 86.9173 17.7903 86.0446 16.929C85.172 16.0677 84.7356 15.008 84.7356 13.75C84.7356 12.492 85.172 11.4323 86.0446 10.571C86.9173 9.70967 87.977 9.279 89.2236 9.279C90.4816 9.279 91.5413 9.70967 92.4026 10.571C93.2753 11.4323 93.7116 12.492 93.7116 13.75C93.7116 15.008 93.2753 16.0677 92.4026 16.929C91.5413 17.7903 90.4816 18.221 89.2236 18.221ZM87.3366 15.671C87.8466 16.181 88.4756 16.436 89.2236 16.436C89.9716 16.436 90.6006 16.181 91.1106 15.671C91.6206 15.161 91.8756 14.5207 91.8756 13.75C91.8756 12.9793 91.6206 12.339 91.1106 11.829C90.6006 11.319 89.9716 11.064 89.2236 11.064C88.4756 11.064 87.8466 11.319 87.3366 11.829C86.8266 12.339 86.5716 12.9793 86.5716 13.75C86.5716 14.5207 86.8266 15.161 87.3366 15.671ZM99.3838 18.221C98.1371 18.221 97.0774 17.7903 96.2048 16.929C95.3321 16.0677 94.8958 15.008 94.8958 13.75C94.8958 12.492 95.3321 11.4323 96.2048 10.571C97.0774 9.70967 98.1371 9.279 99.3838 9.279C100.642 9.279 101.701 9.70967 102.563 10.571C103.435 11.4323 103.872 12.492 103.872 13.75C103.872 15.008 103.435 16.0677 102.563 16.929C101.701 17.7903 100.642 18.221 99.3838 18.221ZM97.4968 15.671C98.0068 16.181 98.6358 16.436 99.3838 16.436C100.132 16.436 100.761 16.181 101.271 15.671C101.781 15.161 102.036 14.5207 102.036 13.75C102.036 12.9793 101.781 12.339 101.271 11.829C100.761 11.319 100.132 11.064 99.3838 11.064C98.6358 11.064 98.0068 11.319 97.4968 11.829C96.9868 12.339 96.7318 12.9793 96.7318 13.75C96.7318 14.5207 96.9868 15.161 97.4968 15.671ZM113.046 18H110.853L107.368 14.073V18H105.532V6.1H107.368V13.257L110.666 9.5H112.91L109.17 13.665L113.046 18Z" fill="#0C5CB7"/>
</svg>
