<svg width="16" height="16" viewBox="0 0 16 16" fill="none" xmlns="http://www.w3.org/2000/svg">
<path d="M7.58621 1.99949C9.61172 1.99949 9.85195 2.00708 10.6523 2.04375C12.7082 2.13731 13.6684 3.11277 13.762 5.15346C13.7987 5.95317 13.8056 6.1934 13.8056 8.21892C13.8056 10.2451 13.798 10.4847 13.762 11.2844C13.6678 13.3232 12.7101 14.3005 10.6523 14.3941C9.85195 14.4308 9.61299 14.4383 7.58621 14.4383C5.56069 14.4383 5.32046 14.4308 4.52075 14.3941C2.45983 14.2999 1.5046 13.32 1.41103 11.2837C1.37437 10.484 1.36678 10.2444 1.36678 8.21829C1.36678 6.19277 1.375 5.95317 1.41103 5.15283C1.50523 3.11277 2.46299 2.13668 4.52075 2.04311C5.32109 2.00708 5.56069 1.99949 7.58621 1.99949ZM7.58621 0.63208C5.52592 0.63208 5.26799 0.640931 4.45879 0.677597C1.70374 0.804034 0.172586 2.33265 0.0461494 5.09024C0.00885057 5.90007 0 6.158 0 8.21829C0 10.2786 0.00885057 10.5371 0.0455172 11.3463C0.171954 14.1014 1.70057 15.6325 4.45816 15.759C5.26799 15.7956 5.52592 15.8045 7.58621 15.8045C9.64649 15.8045 9.90506 15.7956 10.7143 15.759C13.4668 15.6325 15.0017 14.1039 15.1263 11.3463C15.1636 10.5371 15.1724 10.2786 15.1724 8.21829C15.1724 6.158 15.1636 5.90007 15.1269 5.09087C15.003 2.33834 13.4725 0.804666 10.7149 0.67823C9.90506 0.640931 9.64649 0.63208 7.58621 0.63208V0.63208ZM7.58621 4.32277C5.43489 4.32277 3.69069 6.06697 3.69069 8.21829C3.69069 10.3696 5.43489 12.1144 7.58621 12.1144C9.73753 12.1144 11.4817 10.3702 11.4817 8.21829C11.4817 6.06697 9.73753 4.32277 7.58621 4.32277ZM7.58621 10.747C6.18971 10.747 5.05747 9.61541 5.05747 8.21829C5.05747 6.82179 6.18971 5.68955 7.58621 5.68955C8.9827 5.68955 10.1149 6.82179 10.1149 8.21829C10.1149 9.61541 8.9827 10.747 7.58621 10.747ZM11.636 3.2588C11.1328 3.2588 10.725 3.66656 10.725 4.16915C10.725 4.67174 11.1328 5.07949 11.636 5.07949C12.1386 5.07949 12.5457 4.67174 12.5457 4.16915C12.5457 3.66656 12.1386 3.2588 11.636 3.2588Z" fill="white"/>
</svg>
