<svg width="22" height="22" viewBox="0 0 22 22" fill="none" xmlns="http://www.w3.org/2000/svg">
<path d="M21 11C21 16.5228 16.5228 21 11 21M21 11C21 5.47713 16.5228 0.999977 11 0.999977M21 11H1M11 21C5.47715 21 1 16.5228 1 11M11 21C13.5013 18.2616 14.9228 14.7079 15 11C14.9228 7.29201 13.5013 3.73833 11 0.999977M11 21C8.49872 18.2616 7.07725 14.7079 7 11C7.07725 7.29201 8.49872 3.73833 11 0.999977M1 11C1 5.47713 5.47715 0.999977 11 0.999977" stroke="white" stroke-width="2" stroke-linecap="round" stroke-linejoin="round"/>
</svg>
