<svg width="19" height="23" viewBox="0 0 19 23" fill="none" xmlns="http://www.w3.org/2000/svg">
<path d="M11.793 1.44788H3.79297C3.26254 1.44788 2.75383 1.65859 2.37876 2.03366C2.00368 2.40874 1.79297 2.91744 1.79297 3.44788V19.4479C1.79297 19.9783 2.00368 20.487 2.37876 20.8621C2.75383 21.2372 3.26254 21.4479 3.79297 21.4479H15.793C16.3234 21.4479 16.8321 21.2372 17.2072 20.8621C17.5823 20.487 17.793 19.9783 17.793 19.4479V7.44788M11.793 1.44788L17.793 7.44788M11.793 1.44788V7.44788H17.793M13.793 12.4479H5.79297M13.793 16.4479H5.79297M7.79297 8.44788H5.79297" stroke="white" stroke-width="2" fill="none" stroke-linecap="round" stroke-linejoin="round"/>
</svg>
