<svg width="16" height="13" viewBox="0 0 16 13" fill="none" xmlns="http://www.w3.org/2000/svg">
<path d="M15.954 1.51318C15.3958 1.761 14.7959 1.92789 14.1662 2.00312C14.8091 1.61812 15.3029 1.00806 15.5349 0.281053C14.9337 0.637605 14.2674 0.8968 13.5581 1.03651C12.991 0.431513 12.1812 0.0534668 11.286 0.0534668C9.27627 0.0534668 7.79949 1.92852 8.2534 3.87502C5.66713 3.74542 3.37357 2.50634 1.838 0.623065C1.02248 2.02209 1.41506 3.85226 2.80081 4.77904C2.29127 4.7626 1.81081 4.62289 1.39167 4.38962C1.35754 5.83163 2.39116 7.18071 3.88817 7.481C3.45006 7.59985 2.97024 7.62766 2.48219 7.5341C2.87794 8.77065 4.02725 9.67025 5.39024 9.69554C4.08162 10.7216 2.43288 11.1799 0.781616 10.9852C2.15914 11.8684 3.79587 12.3836 5.55334 12.3836C11.3328 12.3836 14.598 7.50249 14.4008 3.12462C15.0089 2.68525 15.5368 2.13715 15.954 1.51318Z" fill="white"/>
</svg>
