<svg width="505" height="227" viewBox="0 0 505 227" fill="none" xmlns="http://www.w3.org/2000/svg">
<path d="M322 162C322 162.552 321.552 163 321 163C320.448 163 320 162.552 320 162C320 161.448 320.448 161 321 161C321.552 161 322 161.448 322 162Z" fill="#C4C4C4" fill-opacity="0.8"/>
<path d="M338 162C338 162.552 337.552 163 337 163C336.448 163 336 162.552 336 162C336 161.448 336.448 161 337 161C337.552 161 338 161.448 338 162Z" fill="#C4C4C4" fill-opacity="0.8"/>
<path d="M354 162C354 162.552 353.552 163 353 163C352.448 163 352 162.552 352 162C352 161.448 352.448 161 353 161C353.552 161 354 161.448 354 162Z" fill="#C4C4C4" fill-opacity="0.8"/>
<path d="M370 162C370 162.552 369.552 163 369 163C368.448 163 368 162.552 368 162C368 161.448 368.448 161 369 161C369.552 161 370 161.448 370 162Z" fill="#C4C4C4" fill-opacity="0.8"/>
<path d="M386 162C386 162.552 385.552 163 385 163C384.448 163 384 162.552 384 162C384 161.448 384.448 161 385 161C385.552 161 386 161.448 386 162Z" fill="#C4C4C4" fill-opacity="0.8"/>
<path d="M322 178C322 178.552 321.552 179 321 179C320.448 179 320 178.552 320 178C320 177.448 320.448 177 321 177C321.552 177 322 177.448 322 178Z" fill="#C4C4C4" fill-opacity="0.8"/>
<path d="M338 178C338 178.552 337.552 179 337 179C336.448 179 336 178.552 336 178C336 177.448 336.448 177 337 177C337.552 177 338 177.448 338 178Z" fill="#C4C4C4" fill-opacity="0.8"/>
<path d="M354 178C354 178.552 353.552 179 353 179C352.448 179 352 178.552 352 178C352 177.448 352.448 177 353 177C353.552 177 354 177.448 354 178Z" fill="#C4C4C4" fill-opacity="0.8"/>
<path d="M370 178C370 178.552 369.552 179 369 179C368.448 179 368 178.552 368 178C368 177.448 368.448 177 369 177C369.552 177 370 177.448 370 178Z" fill="#C4C4C4" fill-opacity="0.8"/>
<path d="M386 178C386 178.552 385.552 179 385 179C384.448 179 384 178.552 384 178C384 177.448 384.448 177 385 177C385.552 177 386 177.448 386 178Z" fill="#C4C4C4" fill-opacity="0.8"/>
<path d="M322 194C322 194.552 321.552 195 321 195C320.448 195 320 194.552 320 194C320 193.448 320.448 193 321 193C321.552 193 322 193.448 322 194Z" fill="#C4C4C4" fill-opacity="0.8"/>
<path d="M338 194C338 194.552 337.552 195 337 195C336.448 195 336 194.552 336 194C336 193.448 336.448 193 337 193C337.552 193 338 193.448 338 194Z" fill="#C4C4C4" fill-opacity="0.8"/>
<path d="M354 194C354 194.552 353.552 195 353 195C352.448 195 352 194.552 352 194C352 193.448 352.448 193 353 193C353.552 193 354 193.448 354 194Z" fill="#C4C4C4" fill-opacity="0.8"/>
<path d="M370 194C370 194.552 369.552 195 369 195C368.448 195 368 194.552 368 194C368 193.448 368.448 193 369 193C369.552 193 370 193.448 370 194Z" fill="#C4C4C4" fill-opacity="0.8"/>
<path d="M386 194C386 194.552 385.552 195 385 195C384.448 195 384 194.552 384 194C384 193.448 384.448 193 385 193C385.552 193 386 193.448 386 194Z" fill="#C4C4C4" fill-opacity="0.8"/>
<path d="M322 210C322 210.552 321.552 211 321 211C320.448 211 320 210.552 320 210C320 209.448 320.448 209 321 209C321.552 209 322 209.448 322 210Z" fill="#C4C4C4" fill-opacity="0.8"/>
<path d="M338 210C338 210.552 337.552 211 337 211C336.448 211 336 210.552 336 210C336 209.448 336.448 209 337 209C337.552 209 338 209.448 338 210Z" fill="#C4C4C4" fill-opacity="0.8"/>
<path d="M354 210C354 210.552 353.552 211 353 211C352.448 211 352 210.552 352 210C352 209.448 352.448 209 353 209C353.552 209 354 209.448 354 210Z" fill="#C4C4C4" fill-opacity="0.8"/>
<path d="M370 210C370 210.552 369.552 211 369 211C368.448 211 368 210.552 368 210C368 209.448 368.448 209 369 209C369.552 209 370 209.448 370 210Z" fill="#C4C4C4" fill-opacity="0.8"/>
<path d="M386 210C386 210.552 385.552 211 385 211C384.448 211 384 210.552 384 210C384 209.448 384.448 209 385 209C385.552 209 386 209.448 386 210Z" fill="#C4C4C4" fill-opacity="0.8"/>
<path d="M322 226C322 226.552 321.552 227 321 227C320.448 227 320 226.552 320 226C320 225.448 320.448 225 321 225C321.552 225 322 225.448 322 226Z" fill="#C4C4C4" fill-opacity="0.8"/>
<path d="M338 226C338 226.552 337.552 227 337 227C336.448 227 336 226.552 336 226C336 225.448 336.448 225 337 225C337.552 225 338 225.448 338 226Z" fill="#C4C4C4" fill-opacity="0.8"/>
<path d="M354 226C354 226.552 353.552 227 353 227C352.448 227 352 226.552 352 226C352 225.448 352.448 225 353 225C353.552 225 354 225.448 354 226Z" fill="#C4C4C4" fill-opacity="0.8"/>
<path d="M370 226C370 226.552 369.552 227 369 227C368.448 227 368 226.552 368 226C368 225.448 368.448 225 369 225C369.552 225 370 225.448 370 226Z" fill="#C4C4C4" fill-opacity="0.8"/>
<path d="M386 226C386 226.552 385.552 227 385 227C384.448 227 384 226.552 384 226C384 225.448 384.448 225 385 225C385.552 225 386 225.448 386 226Z" fill="#C4C4C4" fill-opacity="0.8"/>
<path d="M402 162C402 162.552 401.552 163 401 163C400.448 163 400 162.552 400 162C400 161.448 400.448 161 401 161C401.552 161 402 161.448 402 162Z" fill="#C4C4C4" fill-opacity="0.8"/>
<path d="M418 162C418 162.552 417.552 163 417 163C416.448 163 416 162.552 416 162C416 161.448 416.448 161 417 161C417.552 161 418 161.448 418 162Z" fill="#C4C4C4" fill-opacity="0.8"/>
<path d="M434 162C434 162.552 433.552 163 433 163C432.448 163 432 162.552 432 162C432 161.448 432.448 161 433 161C433.552 161 434 161.448 434 162Z" fill="#C4C4C4" fill-opacity="0.8"/>
<path d="M450 162C450 162.552 449.552 163 449 163C448.448 163 448 162.552 448 162C448 161.448 448.448 161 449 161C449.552 161 450 161.448 450 162Z" fill="#C4C4C4" fill-opacity="0.8"/>
<path d="M466 162C466 162.552 465.552 163 465 163C464.448 163 464 162.552 464 162C464 161.448 464.448 161 465 161C465.552 161 466 161.448 466 162Z" fill="#C4C4C4" fill-opacity="0.8"/>
<path d="M402 178C402 178.552 401.552 179 401 179C400.448 179 400 178.552 400 178C400 177.448 400.448 177 401 177C401.552 177 402 177.448 402 178Z" fill="#C4C4C4" fill-opacity="0.8"/>
<path d="M418 178C418 178.552 417.552 179 417 179C416.448 179 416 178.552 416 178C416 177.448 416.448 177 417 177C417.552 177 418 177.448 418 178Z" fill="#C4C4C4" fill-opacity="0.8"/>
<path d="M434 178C434 178.552 433.552 179 433 179C432.448 179 432 178.552 432 178C432 177.448 432.448 177 433 177C433.552 177 434 177.448 434 178Z" fill="#C4C4C4" fill-opacity="0.8"/>
<path d="M450 178C450 178.552 449.552 179 449 179C448.448 179 448 178.552 448 178C448 177.448 448.448 177 449 177C449.552 177 450 177.448 450 178Z" fill="#C4C4C4" fill-opacity="0.8"/>
<path d="M466 178C466 178.552 465.552 179 465 179C464.448 179 464 178.552 464 178C464 177.448 464.448 177 465 177C465.552 177 466 177.448 466 178Z" fill="#C4C4C4" fill-opacity="0.8"/>
<path d="M402 194C402 194.552 401.552 195 401 195C400.448 195 400 194.552 400 194C400 193.448 400.448 193 401 193C401.552 193 402 193.448 402 194Z" fill="#C4C4C4" fill-opacity="0.8"/>
<path d="M418 194C418 194.552 417.552 195 417 195C416.448 195 416 194.552 416 194C416 193.448 416.448 193 417 193C417.552 193 418 193.448 418 194Z" fill="#C4C4C4" fill-opacity="0.8"/>
<path d="M434 194C434 194.552 433.552 195 433 195C432.448 195 432 194.552 432 194C432 193.448 432.448 193 433 193C433.552 193 434 193.448 434 194Z" fill="#C4C4C4" fill-opacity="0.8"/>
<path d="M450 194C450 194.552 449.552 195 449 195C448.448 195 448 194.552 448 194C448 193.448 448.448 193 449 193C449.552 193 450 193.448 450 194Z" fill="#C4C4C4" fill-opacity="0.8"/>
<path d="M466 194C466 194.552 465.552 195 465 195C464.448 195 464 194.552 464 194C464 193.448 464.448 193 465 193C465.552 193 466 193.448 466 194Z" fill="#C4C4C4" fill-opacity="0.8"/>
<path d="M402 210C402 210.552 401.552 211 401 211C400.448 211 400 210.552 400 210C400 209.448 400.448 209 401 209C401.552 209 402 209.448 402 210Z" fill="#C4C4C4" fill-opacity="0.8"/>
<path d="M418 210C418 210.552 417.552 211 417 211C416.448 211 416 210.552 416 210C416 209.448 416.448 209 417 209C417.552 209 418 209.448 418 210Z" fill="#C4C4C4" fill-opacity="0.8"/>
<path d="M434 210C434 210.552 433.552 211 433 211C432.448 211 432 210.552 432 210C432 209.448 432.448 209 433 209C433.552 209 434 209.448 434 210Z" fill="#C4C4C4" fill-opacity="0.8"/>
<path d="M450 210C450 210.552 449.552 211 449 211C448.448 211 448 210.552 448 210C448 209.448 448.448 209 449 209C449.552 209 450 209.448 450 210Z" fill="#C4C4C4" fill-opacity="0.8"/>
<path d="M466 210C466 210.552 465.552 211 465 211C464.448 211 464 210.552 464 210C464 209.448 464.448 209 465 209C465.552 209 466 209.448 466 210Z" fill="#C4C4C4" fill-opacity="0.8"/>
<path d="M402 226C402 226.552 401.552 227 401 227C400.448 227 400 226.552 400 226C400 225.448 400.448 225 401 225C401.552 225 402 225.448 402 226Z" fill="#C4C4C4" fill-opacity="0.8"/>
<path d="M418 226C418 226.552 417.552 227 417 227C416.448 227 416 226.552 416 226C416 225.448 416.448 225 417 225C417.552 225 418 225.448 418 226Z" fill="#C4C4C4" fill-opacity="0.8"/>
<path d="M434 226C434 226.552 433.552 227 433 227C432.448 227 432 226.552 432 226C432 225.448 432.448 225 433 225C433.552 225 434 225.448 434 226Z" fill="#C4C4C4" fill-opacity="0.8"/>
<path d="M450 226C450 226.552 449.552 227 449 227C448.448 227 448 226.552 448 226C448 225.448 448.448 225 449 225C449.552 225 450 225.448 450 226Z" fill="#C4C4C4" fill-opacity="0.8"/>
<path d="M466 226C466 226.552 465.552 227 465 227C464.448 227 464 226.552 464 226C464 225.448 464.448 225 465 225C465.552 225 466 225.448 466 226Z" fill="#C4C4C4" fill-opacity="0.8"/>
<path d="M482 162C482 162.552 481.552 163 481 163C480.448 163 480 162.552 480 162C480 161.448 480.448 161 481 161C481.552 161 482 161.448 482 162Z" fill="#C4C4C4" fill-opacity="0.8"/>
<path d="M498 162C498 162.552 497.552 163 497 163C496.448 163 496 162.552 496 162C496 161.448 496.448 161 497 161C497.552 161 498 161.448 498 162Z" fill="#C4C4C4" fill-opacity="0.8"/>
<path d="M514 162C514 162.552 513.552 163 513 163C512.448 163 512 162.552 512 162C512 161.448 512.448 161 513 161C513.552 161 514 161.448 514 162Z" fill="#C4C4C4" fill-opacity="0.8"/>
<path d="M530 162C530 162.552 529.552 163 529 163C528.448 163 528 162.552 528 162C528 161.448 528.448 161 529 161C529.552 161 530 161.448 530 162Z" fill="#C4C4C4" fill-opacity="0.8"/>
<path d="M546 162C546 162.552 545.552 163 545 163C544.448 163 544 162.552 544 162C544 161.448 544.448 161 545 161C545.552 161 546 161.448 546 162Z" fill="#C4C4C4" fill-opacity="0.8"/>
<path d="M482 178C482 178.552 481.552 179 481 179C480.448 179 480 178.552 480 178C480 177.448 480.448 177 481 177C481.552 177 482 177.448 482 178Z" fill="#C4C4C4" fill-opacity="0.8"/>
<path d="M498 178C498 178.552 497.552 179 497 179C496.448 179 496 178.552 496 178C496 177.448 496.448 177 497 177C497.552 177 498 177.448 498 178Z" fill="#C4C4C4" fill-opacity="0.8"/>
<path d="M514 178C514 178.552 513.552 179 513 179C512.448 179 512 178.552 512 178C512 177.448 512.448 177 513 177C513.552 177 514 177.448 514 178Z" fill="#C4C4C4" fill-opacity="0.8"/>
<path d="M530 178C530 178.552 529.552 179 529 179C528.448 179 528 178.552 528 178C528 177.448 528.448 177 529 177C529.552 177 530 177.448 530 178Z" fill="#C4C4C4" fill-opacity="0.8"/>
<path d="M546 178C546 178.552 545.552 179 545 179C544.448 179 544 178.552 544 178C544 177.448 544.448 177 545 177C545.552 177 546 177.448 546 178Z" fill="#C4C4C4" fill-opacity="0.8"/>
<path d="M482 194C482 194.552 481.552 195 481 195C480.448 195 480 194.552 480 194C480 193.448 480.448 193 481 193C481.552 193 482 193.448 482 194Z" fill="#C4C4C4" fill-opacity="0.8"/>
<path d="M498 194C498 194.552 497.552 195 497 195C496.448 195 496 194.552 496 194C496 193.448 496.448 193 497 193C497.552 193 498 193.448 498 194Z" fill="#C4C4C4" fill-opacity="0.8"/>
<path d="M514 194C514 194.552 513.552 195 513 195C512.448 195 512 194.552 512 194C512 193.448 512.448 193 513 193C513.552 193 514 193.448 514 194Z" fill="#C4C4C4" fill-opacity="0.8"/>
<path d="M530 194C530 194.552 529.552 195 529 195C528.448 195 528 194.552 528 194C528 193.448 528.448 193 529 193C529.552 193 530 193.448 530 194Z" fill="#C4C4C4" fill-opacity="0.8"/>
<path d="M546 194C546 194.552 545.552 195 545 195C544.448 195 544 194.552 544 194C544 193.448 544.448 193 545 193C545.552 193 546 193.448 546 194Z" fill="#C4C4C4" fill-opacity="0.8"/>
<path d="M482 210C482 210.552 481.552 211 481 211C480.448 211 480 210.552 480 210C480 209.448 480.448 209 481 209C481.552 209 482 209.448 482 210Z" fill="#C4C4C4" fill-opacity="0.8"/>
<path d="M498 210C498 210.552 497.552 211 497 211C496.448 211 496 210.552 496 210C496 209.448 496.448 209 497 209C497.552 209 498 209.448 498 210Z" fill="#C4C4C4" fill-opacity="0.8"/>
<path d="M514 210C514 210.552 513.552 211 513 211C512.448 211 512 210.552 512 210C512 209.448 512.448 209 513 209C513.552 209 514 209.448 514 210Z" fill="#C4C4C4" fill-opacity="0.8"/>
<path d="M530 210C530 210.552 529.552 211 529 211C528.448 211 528 210.552 528 210C528 209.448 528.448 209 529 209C529.552 209 530 209.448 530 210Z" fill="#C4C4C4" fill-opacity="0.8"/>
<path d="M546 210C546 210.552 545.552 211 545 211C544.448 211 544 210.552 544 210C544 209.448 544.448 209 545 209C545.552 209 546 209.448 546 210Z" fill="#C4C4C4" fill-opacity="0.8"/>
<path d="M482 226C482 226.552 481.552 227 481 227C480.448 227 480 226.552 480 226C480 225.448 480.448 225 481 225C481.552 225 482 225.448 482 226Z" fill="#C4C4C4" fill-opacity="0.8"/>
<path d="M498 226C498 226.552 497.552 227 497 227C496.448 227 496 226.552 496 226C496 225.448 496.448 225 497 225C497.552 225 498 225.448 498 226Z" fill="#C4C4C4" fill-opacity="0.8"/>
<path d="M514 226C514 226.552 513.552 227 513 227C512.448 227 512 226.552 512 226C512 225.448 512.448 225 513 225C513.552 225 514 225.448 514 226Z" fill="#C4C4C4" fill-opacity="0.8"/>
<path d="M530 226C530 226.552 529.552 227 529 227C528.448 227 528 226.552 528 226C528 225.448 528.448 225 529 225C529.552 225 530 225.448 530 226Z" fill="#C4C4C4" fill-opacity="0.8"/>
<path d="M546 226C546 226.552 545.552 227 545 227C544.448 227 544 226.552 544 226C544 225.448 544.448 225 545 225C545.552 225 546 225.448 546 226Z" fill="#C4C4C4" fill-opacity="0.8"/>
<path d="M162 162C162 162.552 161.552 163 161 163C160.448 163 160 162.552 160 162C160 161.448 160.448 161 161 161C161.552 161 162 161.448 162 162Z" fill="#C4C4C4" fill-opacity="0.8"/>
<path d="M178 162C178 162.552 177.552 163 177 163C176.448 163 176 162.552 176 162C176 161.448 176.448 161 177 161C177.552 161 178 161.448 178 162Z" fill="#C4C4C4" fill-opacity="0.8"/>
<path d="M194 162C194 162.552 193.552 163 193 163C192.448 163 192 162.552 192 162C192 161.448 192.448 161 193 161C193.552 161 194 161.448 194 162Z" fill="#C4C4C4" fill-opacity="0.8"/>
<path d="M210 162C210 162.552 209.552 163 209 163C208.448 163 208 162.552 208 162C208 161.448 208.448 161 209 161C209.552 161 210 161.448 210 162Z" fill="#C4C4C4" fill-opacity="0.8"/>
<path d="M226 162C226 162.552 225.552 163 225 163C224.448 163 224 162.552 224 162C224 161.448 224.448 161 225 161C225.552 161 226 161.448 226 162Z" fill="#C4C4C4" fill-opacity="0.8"/>
<path d="M162 178C162 178.552 161.552 179 161 179C160.448 179 160 178.552 160 178C160 177.448 160.448 177 161 177C161.552 177 162 177.448 162 178Z" fill="#C4C4C4" fill-opacity="0.8"/>
<path d="M178 178C178 178.552 177.552 179 177 179C176.448 179 176 178.552 176 178C176 177.448 176.448 177 177 177C177.552 177 178 177.448 178 178Z" fill="#C4C4C4" fill-opacity="0.8"/>
<path d="M194 178C194 178.552 193.552 179 193 179C192.448 179 192 178.552 192 178C192 177.448 192.448 177 193 177C193.552 177 194 177.448 194 178Z" fill="#C4C4C4" fill-opacity="0.8"/>
<path d="M210 178C210 178.552 209.552 179 209 179C208.448 179 208 178.552 208 178C208 177.448 208.448 177 209 177C209.552 177 210 177.448 210 178Z" fill="#C4C4C4" fill-opacity="0.8"/>
<path d="M226 178C226 178.552 225.552 179 225 179C224.448 179 224 178.552 224 178C224 177.448 224.448 177 225 177C225.552 177 226 177.448 226 178Z" fill="#C4C4C4" fill-opacity="0.8"/>
<path d="M162 194C162 194.552 161.552 195 161 195C160.448 195 160 194.552 160 194C160 193.448 160.448 193 161 193C161.552 193 162 193.448 162 194Z" fill="#C4C4C4" fill-opacity="0.8"/>
<path d="M178 194C178 194.552 177.552 195 177 195C176.448 195 176 194.552 176 194C176 193.448 176.448 193 177 193C177.552 193 178 193.448 178 194Z" fill="#C4C4C4" fill-opacity="0.8"/>
<path d="M194 194C194 194.552 193.552 195 193 195C192.448 195 192 194.552 192 194C192 193.448 192.448 193 193 193C193.552 193 194 193.448 194 194Z" fill="#C4C4C4" fill-opacity="0.8"/>
<path d="M210 194C210 194.552 209.552 195 209 195C208.448 195 208 194.552 208 194C208 193.448 208.448 193 209 193C209.552 193 210 193.448 210 194Z" fill="#C4C4C4" fill-opacity="0.8"/>
<path d="M226 194C226 194.552 225.552 195 225 195C224.448 195 224 194.552 224 194C224 193.448 224.448 193 225 193C225.552 193 226 193.448 226 194Z" fill="#C4C4C4" fill-opacity="0.8"/>
<path d="M162 210C162 210.552 161.552 211 161 211C160.448 211 160 210.552 160 210C160 209.448 160.448 209 161 209C161.552 209 162 209.448 162 210Z" fill="#C4C4C4" fill-opacity="0.8"/>
<path d="M178 210C178 210.552 177.552 211 177 211C176.448 211 176 210.552 176 210C176 209.448 176.448 209 177 209C177.552 209 178 209.448 178 210Z" fill="#C4C4C4" fill-opacity="0.8"/>
<path d="M194 210C194 210.552 193.552 211 193 211C192.448 211 192 210.552 192 210C192 209.448 192.448 209 193 209C193.552 209 194 209.448 194 210Z" fill="#C4C4C4" fill-opacity="0.8"/>
<path d="M210 210C210 210.552 209.552 211 209 211C208.448 211 208 210.552 208 210C208 209.448 208.448 209 209 209C209.552 209 210 209.448 210 210Z" fill="#C4C4C4" fill-opacity="0.8"/>
<path d="M226 210C226 210.552 225.552 211 225 211C224.448 211 224 210.552 224 210C224 209.448 224.448 209 225 209C225.552 209 226 209.448 226 210Z" fill="#C4C4C4" fill-opacity="0.8"/>
<path d="M162 226C162 226.552 161.552 227 161 227C160.448 227 160 226.552 160 226C160 225.448 160.448 225 161 225C161.552 225 162 225.448 162 226Z" fill="#C4C4C4" fill-opacity="0.8"/>
<path d="M178 226C178 226.552 177.552 227 177 227C176.448 227 176 226.552 176 226C176 225.448 176.448 225 177 225C177.552 225 178 225.448 178 226Z" fill="#C4C4C4" fill-opacity="0.8"/>
<path d="M194 226C194 226.552 193.552 227 193 227C192.448 227 192 226.552 192 226C192 225.448 192.448 225 193 225C193.552 225 194 225.448 194 226Z" fill="#C4C4C4" fill-opacity="0.8"/>
<path d="M210 226C210 226.552 209.552 227 209 227C208.448 227 208 226.552 208 226C208 225.448 208.448 225 209 225C209.552 225 210 225.448 210 226Z" fill="#C4C4C4" fill-opacity="0.8"/>
<path d="M226 226C226 226.552 225.552 227 225 227C224.448 227 224 226.552 224 226C224 225.448 224.448 225 225 225C225.552 225 226 225.448 226 226Z" fill="#C4C4C4" fill-opacity="0.8"/>
<path d="M242 162C242 162.552 241.552 163 241 163C240.448 163 240 162.552 240 162C240 161.448 240.448 161 241 161C241.552 161 242 161.448 242 162Z" fill="#C4C4C4" fill-opacity="0.8"/>
<path d="M258 162C258 162.552 257.552 163 257 163C256.448 163 256 162.552 256 162C256 161.448 256.448 161 257 161C257.552 161 258 161.448 258 162Z" fill="#C4C4C4" fill-opacity="0.8"/>
<path d="M274 162C274 162.552 273.552 163 273 163C272.448 163 272 162.552 272 162C272 161.448 272.448 161 273 161C273.552 161 274 161.448 274 162Z" fill="#C4C4C4" fill-opacity="0.8"/>
<path d="M290 162C290 162.552 289.552 163 289 163C288.448 163 288 162.552 288 162C288 161.448 288.448 161 289 161C289.552 161 290 161.448 290 162Z" fill="#C4C4C4" fill-opacity="0.8"/>
<path d="M306 162C306 162.552 305.552 163 305 163C304.448 163 304 162.552 304 162C304 161.448 304.448 161 305 161C305.552 161 306 161.448 306 162Z" fill="#C4C4C4" fill-opacity="0.8"/>
<path d="M242 178C242 178.552 241.552 179 241 179C240.448 179 240 178.552 240 178C240 177.448 240.448 177 241 177C241.552 177 242 177.448 242 178Z" fill="#C4C4C4" fill-opacity="0.8"/>
<path d="M258 178C258 178.552 257.552 179 257 179C256.448 179 256 178.552 256 178C256 177.448 256.448 177 257 177C257.552 177 258 177.448 258 178Z" fill="#C4C4C4" fill-opacity="0.8"/>
<path d="M274 178C274 178.552 273.552 179 273 179C272.448 179 272 178.552 272 178C272 177.448 272.448 177 273 177C273.552 177 274 177.448 274 178Z" fill="#C4C4C4" fill-opacity="0.8"/>
<path d="M290 178C290 178.552 289.552 179 289 179C288.448 179 288 178.552 288 178C288 177.448 288.448 177 289 177C289.552 177 290 177.448 290 178Z" fill="#C4C4C4" fill-opacity="0.8"/>
<path d="M306 178C306 178.552 305.552 179 305 179C304.448 179 304 178.552 304 178C304 177.448 304.448 177 305 177C305.552 177 306 177.448 306 178Z" fill="#C4C4C4" fill-opacity="0.8"/>
<path d="M242 194C242 194.552 241.552 195 241 195C240.448 195 240 194.552 240 194C240 193.448 240.448 193 241 193C241.552 193 242 193.448 242 194Z" fill="#C4C4C4" fill-opacity="0.8"/>
<path d="M258 194C258 194.552 257.552 195 257 195C256.448 195 256 194.552 256 194C256 193.448 256.448 193 257 193C257.552 193 258 193.448 258 194Z" fill="#C4C4C4" fill-opacity="0.8"/>
<path d="M274 194C274 194.552 273.552 195 273 195C272.448 195 272 194.552 272 194C272 193.448 272.448 193 273 193C273.552 193 274 193.448 274 194Z" fill="#C4C4C4" fill-opacity="0.8"/>
<path d="M290 194C290 194.552 289.552 195 289 195C288.448 195 288 194.552 288 194C288 193.448 288.448 193 289 193C289.552 193 290 193.448 290 194Z" fill="#C4C4C4" fill-opacity="0.8"/>
<path d="M306 194C306 194.552 305.552 195 305 195C304.448 195 304 194.552 304 194C304 193.448 304.448 193 305 193C305.552 193 306 193.448 306 194Z" fill="#C4C4C4" fill-opacity="0.8"/>
<path d="M242 210C242 210.552 241.552 211 241 211C240.448 211 240 210.552 240 210C240 209.448 240.448 209 241 209C241.552 209 242 209.448 242 210Z" fill="#C4C4C4" fill-opacity="0.8"/>
<path d="M258 210C258 210.552 257.552 211 257 211C256.448 211 256 210.552 256 210C256 209.448 256.448 209 257 209C257.552 209 258 209.448 258 210Z" fill="#C4C4C4" fill-opacity="0.8"/>
<path d="M274 210C274 210.552 273.552 211 273 211C272.448 211 272 210.552 272 210C272 209.448 272.448 209 273 209C273.552 209 274 209.448 274 210Z" fill="#C4C4C4" fill-opacity="0.8"/>
<path d="M290 210C290 210.552 289.552 211 289 211C288.448 211 288 210.552 288 210C288 209.448 288.448 209 289 209C289.552 209 290 209.448 290 210Z" fill="#C4C4C4" fill-opacity="0.8"/>
<path d="M306 210C306 210.552 305.552 211 305 211C304.448 211 304 210.552 304 210C304 209.448 304.448 209 305 209C305.552 209 306 209.448 306 210Z" fill="#C4C4C4" fill-opacity="0.8"/>
<path d="M242 226C242 226.552 241.552 227 241 227C240.448 227 240 226.552 240 226C240 225.448 240.448 225 241 225C241.552 225 242 225.448 242 226Z" fill="#C4C4C4" fill-opacity="0.8"/>
<path d="M258 226C258 226.552 257.552 227 257 227C256.448 227 256 226.552 256 226C256 225.448 256.448 225 257 225C257.552 225 258 225.448 258 226Z" fill="#C4C4C4" fill-opacity="0.8"/>
<path d="M274 226C274 226.552 273.552 227 273 227C272.448 227 272 226.552 272 226C272 225.448 272.448 225 273 225C273.552 225 274 225.448 274 226Z" fill="#C4C4C4" fill-opacity="0.8"/>
<path d="M290 226C290 226.552 289.552 227 289 227C288.448 227 288 226.552 288 226C288 225.448 288.448 225 289 225C289.552 225 290 225.448 290 226Z" fill="#C4C4C4" fill-opacity="0.8"/>
<path d="M306 226C306 226.552 305.552 227 305 227C304.448 227 304 226.552 304 226C304 225.448 304.448 225 305 225C305.552 225 306 225.448 306 226Z" fill="#C4C4C4" fill-opacity="0.8"/>
<path d="M2 162C2 162.552 1.55228 163 1 163C0.447715 163 0 162.552 0 162C0 161.448 0.447715 161 1 161C1.55228 161 2 161.448 2 162Z" fill="#C4C4C4" fill-opacity="0.8"/>
<path d="M18 162C18 162.552 17.5523 163 17 163C16.4477 163 16 162.552 16 162C16 161.448 16.4477 161 17 161C17.5523 161 18 161.448 18 162Z" fill="#C4C4C4" fill-opacity="0.8"/>
<path d="M34 162C34 162.552 33.5523 163 33 163C32.4477 163 32 162.552 32 162C32 161.448 32.4477 161 33 161C33.5523 161 34 161.448 34 162Z" fill="#C4C4C4" fill-opacity="0.8"/>
<path d="M50 162C50 162.552 49.5523 163 49 163C48.4477 163 48 162.552 48 162C48 161.448 48.4477 161 49 161C49.5523 161 50 161.448 50 162Z" fill="#C4C4C4" fill-opacity="0.8"/>
<path d="M66 162C66 162.552 65.5523 163 65 163C64.4477 163 64 162.552 64 162C64 161.448 64.4477 161 65 161C65.5523 161 66 161.448 66 162Z" fill="#C4C4C4" fill-opacity="0.8"/>
<path d="M2 178C2 178.552 1.55228 179 1 179C0.447715 179 0 178.552 0 178C0 177.448 0.447715 177 1 177C1.55228 177 2 177.448 2 178Z" fill="#C4C4C4" fill-opacity="0.8"/>
<path d="M18 178C18 178.552 17.5523 179 17 179C16.4477 179 16 178.552 16 178C16 177.448 16.4477 177 17 177C17.5523 177 18 177.448 18 178Z" fill="#C4C4C4" fill-opacity="0.8"/>
<path d="M34 178C34 178.552 33.5523 179 33 179C32.4477 179 32 178.552 32 178C32 177.448 32.4477 177 33 177C33.5523 177 34 177.448 34 178Z" fill="#C4C4C4" fill-opacity="0.8"/>
<path d="M50 178C50 178.552 49.5523 179 49 179C48.4477 179 48 178.552 48 178C48 177.448 48.4477 177 49 177C49.5523 177 50 177.448 50 178Z" fill="#C4C4C4" fill-opacity="0.8"/>
<path d="M66 178C66 178.552 65.5523 179 65 179C64.4477 179 64 178.552 64 178C64 177.448 64.4477 177 65 177C65.5523 177 66 177.448 66 178Z" fill="#C4C4C4" fill-opacity="0.8"/>
<path d="M2 194C2 194.552 1.55228 195 1 195C0.447715 195 0 194.552 0 194C0 193.448 0.447715 193 1 193C1.55228 193 2 193.448 2 194Z" fill="#C4C4C4" fill-opacity="0.8"/>
<path d="M18 194C18 194.552 17.5523 195 17 195C16.4477 195 16 194.552 16 194C16 193.448 16.4477 193 17 193C17.5523 193 18 193.448 18 194Z" fill="#C4C4C4" fill-opacity="0.8"/>
<path d="M34 194C34 194.552 33.5523 195 33 195C32.4477 195 32 194.552 32 194C32 193.448 32.4477 193 33 193C33.5523 193 34 193.448 34 194Z" fill="#C4C4C4" fill-opacity="0.8"/>
<path d="M50 194C50 194.552 49.5523 195 49 195C48.4477 195 48 194.552 48 194C48 193.448 48.4477 193 49 193C49.5523 193 50 193.448 50 194Z" fill="#C4C4C4" fill-opacity="0.8"/>
<path d="M66 194C66 194.552 65.5523 195 65 195C64.4477 195 64 194.552 64 194C64 193.448 64.4477 193 65 193C65.5523 193 66 193.448 66 194Z" fill="#C4C4C4" fill-opacity="0.8"/>
<path d="M2 210C2 210.552 1.55228 211 1 211C0.447715 211 0 210.552 0 210C0 209.448 0.447715 209 1 209C1.55228 209 2 209.448 2 210Z" fill="#C4C4C4" fill-opacity="0.8"/>
<path d="M18 210C18 210.552 17.5523 211 17 211C16.4477 211 16 210.552 16 210C16 209.448 16.4477 209 17 209C17.5523 209 18 209.448 18 210Z" fill="#C4C4C4" fill-opacity="0.8"/>
<path d="M34 210C34 210.552 33.5523 211 33 211C32.4477 211 32 210.552 32 210C32 209.448 32.4477 209 33 209C33.5523 209 34 209.448 34 210Z" fill="#C4C4C4" fill-opacity="0.8"/>
<path d="M50 210C50 210.552 49.5523 211 49 211C48.4477 211 48 210.552 48 210C48 209.448 48.4477 209 49 209C49.5523 209 50 209.448 50 210Z" fill="#C4C4C4" fill-opacity="0.8"/>
<path d="M66 210C66 210.552 65.5523 211 65 211C64.4477 211 64 210.552 64 210C64 209.448 64.4477 209 65 209C65.5523 209 66 209.448 66 210Z" fill="#C4C4C4" fill-opacity="0.8"/>
<path d="M2 226C2 226.552 1.55228 227 1 227C0.447715 227 0 226.552 0 226C0 225.448 0.447715 225 1 225C1.55228 225 2 225.448 2 226Z" fill="#C4C4C4" fill-opacity="0.8"/>
<path d="M18 226C18 226.552 17.5523 227 17 227C16.4477 227 16 226.552 16 226C16 225.448 16.4477 225 17 225C17.5523 225 18 225.448 18 226Z" fill="#C4C4C4" fill-opacity="0.8"/>
<path d="M34 226C34 226.552 33.5523 227 33 227C32.4477 227 32 226.552 32 226C32 225.448 32.4477 225 33 225C33.5523 225 34 225.448 34 226Z" fill="#C4C4C4" fill-opacity="0.8"/>
<path d="M50 226C50 226.552 49.5523 227 49 227C48.4477 227 48 226.552 48 226C48 225.448 48.4477 225 49 225C49.5523 225 50 225.448 50 226Z" fill="#C4C4C4" fill-opacity="0.8"/>
<path d="M66 226C66 226.552 65.5523 227 65 227C64.4477 227 64 226.552 64 226C64 225.448 64.4477 225 65 225C65.5523 225 66 225.448 66 226Z" fill="#C4C4C4" fill-opacity="0.8"/>
<path d="M82 162C82 162.552 81.5523 163 81 163C80.4477 163 80 162.552 80 162C80 161.448 80.4477 161 81 161C81.5523 161 82 161.448 82 162Z" fill="#C4C4C4" fill-opacity="0.8"/>
<path d="M98 162C98 162.552 97.5523 163 97 163C96.4477 163 96 162.552 96 162C96 161.448 96.4477 161 97 161C97.5523 161 98 161.448 98 162Z" fill="#C4C4C4" fill-opacity="0.8"/>
<path d="M114 162C114 162.552 113.552 163 113 163C112.448 163 112 162.552 112 162C112 161.448 112.448 161 113 161C113.552 161 114 161.448 114 162Z" fill="#C4C4C4" fill-opacity="0.8"/>
<path d="M130 162C130 162.552 129.552 163 129 163C128.448 163 128 162.552 128 162C128 161.448 128.448 161 129 161C129.552 161 130 161.448 130 162Z" fill="#C4C4C4" fill-opacity="0.8"/>
<path d="M146 162C146 162.552 145.552 163 145 163C144.448 163 144 162.552 144 162C144 161.448 144.448 161 145 161C145.552 161 146 161.448 146 162Z" fill="#C4C4C4" fill-opacity="0.8"/>
<path d="M82 178C82 178.552 81.5523 179 81 179C80.4477 179 80 178.552 80 178C80 177.448 80.4477 177 81 177C81.5523 177 82 177.448 82 178Z" fill="#C4C4C4" fill-opacity="0.8"/>
<path d="M98 178C98 178.552 97.5523 179 97 179C96.4477 179 96 178.552 96 178C96 177.448 96.4477 177 97 177C97.5523 177 98 177.448 98 178Z" fill="#C4C4C4" fill-opacity="0.8"/>
<path d="M114 178C114 178.552 113.552 179 113 179C112.448 179 112 178.552 112 178C112 177.448 112.448 177 113 177C113.552 177 114 177.448 114 178Z" fill="#C4C4C4" fill-opacity="0.8"/>
<path d="M130 178C130 178.552 129.552 179 129 179C128.448 179 128 178.552 128 178C128 177.448 128.448 177 129 177C129.552 177 130 177.448 130 178Z" fill="#C4C4C4" fill-opacity="0.8"/>
<path d="M146 178C146 178.552 145.552 179 145 179C144.448 179 144 178.552 144 178C144 177.448 144.448 177 145 177C145.552 177 146 177.448 146 178Z" fill="#C4C4C4" fill-opacity="0.8"/>
<path d="M82 194C82 194.552 81.5523 195 81 195C80.4477 195 80 194.552 80 194C80 193.448 80.4477 193 81 193C81.5523 193 82 193.448 82 194Z" fill="#C4C4C4" fill-opacity="0.8"/>
<path d="M98 194C98 194.552 97.5523 195 97 195C96.4477 195 96 194.552 96 194C96 193.448 96.4477 193 97 193C97.5523 193 98 193.448 98 194Z" fill="#C4C4C4" fill-opacity="0.8"/>
<path d="M114 194C114 194.552 113.552 195 113 195C112.448 195 112 194.552 112 194C112 193.448 112.448 193 113 193C113.552 193 114 193.448 114 194Z" fill="#C4C4C4" fill-opacity="0.8"/>
<path d="M130 194C130 194.552 129.552 195 129 195C128.448 195 128 194.552 128 194C128 193.448 128.448 193 129 193C129.552 193 130 193.448 130 194Z" fill="#C4C4C4" fill-opacity="0.8"/>
<path d="M146 194C146 194.552 145.552 195 145 195C144.448 195 144 194.552 144 194C144 193.448 144.448 193 145 193C145.552 193 146 193.448 146 194Z" fill="#C4C4C4" fill-opacity="0.8"/>
<path d="M82 210C82 210.552 81.5523 211 81 211C80.4477 211 80 210.552 80 210C80 209.448 80.4477 209 81 209C81.5523 209 82 209.448 82 210Z" fill="#C4C4C4" fill-opacity="0.8"/>
<path d="M98 210C98 210.552 97.5523 211 97 211C96.4477 211 96 210.552 96 210C96 209.448 96.4477 209 97 209C97.5523 209 98 209.448 98 210Z" fill="#C4C4C4" fill-opacity="0.8"/>
<path d="M114 210C114 210.552 113.552 211 113 211C112.448 211 112 210.552 112 210C112 209.448 112.448 209 113 209C113.552 209 114 209.448 114 210Z" fill="#C4C4C4" fill-opacity="0.8"/>
<path d="M130 210C130 210.552 129.552 211 129 211C128.448 211 128 210.552 128 210C128 209.448 128.448 209 129 209C129.552 209 130 209.448 130 210Z" fill="#C4C4C4" fill-opacity="0.8"/>
<path d="M146 210C146 210.552 145.552 211 145 211C144.448 211 144 210.552 144 210C144 209.448 144.448 209 145 209C145.552 209 146 209.448 146 210Z" fill="#C4C4C4" fill-opacity="0.8"/>
<path d="M82 226C82 226.552 81.5523 227 81 227C80.4477 227 80 226.552 80 226C80 225.448 80.4477 225 81 225C81.5523 225 82 225.448 82 226Z" fill="#C4C4C4" fill-opacity="0.8"/>
<path d="M98 226C98 226.552 97.5523 227 97 227C96.4477 227 96 226.552 96 226C96 225.448 96.4477 225 97 225C97.5523 225 98 225.448 98 226Z" fill="#C4C4C4" fill-opacity="0.8"/>
<path d="M114 226C114 226.552 113.552 227 113 227C112.448 227 112 226.552 112 226C112 225.448 112.448 225 113 225C113.552 225 114 225.448 114 226Z" fill="#C4C4C4" fill-opacity="0.8"/>
<path d="M130 226C130 226.552 129.552 227 129 227C128.448 227 128 226.552 128 226C128 225.448 128.448 225 129 225C129.552 225 130 225.448 130 226Z" fill="#C4C4C4" fill-opacity="0.8"/>
<path d="M146 226C146 226.552 145.552 227 145 227C144.448 227 144 226.552 144 226C144 225.448 144.448 225 145 225C145.552 225 146 225.448 146 226Z" fill="#C4C4C4" fill-opacity="0.8"/>
<path d="M322 81C322 81.5523 321.552 82 321 82C320.448 82 320 81.5523 320 81C320 80.4477 320.448 80 321 80C321.552 80 322 80.4477 322 81Z" fill="#C4C4C4" fill-opacity="0.8"/>
<path d="M338 81C338 81.5523 337.552 82 337 82C336.448 82 336 81.5523 336 81C336 80.4477 336.448 80 337 80C337.552 80 338 80.4477 338 81Z" fill="#C4C4C4" fill-opacity="0.8"/>
<path d="M354 81C354 81.5523 353.552 82 353 82C352.448 82 352 81.5523 352 81C352 80.4477 352.448 80 353 80C353.552 80 354 80.4477 354 81Z" fill="#C4C4C4" fill-opacity="0.8"/>
<path d="M370 81C370 81.5523 369.552 82 369 82C368.448 82 368 81.5523 368 81C368 80.4477 368.448 80 369 80C369.552 80 370 80.4477 370 81Z" fill="#C4C4C4" fill-opacity="0.8"/>
<path d="M386 81C386 81.5523 385.552 82 385 82C384.448 82 384 81.5523 384 81C384 80.4477 384.448 80 385 80C385.552 80 386 80.4477 386 81Z" fill="#C4C4C4" fill-opacity="0.8"/>
<path d="M322 97C322 97.5523 321.552 98 321 98C320.448 98 320 97.5523 320 97C320 96.4477 320.448 96 321 96C321.552 96 322 96.4477 322 97Z" fill="#C4C4C4" fill-opacity="0.8"/>
<path d="M338 97C338 97.5523 337.552 98 337 98C336.448 98 336 97.5523 336 97C336 96.4477 336.448 96 337 96C337.552 96 338 96.4477 338 97Z" fill="#C4C4C4" fill-opacity="0.8"/>
<path d="M354 97C354 97.5523 353.552 98 353 98C352.448 98 352 97.5523 352 97C352 96.4477 352.448 96 353 96C353.552 96 354 96.4477 354 97Z" fill="#C4C4C4" fill-opacity="0.8"/>
<path d="M370 97C370 97.5523 369.552 98 369 98C368.448 98 368 97.5523 368 97C368 96.4477 368.448 96 369 96C369.552 96 370 96.4477 370 97Z" fill="#C4C4C4" fill-opacity="0.8"/>
<path d="M386 97C386 97.5523 385.552 98 385 98C384.448 98 384 97.5523 384 97C384 96.4477 384.448 96 385 96C385.552 96 386 96.4477 386 97Z" fill="#C4C4C4" fill-opacity="0.8"/>
<path d="M322 113C322 113.552 321.552 114 321 114C320.448 114 320 113.552 320 113C320 112.448 320.448 112 321 112C321.552 112 322 112.448 322 113Z" fill="#C4C4C4" fill-opacity="0.8"/>
<path d="M338 113C338 113.552 337.552 114 337 114C336.448 114 336 113.552 336 113C336 112.448 336.448 112 337 112C337.552 112 338 112.448 338 113Z" fill="#C4C4C4" fill-opacity="0.8"/>
<path d="M354 113C354 113.552 353.552 114 353 114C352.448 114 352 113.552 352 113C352 112.448 352.448 112 353 112C353.552 112 354 112.448 354 113Z" fill="#C4C4C4" fill-opacity="0.8"/>
<path d="M370 113C370 113.552 369.552 114 369 114C368.448 114 368 113.552 368 113C368 112.448 368.448 112 369 112C369.552 112 370 112.448 370 113Z" fill="#C4C4C4" fill-opacity="0.8"/>
<path d="M386 113C386 113.552 385.552 114 385 114C384.448 114 384 113.552 384 113C384 112.448 384.448 112 385 112C385.552 112 386 112.448 386 113Z" fill="#C4C4C4" fill-opacity="0.8"/>
<path d="M322 129C322 129.552 321.552 130 321 130C320.448 130 320 129.552 320 129C320 128.448 320.448 128 321 128C321.552 128 322 128.448 322 129Z" fill="#C4C4C4" fill-opacity="0.8"/>
<path d="M338 129C338 129.552 337.552 130 337 130C336.448 130 336 129.552 336 129C336 128.448 336.448 128 337 128C337.552 128 338 128.448 338 129Z" fill="#C4C4C4" fill-opacity="0.8"/>
<path d="M354 129C354 129.552 353.552 130 353 130C352.448 130 352 129.552 352 129C352 128.448 352.448 128 353 128C353.552 128 354 128.448 354 129Z" fill="#C4C4C4" fill-opacity="0.8"/>
<path d="M370 129C370 129.552 369.552 130 369 130C368.448 130 368 129.552 368 129C368 128.448 368.448 128 369 128C369.552 128 370 128.448 370 129Z" fill="#C4C4C4" fill-opacity="0.8"/>
<path d="M386 129C386 129.552 385.552 130 385 130C384.448 130 384 129.552 384 129C384 128.448 384.448 128 385 128C385.552 128 386 128.448 386 129Z" fill="#C4C4C4" fill-opacity="0.8"/>
<path d="M322 145C322 145.552 321.552 146 321 146C320.448 146 320 145.552 320 145C320 144.448 320.448 144 321 144C321.552 144 322 144.448 322 145Z" fill="#C4C4C4" fill-opacity="0.8"/>
<path d="M338 145C338 145.552 337.552 146 337 146C336.448 146 336 145.552 336 145C336 144.448 336.448 144 337 144C337.552 144 338 144.448 338 145Z" fill="#C4C4C4" fill-opacity="0.8"/>
<path d="M354 145C354 145.552 353.552 146 353 146C352.448 146 352 145.552 352 145C352 144.448 352.448 144 353 144C353.552 144 354 144.448 354 145Z" fill="#C4C4C4" fill-opacity="0.8"/>
<path d="M370 145C370 145.552 369.552 146 369 146C368.448 146 368 145.552 368 145C368 144.448 368.448 144 369 144C369.552 144 370 144.448 370 145Z" fill="#C4C4C4" fill-opacity="0.8"/>
<path d="M386 145C386 145.552 385.552 146 385 146C384.448 146 384 145.552 384 145C384 144.448 384.448 144 385 144C385.552 144 386 144.448 386 145Z" fill="#C4C4C4" fill-opacity="0.8"/>
<path d="M402 81C402 81.5523 401.552 82 401 82C400.448 82 400 81.5523 400 81C400 80.4477 400.448 80 401 80C401.552 80 402 80.4477 402 81Z" fill="#C4C4C4" fill-opacity="0.8"/>
<path d="M418 81C418 81.5523 417.552 82 417 82C416.448 82 416 81.5523 416 81C416 80.4477 416.448 80 417 80C417.552 80 418 80.4477 418 81Z" fill="#C4C4C4" fill-opacity="0.8"/>
<path d="M434 81C434 81.5523 433.552 82 433 82C432.448 82 432 81.5523 432 81C432 80.4477 432.448 80 433 80C433.552 80 434 80.4477 434 81Z" fill="#C4C4C4" fill-opacity="0.8"/>
<path d="M450 81C450 81.5523 449.552 82 449 82C448.448 82 448 81.5523 448 81C448 80.4477 448.448 80 449 80C449.552 80 450 80.4477 450 81Z" fill="#C4C4C4" fill-opacity="0.8"/>
<path d="M466 81C466 81.5523 465.552 82 465 82C464.448 82 464 81.5523 464 81C464 80.4477 464.448 80 465 80C465.552 80 466 80.4477 466 81Z" fill="#C4C4C4" fill-opacity="0.8"/>
<path d="M402 97C402 97.5523 401.552 98 401 98C400.448 98 400 97.5523 400 97C400 96.4477 400.448 96 401 96C401.552 96 402 96.4477 402 97Z" fill="#C4C4C4" fill-opacity="0.8"/>
<path d="M418 97C418 97.5523 417.552 98 417 98C416.448 98 416 97.5523 416 97C416 96.4477 416.448 96 417 96C417.552 96 418 96.4477 418 97Z" fill="#C4C4C4" fill-opacity="0.8"/>
<path d="M434 97C434 97.5523 433.552 98 433 98C432.448 98 432 97.5523 432 97C432 96.4477 432.448 96 433 96C433.552 96 434 96.4477 434 97Z" fill="#C4C4C4" fill-opacity="0.8"/>
<path d="M450 97C450 97.5523 449.552 98 449 98C448.448 98 448 97.5523 448 97C448 96.4477 448.448 96 449 96C449.552 96 450 96.4477 450 97Z" fill="#C4C4C4" fill-opacity="0.8"/>
<path d="M466 97C466 97.5523 465.552 98 465 98C464.448 98 464 97.5523 464 97C464 96.4477 464.448 96 465 96C465.552 96 466 96.4477 466 97Z" fill="#C4C4C4" fill-opacity="0.8"/>
<path d="M402 113C402 113.552 401.552 114 401 114C400.448 114 400 113.552 400 113C400 112.448 400.448 112 401 112C401.552 112 402 112.448 402 113Z" fill="#C4C4C4" fill-opacity="0.8"/>
<path d="M418 113C418 113.552 417.552 114 417 114C416.448 114 416 113.552 416 113C416 112.448 416.448 112 417 112C417.552 112 418 112.448 418 113Z" fill="#C4C4C4" fill-opacity="0.8"/>
<path d="M434 113C434 113.552 433.552 114 433 114C432.448 114 432 113.552 432 113C432 112.448 432.448 112 433 112C433.552 112 434 112.448 434 113Z" fill="#C4C4C4" fill-opacity="0.8"/>
<path d="M450 113C450 113.552 449.552 114 449 114C448.448 114 448 113.552 448 113C448 112.448 448.448 112 449 112C449.552 112 450 112.448 450 113Z" fill="#C4C4C4" fill-opacity="0.8"/>
<path d="M466 113C466 113.552 465.552 114 465 114C464.448 114 464 113.552 464 113C464 112.448 464.448 112 465 112C465.552 112 466 112.448 466 113Z" fill="#C4C4C4" fill-opacity="0.8"/>
<path d="M402 129C402 129.552 401.552 130 401 130C400.448 130 400 129.552 400 129C400 128.448 400.448 128 401 128C401.552 128 402 128.448 402 129Z" fill="#C4C4C4" fill-opacity="0.8"/>
<path d="M418 129C418 129.552 417.552 130 417 130C416.448 130 416 129.552 416 129C416 128.448 416.448 128 417 128C417.552 128 418 128.448 418 129Z" fill="#C4C4C4" fill-opacity="0.8"/>
<path d="M434 129C434 129.552 433.552 130 433 130C432.448 130 432 129.552 432 129C432 128.448 432.448 128 433 128C433.552 128 434 128.448 434 129Z" fill="#C4C4C4" fill-opacity="0.8"/>
<path d="M450 129C450 129.552 449.552 130 449 130C448.448 130 448 129.552 448 129C448 128.448 448.448 128 449 128C449.552 128 450 128.448 450 129Z" fill="#C4C4C4" fill-opacity="0.8"/>
<path d="M466 129C466 129.552 465.552 130 465 130C464.448 130 464 129.552 464 129C464 128.448 464.448 128 465 128C465.552 128 466 128.448 466 129Z" fill="#C4C4C4" fill-opacity="0.8"/>
<path d="M402 145C402 145.552 401.552 146 401 146C400.448 146 400 145.552 400 145C400 144.448 400.448 144 401 144C401.552 144 402 144.448 402 145Z" fill="#C4C4C4" fill-opacity="0.8"/>
<path d="M418 145C418 145.552 417.552 146 417 146C416.448 146 416 145.552 416 145C416 144.448 416.448 144 417 144C417.552 144 418 144.448 418 145Z" fill="#C4C4C4" fill-opacity="0.8"/>
<path d="M434 145C434 145.552 433.552 146 433 146C432.448 146 432 145.552 432 145C432 144.448 432.448 144 433 144C433.552 144 434 144.448 434 145Z" fill="#C4C4C4" fill-opacity="0.8"/>
<path d="M450 145C450 145.552 449.552 146 449 146C448.448 146 448 145.552 448 145C448 144.448 448.448 144 449 144C449.552 144 450 144.448 450 145Z" fill="#C4C4C4" fill-opacity="0.8"/>
<path d="M466 145C466 145.552 465.552 146 465 146C464.448 146 464 145.552 464 145C464 144.448 464.448 144 465 144C465.552 144 466 144.448 466 145Z" fill="#C4C4C4" fill-opacity="0.8"/>
<path d="M482 81C482 81.5523 481.552 82 481 82C480.448 82 480 81.5523 480 81C480 80.4477 480.448 80 481 80C481.552 80 482 80.4477 482 81Z" fill="#C4C4C4" fill-opacity="0.8"/>
<path d="M498 81C498 81.5523 497.552 82 497 82C496.448 82 496 81.5523 496 81C496 80.4477 496.448 80 497 80C497.552 80 498 80.4477 498 81Z" fill="#C4C4C4" fill-opacity="0.8"/>
<path d="M514 81C514 81.5523 513.552 82 513 82C512.448 82 512 81.5523 512 81C512 80.4477 512.448 80 513 80C513.552 80 514 80.4477 514 81Z" fill="#C4C4C4" fill-opacity="0.8"/>
<path d="M530 81C530 81.5523 529.552 82 529 82C528.448 82 528 81.5523 528 81C528 80.4477 528.448 80 529 80C529.552 80 530 80.4477 530 81Z" fill="#C4C4C4" fill-opacity="0.8"/>
<path d="M546 81C546 81.5523 545.552 82 545 82C544.448 82 544 81.5523 544 81C544 80.4477 544.448 80 545 80C545.552 80 546 80.4477 546 81Z" fill="#C4C4C4" fill-opacity="0.8"/>
<path d="M482 97C482 97.5523 481.552 98 481 98C480.448 98 480 97.5523 480 97C480 96.4477 480.448 96 481 96C481.552 96 482 96.4477 482 97Z" fill="#C4C4C4" fill-opacity="0.8"/>
<path d="M498 97C498 97.5523 497.552 98 497 98C496.448 98 496 97.5523 496 97C496 96.4477 496.448 96 497 96C497.552 96 498 96.4477 498 97Z" fill="#C4C4C4" fill-opacity="0.8"/>
<path d="M514 97C514 97.5523 513.552 98 513 98C512.448 98 512 97.5523 512 97C512 96.4477 512.448 96 513 96C513.552 96 514 96.4477 514 97Z" fill="#C4C4C4" fill-opacity="0.8"/>
<path d="M530 97C530 97.5523 529.552 98 529 98C528.448 98 528 97.5523 528 97C528 96.4477 528.448 96 529 96C529.552 96 530 96.4477 530 97Z" fill="#C4C4C4" fill-opacity="0.8"/>
<path d="M546 97C546 97.5523 545.552 98 545 98C544.448 98 544 97.5523 544 97C544 96.4477 544.448 96 545 96C545.552 96 546 96.4477 546 97Z" fill="#C4C4C4" fill-opacity="0.8"/>
<path d="M482 113C482 113.552 481.552 114 481 114C480.448 114 480 113.552 480 113C480 112.448 480.448 112 481 112C481.552 112 482 112.448 482 113Z" fill="#C4C4C4" fill-opacity="0.8"/>
<path d="M498 113C498 113.552 497.552 114 497 114C496.448 114 496 113.552 496 113C496 112.448 496.448 112 497 112C497.552 112 498 112.448 498 113Z" fill="#C4C4C4" fill-opacity="0.8"/>
<path d="M514 113C514 113.552 513.552 114 513 114C512.448 114 512 113.552 512 113C512 112.448 512.448 112 513 112C513.552 112 514 112.448 514 113Z" fill="#C4C4C4" fill-opacity="0.8"/>
<path d="M530 113C530 113.552 529.552 114 529 114C528.448 114 528 113.552 528 113C528 112.448 528.448 112 529 112C529.552 112 530 112.448 530 113Z" fill="#C4C4C4" fill-opacity="0.8"/>
<path d="M546 113C546 113.552 545.552 114 545 114C544.448 114 544 113.552 544 113C544 112.448 544.448 112 545 112C545.552 112 546 112.448 546 113Z" fill="#C4C4C4" fill-opacity="0.8"/>
<path d="M482 129C482 129.552 481.552 130 481 130C480.448 130 480 129.552 480 129C480 128.448 480.448 128 481 128C481.552 128 482 128.448 482 129Z" fill="#C4C4C4" fill-opacity="0.8"/>
<path d="M498 129C498 129.552 497.552 130 497 130C496.448 130 496 129.552 496 129C496 128.448 496.448 128 497 128C497.552 128 498 128.448 498 129Z" fill="#C4C4C4" fill-opacity="0.8"/>
<path d="M514 129C514 129.552 513.552 130 513 130C512.448 130 512 129.552 512 129C512 128.448 512.448 128 513 128C513.552 128 514 128.448 514 129Z" fill="#C4C4C4" fill-opacity="0.8"/>
<path d="M530 129C530 129.552 529.552 130 529 130C528.448 130 528 129.552 528 129C528 128.448 528.448 128 529 128C529.552 128 530 128.448 530 129Z" fill="#C4C4C4" fill-opacity="0.8"/>
<path d="M546 129C546 129.552 545.552 130 545 130C544.448 130 544 129.552 544 129C544 128.448 544.448 128 545 128C545.552 128 546 128.448 546 129Z" fill="#C4C4C4" fill-opacity="0.8"/>
<path d="M482 145C482 145.552 481.552 146 481 146C480.448 146 480 145.552 480 145C480 144.448 480.448 144 481 144C481.552 144 482 144.448 482 145Z" fill="#C4C4C4" fill-opacity="0.8"/>
<path d="M498 145C498 145.552 497.552 146 497 146C496.448 146 496 145.552 496 145C496 144.448 496.448 144 497 144C497.552 144 498 144.448 498 145Z" fill="#C4C4C4" fill-opacity="0.8"/>
<path d="M514 145C514 145.552 513.552 146 513 146C512.448 146 512 145.552 512 145C512 144.448 512.448 144 513 144C513.552 144 514 144.448 514 145Z" fill="#C4C4C4" fill-opacity="0.8"/>
<path d="M530 145C530 145.552 529.552 146 529 146C528.448 146 528 145.552 528 145C528 144.448 528.448 144 529 144C529.552 144 530 144.448 530 145Z" fill="#C4C4C4" fill-opacity="0.8"/>
<path d="M546 145C546 145.552 545.552 146 545 146C544.448 146 544 145.552 544 145C544 144.448 544.448 144 545 144C545.552 144 546 144.448 546 145Z" fill="#C4C4C4" fill-opacity="0.8"/>
<path d="M162 81C162 81.5523 161.552 82 161 82C160.448 82 160 81.5523 160 81C160 80.4477 160.448 80 161 80C161.552 80 162 80.4477 162 81Z" fill="#C4C4C4" fill-opacity="0.8"/>
<path d="M178 81C178 81.5523 177.552 82 177 82C176.448 82 176 81.5523 176 81C176 80.4477 176.448 80 177 80C177.552 80 178 80.4477 178 81Z" fill="#C4C4C4" fill-opacity="0.8"/>
<path d="M194 81C194 81.5523 193.552 82 193 82C192.448 82 192 81.5523 192 81C192 80.4477 192.448 80 193 80C193.552 80 194 80.4477 194 81Z" fill="#C4C4C4" fill-opacity="0.8"/>
<path d="M210 81C210 81.5523 209.552 82 209 82C208.448 82 208 81.5523 208 81C208 80.4477 208.448 80 209 80C209.552 80 210 80.4477 210 81Z" fill="#C4C4C4" fill-opacity="0.8"/>
<path d="M226 81C226 81.5523 225.552 82 225 82C224.448 82 224 81.5523 224 81C224 80.4477 224.448 80 225 80C225.552 80 226 80.4477 226 81Z" fill="#C4C4C4" fill-opacity="0.8"/>
<path d="M162 97C162 97.5523 161.552 98 161 98C160.448 98 160 97.5523 160 97C160 96.4477 160.448 96 161 96C161.552 96 162 96.4477 162 97Z" fill="#C4C4C4" fill-opacity="0.8"/>
<path d="M178 97C178 97.5523 177.552 98 177 98C176.448 98 176 97.5523 176 97C176 96.4477 176.448 96 177 96C177.552 96 178 96.4477 178 97Z" fill="#C4C4C4" fill-opacity="0.8"/>
<path d="M194 97C194 97.5523 193.552 98 193 98C192.448 98 192 97.5523 192 97C192 96.4477 192.448 96 193 96C193.552 96 194 96.4477 194 97Z" fill="#C4C4C4" fill-opacity="0.8"/>
<path d="M210 97C210 97.5523 209.552 98 209 98C208.448 98 208 97.5523 208 97C208 96.4477 208.448 96 209 96C209.552 96 210 96.4477 210 97Z" fill="#C4C4C4" fill-opacity="0.8"/>
<path d="M226 97C226 97.5523 225.552 98 225 98C224.448 98 224 97.5523 224 97C224 96.4477 224.448 96 225 96C225.552 96 226 96.4477 226 97Z" fill="#C4C4C4" fill-opacity="0.8"/>
<path d="M162 113C162 113.552 161.552 114 161 114C160.448 114 160 113.552 160 113C160 112.448 160.448 112 161 112C161.552 112 162 112.448 162 113Z" fill="#C4C4C4" fill-opacity="0.8"/>
<path d="M178 113C178 113.552 177.552 114 177 114C176.448 114 176 113.552 176 113C176 112.448 176.448 112 177 112C177.552 112 178 112.448 178 113Z" fill="#C4C4C4" fill-opacity="0.8"/>
<path d="M194 113C194 113.552 193.552 114 193 114C192.448 114 192 113.552 192 113C192 112.448 192.448 112 193 112C193.552 112 194 112.448 194 113Z" fill="#C4C4C4" fill-opacity="0.8"/>
<path d="M210 113C210 113.552 209.552 114 209 114C208.448 114 208 113.552 208 113C208 112.448 208.448 112 209 112C209.552 112 210 112.448 210 113Z" fill="#C4C4C4" fill-opacity="0.8"/>
<path d="M226 113C226 113.552 225.552 114 225 114C224.448 114 224 113.552 224 113C224 112.448 224.448 112 225 112C225.552 112 226 112.448 226 113Z" fill="#C4C4C4" fill-opacity="0.8"/>
<path d="M162 129C162 129.552 161.552 130 161 130C160.448 130 160 129.552 160 129C160 128.448 160.448 128 161 128C161.552 128 162 128.448 162 129Z" fill="#C4C4C4" fill-opacity="0.8"/>
<path d="M178 129C178 129.552 177.552 130 177 130C176.448 130 176 129.552 176 129C176 128.448 176.448 128 177 128C177.552 128 178 128.448 178 129Z" fill="#C4C4C4" fill-opacity="0.8"/>
<path d="M194 129C194 129.552 193.552 130 193 130C192.448 130 192 129.552 192 129C192 128.448 192.448 128 193 128C193.552 128 194 128.448 194 129Z" fill="#C4C4C4" fill-opacity="0.8"/>
<path d="M210 129C210 129.552 209.552 130 209 130C208.448 130 208 129.552 208 129C208 128.448 208.448 128 209 128C209.552 128 210 128.448 210 129Z" fill="#C4C4C4" fill-opacity="0.8"/>
<path d="M226 129C226 129.552 225.552 130 225 130C224.448 130 224 129.552 224 129C224 128.448 224.448 128 225 128C225.552 128 226 128.448 226 129Z" fill="#C4C4C4" fill-opacity="0.8"/>
<path d="M162 145C162 145.552 161.552 146 161 146C160.448 146 160 145.552 160 145C160 144.448 160.448 144 161 144C161.552 144 162 144.448 162 145Z" fill="#C4C4C4" fill-opacity="0.8"/>
<path d="M178 145C178 145.552 177.552 146 177 146C176.448 146 176 145.552 176 145C176 144.448 176.448 144 177 144C177.552 144 178 144.448 178 145Z" fill="#C4C4C4" fill-opacity="0.8"/>
<path d="M194 145C194 145.552 193.552 146 193 146C192.448 146 192 145.552 192 145C192 144.448 192.448 144 193 144C193.552 144 194 144.448 194 145Z" fill="#C4C4C4" fill-opacity="0.8"/>
<path d="M210 145C210 145.552 209.552 146 209 146C208.448 146 208 145.552 208 145C208 144.448 208.448 144 209 144C209.552 144 210 144.448 210 145Z" fill="#C4C4C4" fill-opacity="0.8"/>
<path d="M226 145C226 145.552 225.552 146 225 146C224.448 146 224 145.552 224 145C224 144.448 224.448 144 225 144C225.552 144 226 144.448 226 145Z" fill="#C4C4C4" fill-opacity="0.8"/>
<path d="M242 81C242 81.5523 241.552 82 241 82C240.448 82 240 81.5523 240 81C240 80.4477 240.448 80 241 80C241.552 80 242 80.4477 242 81Z" fill="#C4C4C4" fill-opacity="0.8"/>
<path d="M258 81C258 81.5523 257.552 82 257 82C256.448 82 256 81.5523 256 81C256 80.4477 256.448 80 257 80C257.552 80 258 80.4477 258 81Z" fill="#C4C4C4" fill-opacity="0.8"/>
<path d="M274 81C274 81.5523 273.552 82 273 82C272.448 82 272 81.5523 272 81C272 80.4477 272.448 80 273 80C273.552 80 274 80.4477 274 81Z" fill="#C4C4C4" fill-opacity="0.8"/>
<path d="M290 81C290 81.5523 289.552 82 289 82C288.448 82 288 81.5523 288 81C288 80.4477 288.448 80 289 80C289.552 80 290 80.4477 290 81Z" fill="#C4C4C4" fill-opacity="0.8"/>
<path d="M306 81C306 81.5523 305.552 82 305 82C304.448 82 304 81.5523 304 81C304 80.4477 304.448 80 305 80C305.552 80 306 80.4477 306 81Z" fill="#C4C4C4" fill-opacity="0.8"/>
<path d="M242 97C242 97.5523 241.552 98 241 98C240.448 98 240 97.5523 240 97C240 96.4477 240.448 96 241 96C241.552 96 242 96.4477 242 97Z" fill="#C4C4C4" fill-opacity="0.8"/>
<path d="M258 97C258 97.5523 257.552 98 257 98C256.448 98 256 97.5523 256 97C256 96.4477 256.448 96 257 96C257.552 96 258 96.4477 258 97Z" fill="#C4C4C4" fill-opacity="0.8"/>
<path d="M274 97C274 97.5523 273.552 98 273 98C272.448 98 272 97.5523 272 97C272 96.4477 272.448 96 273 96C273.552 96 274 96.4477 274 97Z" fill="#C4C4C4" fill-opacity="0.8"/>
<path d="M290 97C290 97.5523 289.552 98 289 98C288.448 98 288 97.5523 288 97C288 96.4477 288.448 96 289 96C289.552 96 290 96.4477 290 97Z" fill="#C4C4C4" fill-opacity="0.8"/>
<path d="M306 97C306 97.5523 305.552 98 305 98C304.448 98 304 97.5523 304 97C304 96.4477 304.448 96 305 96C305.552 96 306 96.4477 306 97Z" fill="#C4C4C4" fill-opacity="0.8"/>
<path d="M242 113C242 113.552 241.552 114 241 114C240.448 114 240 113.552 240 113C240 112.448 240.448 112 241 112C241.552 112 242 112.448 242 113Z" fill="#C4C4C4" fill-opacity="0.8"/>
<path d="M258 113C258 113.552 257.552 114 257 114C256.448 114 256 113.552 256 113C256 112.448 256.448 112 257 112C257.552 112 258 112.448 258 113Z" fill="#C4C4C4" fill-opacity="0.8"/>
<path d="M274 113C274 113.552 273.552 114 273 114C272.448 114 272 113.552 272 113C272 112.448 272.448 112 273 112C273.552 112 274 112.448 274 113Z" fill="#C4C4C4" fill-opacity="0.8"/>
<path d="M290 113C290 113.552 289.552 114 289 114C288.448 114 288 113.552 288 113C288 112.448 288.448 112 289 112C289.552 112 290 112.448 290 113Z" fill="#C4C4C4" fill-opacity="0.8"/>
<path d="M306 113C306 113.552 305.552 114 305 114C304.448 114 304 113.552 304 113C304 112.448 304.448 112 305 112C305.552 112 306 112.448 306 113Z" fill="#C4C4C4" fill-opacity="0.8"/>
<path d="M242 129C242 129.552 241.552 130 241 130C240.448 130 240 129.552 240 129C240 128.448 240.448 128 241 128C241.552 128 242 128.448 242 129Z" fill="#C4C4C4" fill-opacity="0.8"/>
<path d="M258 129C258 129.552 257.552 130 257 130C256.448 130 256 129.552 256 129C256 128.448 256.448 128 257 128C257.552 128 258 128.448 258 129Z" fill="#C4C4C4" fill-opacity="0.8"/>
<path d="M274 129C274 129.552 273.552 130 273 130C272.448 130 272 129.552 272 129C272 128.448 272.448 128 273 128C273.552 128 274 128.448 274 129Z" fill="#C4C4C4" fill-opacity="0.8"/>
<path d="M290 129C290 129.552 289.552 130 289 130C288.448 130 288 129.552 288 129C288 128.448 288.448 128 289 128C289.552 128 290 128.448 290 129Z" fill="#C4C4C4" fill-opacity="0.8"/>
<path d="M306 129C306 129.552 305.552 130 305 130C304.448 130 304 129.552 304 129C304 128.448 304.448 128 305 128C305.552 128 306 128.448 306 129Z" fill="#C4C4C4" fill-opacity="0.8"/>
<path d="M242 145C242 145.552 241.552 146 241 146C240.448 146 240 145.552 240 145C240 144.448 240.448 144 241 144C241.552 144 242 144.448 242 145Z" fill="#C4C4C4" fill-opacity="0.8"/>
<path d="M258 145C258 145.552 257.552 146 257 146C256.448 146 256 145.552 256 145C256 144.448 256.448 144 257 144C257.552 144 258 144.448 258 145Z" fill="#C4C4C4" fill-opacity="0.8"/>
<path d="M274 145C274 145.552 273.552 146 273 146C272.448 146 272 145.552 272 145C272 144.448 272.448 144 273 144C273.552 144 274 144.448 274 145Z" fill="#C4C4C4" fill-opacity="0.8"/>
<path d="M290 145C290 145.552 289.552 146 289 146C288.448 146 288 145.552 288 145C288 144.448 288.448 144 289 144C289.552 144 290 144.448 290 145Z" fill="#C4C4C4" fill-opacity="0.8"/>
<path d="M306 145C306 145.552 305.552 146 305 146C304.448 146 304 145.552 304 145C304 144.448 304.448 144 305 144C305.552 144 306 144.448 306 145Z" fill="#C4C4C4" fill-opacity="0.8"/>
<path d="M2 81C2 81.5523 1.55228 82 1 82C0.447715 82 0 81.5523 0 81C0 80.4477 0.447715 80 1 80C1.55228 80 2 80.4477 2 81Z" fill="#C4C4C4" fill-opacity="0.8"/>
<path d="M18 81C18 81.5523 17.5523 82 17 82C16.4477 82 16 81.5523 16 81C16 80.4477 16.4477 80 17 80C17.5523 80 18 80.4477 18 81Z" fill="#C4C4C4" fill-opacity="0.8"/>
<path d="M34 81C34 81.5523 33.5523 82 33 82C32.4477 82 32 81.5523 32 81C32 80.4477 32.4477 80 33 80C33.5523 80 34 80.4477 34 81Z" fill="#C4C4C4" fill-opacity="0.8"/>
<path d="M50 81C50 81.5523 49.5523 82 49 82C48.4477 82 48 81.5523 48 81C48 80.4477 48.4477 80 49 80C49.5523 80 50 80.4477 50 81Z" fill="#C4C4C4" fill-opacity="0.8"/>
<path d="M66 81C66 81.5523 65.5523 82 65 82C64.4477 82 64 81.5523 64 81C64 80.4477 64.4477 80 65 80C65.5523 80 66 80.4477 66 81Z" fill="#C4C4C4" fill-opacity="0.8"/>
<path d="M2 97C2 97.5523 1.55228 98 1 98C0.447715 98 0 97.5523 0 97C0 96.4477 0.447715 96 1 96C1.55228 96 2 96.4477 2 97Z" fill="#C4C4C4" fill-opacity="0.8"/>
<path d="M18 97C18 97.5523 17.5523 98 17 98C16.4477 98 16 97.5523 16 97C16 96.4477 16.4477 96 17 96C17.5523 96 18 96.4477 18 97Z" fill="#C4C4C4" fill-opacity="0.8"/>
<path d="M34 97C34 97.5523 33.5523 98 33 98C32.4477 98 32 97.5523 32 97C32 96.4477 32.4477 96 33 96C33.5523 96 34 96.4477 34 97Z" fill="#C4C4C4" fill-opacity="0.8"/>
<path d="M50 97C50 97.5523 49.5523 98 49 98C48.4477 98 48 97.5523 48 97C48 96.4477 48.4477 96 49 96C49.5523 96 50 96.4477 50 97Z" fill="#C4C4C4" fill-opacity="0.8"/>
<path d="M66 97C66 97.5523 65.5523 98 65 98C64.4477 98 64 97.5523 64 97C64 96.4477 64.4477 96 65 96C65.5523 96 66 96.4477 66 97Z" fill="#C4C4C4" fill-opacity="0.8"/>
<path d="M2 113C2 113.552 1.55228 114 1 114C0.447715 114 0 113.552 0 113C0 112.448 0.447715 112 1 112C1.55228 112 2 112.448 2 113Z" fill="#C4C4C4" fill-opacity="0.8"/>
<path d="M18 113C18 113.552 17.5523 114 17 114C16.4477 114 16 113.552 16 113C16 112.448 16.4477 112 17 112C17.5523 112 18 112.448 18 113Z" fill="#C4C4C4" fill-opacity="0.8"/>
<path d="M34 113C34 113.552 33.5523 114 33 114C32.4477 114 32 113.552 32 113C32 112.448 32.4477 112 33 112C33.5523 112 34 112.448 34 113Z" fill="#C4C4C4" fill-opacity="0.8"/>
<path d="M50 113C50 113.552 49.5523 114 49 114C48.4477 114 48 113.552 48 113C48 112.448 48.4477 112 49 112C49.5523 112 50 112.448 50 113Z" fill="#C4C4C4" fill-opacity="0.8"/>
<path d="M66 113C66 113.552 65.5523 114 65 114C64.4477 114 64 113.552 64 113C64 112.448 64.4477 112 65 112C65.5523 112 66 112.448 66 113Z" fill="#C4C4C4" fill-opacity="0.8"/>
<path d="M2 129C2 129.552 1.55228 130 1 130C0.447715 130 0 129.552 0 129C0 128.448 0.447715 128 1 128C1.55228 128 2 128.448 2 129Z" fill="#C4C4C4" fill-opacity="0.8"/>
<path d="M18 129C18 129.552 17.5523 130 17 130C16.4477 130 16 129.552 16 129C16 128.448 16.4477 128 17 128C17.5523 128 18 128.448 18 129Z" fill="#C4C4C4" fill-opacity="0.8"/>
<path d="M34 129C34 129.552 33.5523 130 33 130C32.4477 130 32 129.552 32 129C32 128.448 32.4477 128 33 128C33.5523 128 34 128.448 34 129Z" fill="#C4C4C4" fill-opacity="0.8"/>
<path d="M50 129C50 129.552 49.5523 130 49 130C48.4477 130 48 129.552 48 129C48 128.448 48.4477 128 49 128C49.5523 128 50 128.448 50 129Z" fill="#C4C4C4" fill-opacity="0.8"/>
<path d="M66 129C66 129.552 65.5523 130 65 130C64.4477 130 64 129.552 64 129C64 128.448 64.4477 128 65 128C65.5523 128 66 128.448 66 129Z" fill="#C4C4C4" fill-opacity="0.8"/>
<path d="M2 145C2 145.552 1.55228 146 1 146C0.447715 146 0 145.552 0 145C0 144.448 0.447715 144 1 144C1.55228 144 2 144.448 2 145Z" fill="#C4C4C4" fill-opacity="0.8"/>
<path d="M18 145C18 145.552 17.5523 146 17 146C16.4477 146 16 145.552 16 145C16 144.448 16.4477 144 17 144C17.5523 144 18 144.448 18 145Z" fill="#C4C4C4" fill-opacity="0.8"/>
<path d="M34 145C34 145.552 33.5523 146 33 146C32.4477 146 32 145.552 32 145C32 144.448 32.4477 144 33 144C33.5523 144 34 144.448 34 145Z" fill="#C4C4C4" fill-opacity="0.8"/>
<path d="M50 145C50 145.552 49.5523 146 49 146C48.4477 146 48 145.552 48 145C48 144.448 48.4477 144 49 144C49.5523 144 50 144.448 50 145Z" fill="#C4C4C4" fill-opacity="0.8"/>
<path d="M66 145C66 145.552 65.5523 146 65 146C64.4477 146 64 145.552 64 145C64 144.448 64.4477 144 65 144C65.5523 144 66 144.448 66 145Z" fill="#C4C4C4" fill-opacity="0.8"/>
<path d="M82 81C82 81.5523 81.5523 82 81 82C80.4477 82 80 81.5523 80 81C80 80.4477 80.4477 80 81 80C81.5523 80 82 80.4477 82 81Z" fill="#C4C4C4" fill-opacity="0.8"/>
<path d="M98 81C98 81.5523 97.5523 82 97 82C96.4477 82 96 81.5523 96 81C96 80.4477 96.4477 80 97 80C97.5523 80 98 80.4477 98 81Z" fill="#C4C4C4" fill-opacity="0.8"/>
<path d="M114 81C114 81.5523 113.552 82 113 82C112.448 82 112 81.5523 112 81C112 80.4477 112.448 80 113 80C113.552 80 114 80.4477 114 81Z" fill="#C4C4C4" fill-opacity="0.8"/>
<path d="M130 81C130 81.5523 129.552 82 129 82C128.448 82 128 81.5523 128 81C128 80.4477 128.448 80 129 80C129.552 80 130 80.4477 130 81Z" fill="#C4C4C4" fill-opacity="0.8"/>
<path d="M146 81C146 81.5523 145.552 82 145 82C144.448 82 144 81.5523 144 81C144 80.4477 144.448 80 145 80C145.552 80 146 80.4477 146 81Z" fill="#C4C4C4" fill-opacity="0.8"/>
<path d="M82 97C82 97.5523 81.5523 98 81 98C80.4477 98 80 97.5523 80 97C80 96.4477 80.4477 96 81 96C81.5523 96 82 96.4477 82 97Z" fill="#C4C4C4" fill-opacity="0.8"/>
<path d="M98 97C98 97.5523 97.5523 98 97 98C96.4477 98 96 97.5523 96 97C96 96.4477 96.4477 96 97 96C97.5523 96 98 96.4477 98 97Z" fill="#C4C4C4" fill-opacity="0.8"/>
<path d="M114 97C114 97.5523 113.552 98 113 98C112.448 98 112 97.5523 112 97C112 96.4477 112.448 96 113 96C113.552 96 114 96.4477 114 97Z" fill="#C4C4C4" fill-opacity="0.8"/>
<path d="M130 97C130 97.5523 129.552 98 129 98C128.448 98 128 97.5523 128 97C128 96.4477 128.448 96 129 96C129.552 96 130 96.4477 130 97Z" fill="#C4C4C4" fill-opacity="0.8"/>
<path d="M146 97C146 97.5523 145.552 98 145 98C144.448 98 144 97.5523 144 97C144 96.4477 144.448 96 145 96C145.552 96 146 96.4477 146 97Z" fill="#C4C4C4" fill-opacity="0.8"/>
<path d="M82 113C82 113.552 81.5523 114 81 114C80.4477 114 80 113.552 80 113C80 112.448 80.4477 112 81 112C81.5523 112 82 112.448 82 113Z" fill="#C4C4C4" fill-opacity="0.8"/>
<path d="M98 113C98 113.552 97.5523 114 97 114C96.4477 114 96 113.552 96 113C96 112.448 96.4477 112 97 112C97.5523 112 98 112.448 98 113Z" fill="#C4C4C4" fill-opacity="0.8"/>
<path d="M114 113C114 113.552 113.552 114 113 114C112.448 114 112 113.552 112 113C112 112.448 112.448 112 113 112C113.552 112 114 112.448 114 113Z" fill="#C4C4C4" fill-opacity="0.8"/>
<path d="M130 113C130 113.552 129.552 114 129 114C128.448 114 128 113.552 128 113C128 112.448 128.448 112 129 112C129.552 112 130 112.448 130 113Z" fill="#C4C4C4" fill-opacity="0.8"/>
<path d="M146 113C146 113.552 145.552 114 145 114C144.448 114 144 113.552 144 113C144 112.448 144.448 112 145 112C145.552 112 146 112.448 146 113Z" fill="#C4C4C4" fill-opacity="0.8"/>
<path d="M82 129C82 129.552 81.5523 130 81 130C80.4477 130 80 129.552 80 129C80 128.448 80.4477 128 81 128C81.5523 128 82 128.448 82 129Z" fill="#C4C4C4" fill-opacity="0.8"/>
<path d="M98 129C98 129.552 97.5523 130 97 130C96.4477 130 96 129.552 96 129C96 128.448 96.4477 128 97 128C97.5523 128 98 128.448 98 129Z" fill="#C4C4C4" fill-opacity="0.8"/>
<path d="M114 129C114 129.552 113.552 130 113 130C112.448 130 112 129.552 112 129C112 128.448 112.448 128 113 128C113.552 128 114 128.448 114 129Z" fill="#C4C4C4" fill-opacity="0.8"/>
<path d="M130 129C130 129.552 129.552 130 129 130C128.448 130 128 129.552 128 129C128 128.448 128.448 128 129 128C129.552 128 130 128.448 130 129Z" fill="#C4C4C4" fill-opacity="0.8"/>
<path d="M146 129C146 129.552 145.552 130 145 130C144.448 130 144 129.552 144 129C144 128.448 144.448 128 145 128C145.552 128 146 128.448 146 129Z" fill="#C4C4C4" fill-opacity="0.8"/>
<path d="M82 145C82 145.552 81.5523 146 81 146C80.4477 146 80 145.552 80 145C80 144.448 80.4477 144 81 144C81.5523 144 82 144.448 82 145Z" fill="#C4C4C4" fill-opacity="0.8"/>
<path d="M98 145C98 145.552 97.5523 146 97 146C96.4477 146 96 145.552 96 145C96 144.448 96.4477 144 97 144C97.5523 144 98 144.448 98 145Z" fill="#C4C4C4" fill-opacity="0.8"/>
<path d="M114 145C114 145.552 113.552 146 113 146C112.448 146 112 145.552 112 145C112 144.448 112.448 144 113 144C113.552 144 114 144.448 114 145Z" fill="#C4C4C4" fill-opacity="0.8"/>
<path d="M130 145C130 145.552 129.552 146 129 146C128.448 146 128 145.552 128 145C128 144.448 128.448 144 129 144C129.552 144 130 144.448 130 145Z" fill="#C4C4C4" fill-opacity="0.8"/>
<path d="M146 145C146 145.552 145.552 146 145 146C144.448 146 144 145.552 144 145C144 144.448 144.448 144 145 144C145.552 144 146 144.448 146 145Z" fill="#C4C4C4" fill-opacity="0.8"/>
<path d="M322 1C322 1.55228 321.552 2 321 2C320.448 2 320 1.55228 320 1C320 0.447715 320.448 0 321 0C321.552 0 322 0.447715 322 1Z" fill="#C4C4C4" fill-opacity="0.8"/>
<path d="M338 1C338 1.55228 337.552 2 337 2C336.448 2 336 1.55228 336 1C336 0.447715 336.448 0 337 0C337.552 0 338 0.447715 338 1Z" fill="#C4C4C4" fill-opacity="0.8"/>
<path d="M354 1C354 1.55228 353.552 2 353 2C352.448 2 352 1.55228 352 1C352 0.447715 352.448 0 353 0C353.552 0 354 0.447715 354 1Z" fill="#C4C4C4" fill-opacity="0.8"/>
<path d="M370 1C370 1.55228 369.552 2 369 2C368.448 2 368 1.55228 368 1C368 0.447715 368.448 0 369 0C369.552 0 370 0.447715 370 1Z" fill="#C4C4C4" fill-opacity="0.8"/>
<path d="M386 1C386 1.55228 385.552 2 385 2C384.448 2 384 1.55228 384 1C384 0.447715 384.448 0 385 0C385.552 0 386 0.447715 386 1Z" fill="#C4C4C4" fill-opacity="0.8"/>
<path d="M322 17C322 17.5523 321.552 18 321 18C320.448 18 320 17.5523 320 17C320 16.4477 320.448 16 321 16C321.552 16 322 16.4477 322 17Z" fill="#C4C4C4" fill-opacity="0.8"/>
<path d="M338 17C338 17.5523 337.552 18 337 18C336.448 18 336 17.5523 336 17C336 16.4477 336.448 16 337 16C337.552 16 338 16.4477 338 17Z" fill="#C4C4C4" fill-opacity="0.8"/>
<path d="M354 17C354 17.5523 353.552 18 353 18C352.448 18 352 17.5523 352 17C352 16.4477 352.448 16 353 16C353.552 16 354 16.4477 354 17Z" fill="#C4C4C4" fill-opacity="0.8"/>
<path d="M370 17C370 17.5523 369.552 18 369 18C368.448 18 368 17.5523 368 17C368 16.4477 368.448 16 369 16C369.552 16 370 16.4477 370 17Z" fill="#C4C4C4" fill-opacity="0.8"/>
<path d="M386 17C386 17.5523 385.552 18 385 18C384.448 18 384 17.5523 384 17C384 16.4477 384.448 16 385 16C385.552 16 386 16.4477 386 17Z" fill="#C4C4C4" fill-opacity="0.8"/>
<path d="M322 33C322 33.5523 321.552 34 321 34C320.448 34 320 33.5523 320 33C320 32.4477 320.448 32 321 32C321.552 32 322 32.4477 322 33Z" fill="#C4C4C4" fill-opacity="0.8"/>
<path d="M338 33C338 33.5523 337.552 34 337 34C336.448 34 336 33.5523 336 33C336 32.4477 336.448 32 337 32C337.552 32 338 32.4477 338 33Z" fill="#C4C4C4" fill-opacity="0.8"/>
<path d="M354 33C354 33.5523 353.552 34 353 34C352.448 34 352 33.5523 352 33C352 32.4477 352.448 32 353 32C353.552 32 354 32.4477 354 33Z" fill="#C4C4C4" fill-opacity="0.8"/>
<path d="M370 33C370 33.5523 369.552 34 369 34C368.448 34 368 33.5523 368 33C368 32.4477 368.448 32 369 32C369.552 32 370 32.4477 370 33Z" fill="#C4C4C4" fill-opacity="0.8"/>
<path d="M386 33C386 33.5523 385.552 34 385 34C384.448 34 384 33.5523 384 33C384 32.4477 384.448 32 385 32C385.552 32 386 32.4477 386 33Z" fill="#C4C4C4" fill-opacity="0.8"/>
<path d="M322 49C322 49.5523 321.552 50 321 50C320.448 50 320 49.5523 320 49C320 48.4477 320.448 48 321 48C321.552 48 322 48.4477 322 49Z" fill="#C4C4C4" fill-opacity="0.8"/>
<path d="M338 49C338 49.5523 337.552 50 337 50C336.448 50 336 49.5523 336 49C336 48.4477 336.448 48 337 48C337.552 48 338 48.4477 338 49Z" fill="#C4C4C4" fill-opacity="0.8"/>
<path d="M354 49C354 49.5523 353.552 50 353 50C352.448 50 352 49.5523 352 49C352 48.4477 352.448 48 353 48C353.552 48 354 48.4477 354 49Z" fill="#C4C4C4" fill-opacity="0.8"/>
<path d="M370 49C370 49.5523 369.552 50 369 50C368.448 50 368 49.5523 368 49C368 48.4477 368.448 48 369 48C369.552 48 370 48.4477 370 49Z" fill="#C4C4C4" fill-opacity="0.8"/>
<path d="M386 49C386 49.5523 385.552 50 385 50C384.448 50 384 49.5523 384 49C384 48.4477 384.448 48 385 48C385.552 48 386 48.4477 386 49Z" fill="#C4C4C4" fill-opacity="0.8"/>
<path d="M322 65C322 65.5523 321.552 66 321 66C320.448 66 320 65.5523 320 65C320 64.4477 320.448 64 321 64C321.552 64 322 64.4477 322 65Z" fill="#C4C4C4" fill-opacity="0.8"/>
<path d="M338 65C338 65.5523 337.552 66 337 66C336.448 66 336 65.5523 336 65C336 64.4477 336.448 64 337 64C337.552 64 338 64.4477 338 65Z" fill="#C4C4C4" fill-opacity="0.8"/>
<path d="M354 65C354 65.5523 353.552 66 353 66C352.448 66 352 65.5523 352 65C352 64.4477 352.448 64 353 64C353.552 64 354 64.4477 354 65Z" fill="#C4C4C4" fill-opacity="0.8"/>
<path d="M370 65C370 65.5523 369.552 66 369 66C368.448 66 368 65.5523 368 65C368 64.4477 368.448 64 369 64C369.552 64 370 64.4477 370 65Z" fill="#C4C4C4" fill-opacity="0.8"/>
<path d="M386 65C386 65.5523 385.552 66 385 66C384.448 66 384 65.5523 384 65C384 64.4477 384.448 64 385 64C385.552 64 386 64.4477 386 65Z" fill="#C4C4C4" fill-opacity="0.8"/>
<path d="M402 1C402 1.55228 401.552 2 401 2C400.448 2 400 1.55228 400 1C400 0.447715 400.448 0 401 0C401.552 0 402 0.447715 402 1Z" fill="#C4C4C4" fill-opacity="0.8"/>
<path d="M418 1C418 1.55228 417.552 2 417 2C416.448 2 416 1.55228 416 1C416 0.447715 416.448 0 417 0C417.552 0 418 0.447715 418 1Z" fill="#C4C4C4" fill-opacity="0.8"/>
<path d="M434 1C434 1.55228 433.552 2 433 2C432.448 2 432 1.55228 432 1C432 0.447715 432.448 0 433 0C433.552 0 434 0.447715 434 1Z" fill="#C4C4C4" fill-opacity="0.8"/>
<path d="M450 1C450 1.55228 449.552 2 449 2C448.448 2 448 1.55228 448 1C448 0.447715 448.448 0 449 0C449.552 0 450 0.447715 450 1Z" fill="#C4C4C4" fill-opacity="0.8"/>
<path d="M466 1C466 1.55228 465.552 2 465 2C464.448 2 464 1.55228 464 1C464 0.447715 464.448 0 465 0C465.552 0 466 0.447715 466 1Z" fill="#C4C4C4" fill-opacity="0.8"/>
<path d="M402 17C402 17.5523 401.552 18 401 18C400.448 18 400 17.5523 400 17C400 16.4477 400.448 16 401 16C401.552 16 402 16.4477 402 17Z" fill="#C4C4C4" fill-opacity="0.8"/>
<path d="M418 17C418 17.5523 417.552 18 417 18C416.448 18 416 17.5523 416 17C416 16.4477 416.448 16 417 16C417.552 16 418 16.4477 418 17Z" fill="#C4C4C4" fill-opacity="0.8"/>
<path d="M434 17C434 17.5523 433.552 18 433 18C432.448 18 432 17.5523 432 17C432 16.4477 432.448 16 433 16C433.552 16 434 16.4477 434 17Z" fill="#C4C4C4" fill-opacity="0.8"/>
<path d="M450 17C450 17.5523 449.552 18 449 18C448.448 18 448 17.5523 448 17C448 16.4477 448.448 16 449 16C449.552 16 450 16.4477 450 17Z" fill="#C4C4C4" fill-opacity="0.8"/>
<path d="M466 17C466 17.5523 465.552 18 465 18C464.448 18 464 17.5523 464 17C464 16.4477 464.448 16 465 16C465.552 16 466 16.4477 466 17Z" fill="#C4C4C4" fill-opacity="0.8"/>
<path d="M402 33C402 33.5523 401.552 34 401 34C400.448 34 400 33.5523 400 33C400 32.4477 400.448 32 401 32C401.552 32 402 32.4477 402 33Z" fill="#C4C4C4" fill-opacity="0.8"/>
<path d="M418 33C418 33.5523 417.552 34 417 34C416.448 34 416 33.5523 416 33C416 32.4477 416.448 32 417 32C417.552 32 418 32.4477 418 33Z" fill="#C4C4C4" fill-opacity="0.8"/>
<path d="M434 33C434 33.5523 433.552 34 433 34C432.448 34 432 33.5523 432 33C432 32.4477 432.448 32 433 32C433.552 32 434 32.4477 434 33Z" fill="#C4C4C4" fill-opacity="0.8"/>
<path d="M450 33C450 33.5523 449.552 34 449 34C448.448 34 448 33.5523 448 33C448 32.4477 448.448 32 449 32C449.552 32 450 32.4477 450 33Z" fill="#C4C4C4" fill-opacity="0.8"/>
<path d="M466 33C466 33.5523 465.552 34 465 34C464.448 34 464 33.5523 464 33C464 32.4477 464.448 32 465 32C465.552 32 466 32.4477 466 33Z" fill="#C4C4C4" fill-opacity="0.8"/>
<path d="M402 49C402 49.5523 401.552 50 401 50C400.448 50 400 49.5523 400 49C400 48.4477 400.448 48 401 48C401.552 48 402 48.4477 402 49Z" fill="#C4C4C4" fill-opacity="0.8"/>
<path d="M418 49C418 49.5523 417.552 50 417 50C416.448 50 416 49.5523 416 49C416 48.4477 416.448 48 417 48C417.552 48 418 48.4477 418 49Z" fill="#C4C4C4" fill-opacity="0.8"/>
<path d="M434 49C434 49.5523 433.552 50 433 50C432.448 50 432 49.5523 432 49C432 48.4477 432.448 48 433 48C433.552 48 434 48.4477 434 49Z" fill="#C4C4C4" fill-opacity="0.8"/>
<path d="M450 49C450 49.5523 449.552 50 449 50C448.448 50 448 49.5523 448 49C448 48.4477 448.448 48 449 48C449.552 48 450 48.4477 450 49Z" fill="#C4C4C4" fill-opacity="0.8"/>
<path d="M466 49C466 49.5523 465.552 50 465 50C464.448 50 464 49.5523 464 49C464 48.4477 464.448 48 465 48C465.552 48 466 48.4477 466 49Z" fill="#C4C4C4" fill-opacity="0.8"/>
<path d="M402 65C402 65.5523 401.552 66 401 66C400.448 66 400 65.5523 400 65C400 64.4477 400.448 64 401 64C401.552 64 402 64.4477 402 65Z" fill="#C4C4C4" fill-opacity="0.8"/>
<path d="M418 65C418 65.5523 417.552 66 417 66C416.448 66 416 65.5523 416 65C416 64.4477 416.448 64 417 64C417.552 64 418 64.4477 418 65Z" fill="#C4C4C4" fill-opacity="0.8"/>
<path d="M434 65C434 65.5523 433.552 66 433 66C432.448 66 432 65.5523 432 65C432 64.4477 432.448 64 433 64C433.552 64 434 64.4477 434 65Z" fill="#C4C4C4" fill-opacity="0.8"/>
<path d="M450 65C450 65.5523 449.552 66 449 66C448.448 66 448 65.5523 448 65C448 64.4477 448.448 64 449 64C449.552 64 450 64.4477 450 65Z" fill="#C4C4C4" fill-opacity="0.8"/>
<path d="M466 65C466 65.5523 465.552 66 465 66C464.448 66 464 65.5523 464 65C464 64.4477 464.448 64 465 64C465.552 64 466 64.4477 466 65Z" fill="#C4C4C4" fill-opacity="0.8"/>
<path d="M482 1C482 1.55228 481.552 2 481 2C480.448 2 480 1.55228 480 1C480 0.447715 480.448 0 481 0C481.552 0 482 0.447715 482 1Z" fill="#C4C4C4" fill-opacity="0.8"/>
<path d="M498 1C498 1.55228 497.552 2 497 2C496.448 2 496 1.55228 496 1C496 0.447715 496.448 0 497 0C497.552 0 498 0.447715 498 1Z" fill="#C4C4C4" fill-opacity="0.8"/>
<path d="M514 1C514 1.55228 513.552 2 513 2C512.448 2 512 1.55228 512 1C512 0.447715 512.448 0 513 0C513.552 0 514 0.447715 514 1Z" fill="#C4C4C4" fill-opacity="0.8"/>
<path d="M530 1C530 1.55228 529.552 2 529 2C528.448 2 528 1.55228 528 1C528 0.447715 528.448 0 529 0C529.552 0 530 0.447715 530 1Z" fill="#C4C4C4" fill-opacity="0.8"/>
<path d="M546 1C546 1.55228 545.552 2 545 2C544.448 2 544 1.55228 544 1C544 0.447715 544.448 0 545 0C545.552 0 546 0.447715 546 1Z" fill="#C4C4C4" fill-opacity="0.8"/>
<path d="M482 17C482 17.5523 481.552 18 481 18C480.448 18 480 17.5523 480 17C480 16.4477 480.448 16 481 16C481.552 16 482 16.4477 482 17Z" fill="#C4C4C4" fill-opacity="0.8"/>
<path d="M498 17C498 17.5523 497.552 18 497 18C496.448 18 496 17.5523 496 17C496 16.4477 496.448 16 497 16C497.552 16 498 16.4477 498 17Z" fill="#C4C4C4" fill-opacity="0.8"/>
<path d="M514 17C514 17.5523 513.552 18 513 18C512.448 18 512 17.5523 512 17C512 16.4477 512.448 16 513 16C513.552 16 514 16.4477 514 17Z" fill="#C4C4C4" fill-opacity="0.8"/>
<path d="M530 17C530 17.5523 529.552 18 529 18C528.448 18 528 17.5523 528 17C528 16.4477 528.448 16 529 16C529.552 16 530 16.4477 530 17Z" fill="#C4C4C4" fill-opacity="0.8"/>
<path d="M546 17C546 17.5523 545.552 18 545 18C544.448 18 544 17.5523 544 17C544 16.4477 544.448 16 545 16C545.552 16 546 16.4477 546 17Z" fill="#C4C4C4" fill-opacity="0.8"/>
<path d="M482 33C482 33.5523 481.552 34 481 34C480.448 34 480 33.5523 480 33C480 32.4477 480.448 32 481 32C481.552 32 482 32.4477 482 33Z" fill="#C4C4C4" fill-opacity="0.8"/>
<path d="M498 33C498 33.5523 497.552 34 497 34C496.448 34 496 33.5523 496 33C496 32.4477 496.448 32 497 32C497.552 32 498 32.4477 498 33Z" fill="#C4C4C4" fill-opacity="0.8"/>
<path d="M514 33C514 33.5523 513.552 34 513 34C512.448 34 512 33.5523 512 33C512 32.4477 512.448 32 513 32C513.552 32 514 32.4477 514 33Z" fill="#C4C4C4" fill-opacity="0.8"/>
<path d="M530 33C530 33.5523 529.552 34 529 34C528.448 34 528 33.5523 528 33C528 32.4477 528.448 32 529 32C529.552 32 530 32.4477 530 33Z" fill="#C4C4C4" fill-opacity="0.8"/>
<path d="M546 33C546 33.5523 545.552 34 545 34C544.448 34 544 33.5523 544 33C544 32.4477 544.448 32 545 32C545.552 32 546 32.4477 546 33Z" fill="#C4C4C4" fill-opacity="0.8"/>
<path d="M482 49C482 49.5523 481.552 50 481 50C480.448 50 480 49.5523 480 49C480 48.4477 480.448 48 481 48C481.552 48 482 48.4477 482 49Z" fill="#C4C4C4" fill-opacity="0.8"/>
<path d="M498 49C498 49.5523 497.552 50 497 50C496.448 50 496 49.5523 496 49C496 48.4477 496.448 48 497 48C497.552 48 498 48.4477 498 49Z" fill="#C4C4C4" fill-opacity="0.8"/>
<path d="M514 49C514 49.5523 513.552 50 513 50C512.448 50 512 49.5523 512 49C512 48.4477 512.448 48 513 48C513.552 48 514 48.4477 514 49Z" fill="#C4C4C4" fill-opacity="0.8"/>
<path d="M530 49C530 49.5523 529.552 50 529 50C528.448 50 528 49.5523 528 49C528 48.4477 528.448 48 529 48C529.552 48 530 48.4477 530 49Z" fill="#C4C4C4" fill-opacity="0.8"/>
<path d="M546 49C546 49.5523 545.552 50 545 50C544.448 50 544 49.5523 544 49C544 48.4477 544.448 48 545 48C545.552 48 546 48.4477 546 49Z" fill="#C4C4C4" fill-opacity="0.8"/>
<path d="M482 65C482 65.5523 481.552 66 481 66C480.448 66 480 65.5523 480 65C480 64.4477 480.448 64 481 64C481.552 64 482 64.4477 482 65Z" fill="#C4C4C4" fill-opacity="0.8"/>
<path d="M498 65C498 65.5523 497.552 66 497 66C496.448 66 496 65.5523 496 65C496 64.4477 496.448 64 497 64C497.552 64 498 64.4477 498 65Z" fill="#C4C4C4" fill-opacity="0.8"/>
<path d="M514 65C514 65.5523 513.552 66 513 66C512.448 66 512 65.5523 512 65C512 64.4477 512.448 64 513 64C513.552 64 514 64.4477 514 65Z" fill="#C4C4C4" fill-opacity="0.8"/>
<path d="M530 65C530 65.5523 529.552 66 529 66C528.448 66 528 65.5523 528 65C528 64.4477 528.448 64 529 64C529.552 64 530 64.4477 530 65Z" fill="#C4C4C4" fill-opacity="0.8"/>
<path d="M546 65C546 65.5523 545.552 66 545 66C544.448 66 544 65.5523 544 65C544 64.4477 544.448 64 545 64C545.552 64 546 64.4477 546 65Z" fill="#C4C4C4" fill-opacity="0.8"/>
<path d="M162 1C162 1.55228 161.552 2 161 2C160.448 2 160 1.55228 160 1C160 0.447715 160.448 0 161 0C161.552 0 162 0.447715 162 1Z" fill="#C4C4C4" fill-opacity="0.8"/>
<path d="M178 1C178 1.55228 177.552 2 177 2C176.448 2 176 1.55228 176 1C176 0.447715 176.448 0 177 0C177.552 0 178 0.447715 178 1Z" fill="#C4C4C4" fill-opacity="0.8"/>
<path d="M194 1C194 1.55228 193.552 2 193 2C192.448 2 192 1.55228 192 1C192 0.447715 192.448 0 193 0C193.552 0 194 0.447715 194 1Z" fill="#C4C4C4" fill-opacity="0.8"/>
<path d="M210 1C210 1.55228 209.552 2 209 2C208.448 2 208 1.55228 208 1C208 0.447715 208.448 0 209 0C209.552 0 210 0.447715 210 1Z" fill="#C4C4C4" fill-opacity="0.8"/>
<path d="M226 1C226 1.55228 225.552 2 225 2C224.448 2 224 1.55228 224 1C224 0.447715 224.448 0 225 0C225.552 0 226 0.447715 226 1Z" fill="#C4C4C4" fill-opacity="0.8"/>
<path d="M162 17C162 17.5523 161.552 18 161 18C160.448 18 160 17.5523 160 17C160 16.4477 160.448 16 161 16C161.552 16 162 16.4477 162 17Z" fill="#C4C4C4" fill-opacity="0.8"/>
<path d="M178 17C178 17.5523 177.552 18 177 18C176.448 18 176 17.5523 176 17C176 16.4477 176.448 16 177 16C177.552 16 178 16.4477 178 17Z" fill="#C4C4C4" fill-opacity="0.8"/>
<path d="M194 17C194 17.5523 193.552 18 193 18C192.448 18 192 17.5523 192 17C192 16.4477 192.448 16 193 16C193.552 16 194 16.4477 194 17Z" fill="#C4C4C4" fill-opacity="0.8"/>
<path d="M210 17C210 17.5523 209.552 18 209 18C208.448 18 208 17.5523 208 17C208 16.4477 208.448 16 209 16C209.552 16 210 16.4477 210 17Z" fill="#C4C4C4" fill-opacity="0.8"/>
<path d="M226 17C226 17.5523 225.552 18 225 18C224.448 18 224 17.5523 224 17C224 16.4477 224.448 16 225 16C225.552 16 226 16.4477 226 17Z" fill="#C4C4C4" fill-opacity="0.8"/>
<path d="M162 33C162 33.5523 161.552 34 161 34C160.448 34 160 33.5523 160 33C160 32.4477 160.448 32 161 32C161.552 32 162 32.4477 162 33Z" fill="#C4C4C4" fill-opacity="0.8"/>
<path d="M178 33C178 33.5523 177.552 34 177 34C176.448 34 176 33.5523 176 33C176 32.4477 176.448 32 177 32C177.552 32 178 32.4477 178 33Z" fill="#C4C4C4" fill-opacity="0.8"/>
<path d="M194 33C194 33.5523 193.552 34 193 34C192.448 34 192 33.5523 192 33C192 32.4477 192.448 32 193 32C193.552 32 194 32.4477 194 33Z" fill="#C4C4C4" fill-opacity="0.8"/>
<path d="M210 33C210 33.5523 209.552 34 209 34C208.448 34 208 33.5523 208 33C208 32.4477 208.448 32 209 32C209.552 32 210 32.4477 210 33Z" fill="#C4C4C4" fill-opacity="0.8"/>
<path d="M226 33C226 33.5523 225.552 34 225 34C224.448 34 224 33.5523 224 33C224 32.4477 224.448 32 225 32C225.552 32 226 32.4477 226 33Z" fill="#C4C4C4" fill-opacity="0.8"/>
<path d="M162 49C162 49.5523 161.552 50 161 50C160.448 50 160 49.5523 160 49C160 48.4477 160.448 48 161 48C161.552 48 162 48.4477 162 49Z" fill="#C4C4C4" fill-opacity="0.8"/>
<path d="M178 49C178 49.5523 177.552 50 177 50C176.448 50 176 49.5523 176 49C176 48.4477 176.448 48 177 48C177.552 48 178 48.4477 178 49Z" fill="#C4C4C4" fill-opacity="0.8"/>
<path d="M194 49C194 49.5523 193.552 50 193 50C192.448 50 192 49.5523 192 49C192 48.4477 192.448 48 193 48C193.552 48 194 48.4477 194 49Z" fill="#C4C4C4" fill-opacity="0.8"/>
<path d="M210 49C210 49.5523 209.552 50 209 50C208.448 50 208 49.5523 208 49C208 48.4477 208.448 48 209 48C209.552 48 210 48.4477 210 49Z" fill="#C4C4C4" fill-opacity="0.8"/>
<path d="M226 49C226 49.5523 225.552 50 225 50C224.448 50 224 49.5523 224 49C224 48.4477 224.448 48 225 48C225.552 48 226 48.4477 226 49Z" fill="#C4C4C4" fill-opacity="0.8"/>
<path d="M162 65C162 65.5523 161.552 66 161 66C160.448 66 160 65.5523 160 65C160 64.4477 160.448 64 161 64C161.552 64 162 64.4477 162 65Z" fill="#C4C4C4" fill-opacity="0.8"/>
<path d="M178 65C178 65.5523 177.552 66 177 66C176.448 66 176 65.5523 176 65C176 64.4477 176.448 64 177 64C177.552 64 178 64.4477 178 65Z" fill="#C4C4C4" fill-opacity="0.8"/>
<path d="M194 65C194 65.5523 193.552 66 193 66C192.448 66 192 65.5523 192 65C192 64.4477 192.448 64 193 64C193.552 64 194 64.4477 194 65Z" fill="#C4C4C4" fill-opacity="0.8"/>
<path d="M210 65C210 65.5523 209.552 66 209 66C208.448 66 208 65.5523 208 65C208 64.4477 208.448 64 209 64C209.552 64 210 64.4477 210 65Z" fill="#C4C4C4" fill-opacity="0.8"/>
<path d="M226 65C226 65.5523 225.552 66 225 66C224.448 66 224 65.5523 224 65C224 64.4477 224.448 64 225 64C225.552 64 226 64.4477 226 65Z" fill="#C4C4C4" fill-opacity="0.8"/>
<path d="M242 1C242 1.55228 241.552 2 241 2C240.448 2 240 1.55228 240 1C240 0.447715 240.448 0 241 0C241.552 0 242 0.447715 242 1Z" fill="#C4C4C4" fill-opacity="0.8"/>
<path d="M258 1C258 1.55228 257.552 2 257 2C256.448 2 256 1.55228 256 1C256 0.447715 256.448 0 257 0C257.552 0 258 0.447715 258 1Z" fill="#C4C4C4" fill-opacity="0.8"/>
<path d="M274 1C274 1.55228 273.552 2 273 2C272.448 2 272 1.55228 272 1C272 0.447715 272.448 0 273 0C273.552 0 274 0.447715 274 1Z" fill="#C4C4C4" fill-opacity="0.8"/>
<path d="M290 1C290 1.55228 289.552 2 289 2C288.448 2 288 1.55228 288 1C288 0.447715 288.448 0 289 0C289.552 0 290 0.447715 290 1Z" fill="#C4C4C4" fill-opacity="0.8"/>
<path d="M306 1C306 1.55228 305.552 2 305 2C304.448 2 304 1.55228 304 1C304 0.447715 304.448 0 305 0C305.552 0 306 0.447715 306 1Z" fill="#C4C4C4" fill-opacity="0.8"/>
<path d="M242 17C242 17.5523 241.552 18 241 18C240.448 18 240 17.5523 240 17C240 16.4477 240.448 16 241 16C241.552 16 242 16.4477 242 17Z" fill="#C4C4C4" fill-opacity="0.8"/>
<path d="M258 17C258 17.5523 257.552 18 257 18C256.448 18 256 17.5523 256 17C256 16.4477 256.448 16 257 16C257.552 16 258 16.4477 258 17Z" fill="#C4C4C4" fill-opacity="0.8"/>
<path d="M274 17C274 17.5523 273.552 18 273 18C272.448 18 272 17.5523 272 17C272 16.4477 272.448 16 273 16C273.552 16 274 16.4477 274 17Z" fill="#C4C4C4" fill-opacity="0.8"/>
<path d="M290 17C290 17.5523 289.552 18 289 18C288.448 18 288 17.5523 288 17C288 16.4477 288.448 16 289 16C289.552 16 290 16.4477 290 17Z" fill="#C4C4C4" fill-opacity="0.8"/>
<path d="M306 17C306 17.5523 305.552 18 305 18C304.448 18 304 17.5523 304 17C304 16.4477 304.448 16 305 16C305.552 16 306 16.4477 306 17Z" fill="#C4C4C4" fill-opacity="0.8"/>
<path d="M242 33C242 33.5523 241.552 34 241 34C240.448 34 240 33.5523 240 33C240 32.4477 240.448 32 241 32C241.552 32 242 32.4477 242 33Z" fill="#C4C4C4" fill-opacity="0.8"/>
<path d="M258 33C258 33.5523 257.552 34 257 34C256.448 34 256 33.5523 256 33C256 32.4477 256.448 32 257 32C257.552 32 258 32.4477 258 33Z" fill="#C4C4C4" fill-opacity="0.8"/>
<path d="M274 33C274 33.5523 273.552 34 273 34C272.448 34 272 33.5523 272 33C272 32.4477 272.448 32 273 32C273.552 32 274 32.4477 274 33Z" fill="#C4C4C4" fill-opacity="0.8"/>
<path d="M290 33C290 33.5523 289.552 34 289 34C288.448 34 288 33.5523 288 33C288 32.4477 288.448 32 289 32C289.552 32 290 32.4477 290 33Z" fill="#C4C4C4" fill-opacity="0.8"/>
<path d="M306 33C306 33.5523 305.552 34 305 34C304.448 34 304 33.5523 304 33C304 32.4477 304.448 32 305 32C305.552 32 306 32.4477 306 33Z" fill="#C4C4C4" fill-opacity="0.8"/>
<path d="M242 49C242 49.5523 241.552 50 241 50C240.448 50 240 49.5523 240 49C240 48.4477 240.448 48 241 48C241.552 48 242 48.4477 242 49Z" fill="#C4C4C4" fill-opacity="0.8"/>
<path d="M258 49C258 49.5523 257.552 50 257 50C256.448 50 256 49.5523 256 49C256 48.4477 256.448 48 257 48C257.552 48 258 48.4477 258 49Z" fill="#C4C4C4" fill-opacity="0.8"/>
<path d="M274 49C274 49.5523 273.552 50 273 50C272.448 50 272 49.5523 272 49C272 48.4477 272.448 48 273 48C273.552 48 274 48.4477 274 49Z" fill="#C4C4C4" fill-opacity="0.8"/>
<path d="M290 49C290 49.5523 289.552 50 289 50C288.448 50 288 49.5523 288 49C288 48.4477 288.448 48 289 48C289.552 48 290 48.4477 290 49Z" fill="#C4C4C4" fill-opacity="0.8"/>
<path d="M306 49C306 49.5523 305.552 50 305 50C304.448 50 304 49.5523 304 49C304 48.4477 304.448 48 305 48C305.552 48 306 48.4477 306 49Z" fill="#C4C4C4" fill-opacity="0.8"/>
<path d="M242 65C242 65.5523 241.552 66 241 66C240.448 66 240 65.5523 240 65C240 64.4477 240.448 64 241 64C241.552 64 242 64.4477 242 65Z" fill="#C4C4C4" fill-opacity="0.8"/>
<path d="M258 65C258 65.5523 257.552 66 257 66C256.448 66 256 65.5523 256 65C256 64.4477 256.448 64 257 64C257.552 64 258 64.4477 258 65Z" fill="#C4C4C4" fill-opacity="0.8"/>
<path d="M274 65C274 65.5523 273.552 66 273 66C272.448 66 272 65.5523 272 65C272 64.4477 272.448 64 273 64C273.552 64 274 64.4477 274 65Z" fill="#C4C4C4" fill-opacity="0.8"/>
<path d="M290 65C290 65.5523 289.552 66 289 66C288.448 66 288 65.5523 288 65C288 64.4477 288.448 64 289 64C289.552 64 290 64.4477 290 65Z" fill="#C4C4C4" fill-opacity="0.8"/>
<path d="M306 65C306 65.5523 305.552 66 305 66C304.448 66 304 65.5523 304 65C304 64.4477 304.448 64 305 64C305.552 64 306 64.4477 306 65Z" fill="#C4C4C4" fill-opacity="0.8"/>
<path d="M2 1C2 1.55228 1.55228 2 1 2C0.447715 2 0 1.55228 0 1C0 0.447715 0.447715 0 1 0C1.55228 0 2 0.447715 2 1Z" fill="#C4C4C4" fill-opacity="0.8"/>
<path d="M18 1C18 1.55228 17.5523 2 17 2C16.4477 2 16 1.55228 16 1C16 0.447715 16.4477 0 17 0C17.5523 0 18 0.447715 18 1Z" fill="#C4C4C4" fill-opacity="0.8"/>
<path d="M34 1C34 1.55228 33.5523 2 33 2C32.4477 2 32 1.55228 32 1C32 0.447715 32.4477 0 33 0C33.5523 0 34 0.447715 34 1Z" fill="#C4C4C4" fill-opacity="0.8"/>
<path d="M50 1C50 1.55228 49.5523 2 49 2C48.4477 2 48 1.55228 48 1C48 0.447715 48.4477 0 49 0C49.5523 0 50 0.447715 50 1Z" fill="#C4C4C4" fill-opacity="0.8"/>
<path d="M66 1C66 1.55228 65.5523 2 65 2C64.4477 2 64 1.55228 64 1C64 0.447715 64.4477 0 65 0C65.5523 0 66 0.447715 66 1Z" fill="#C4C4C4" fill-opacity="0.8"/>
<path d="M2 17C2 17.5523 1.55228 18 1 18C0.447715 18 0 17.5523 0 17C0 16.4477 0.447715 16 1 16C1.55228 16 2 16.4477 2 17Z" fill="#C4C4C4" fill-opacity="0.8"/>
<path d="M18 17C18 17.5523 17.5523 18 17 18C16.4477 18 16 17.5523 16 17C16 16.4477 16.4477 16 17 16C17.5523 16 18 16.4477 18 17Z" fill="#C4C4C4" fill-opacity="0.8"/>
<path d="M34 17C34 17.5523 33.5523 18 33 18C32.4477 18 32 17.5523 32 17C32 16.4477 32.4477 16 33 16C33.5523 16 34 16.4477 34 17Z" fill="#C4C4C4" fill-opacity="0.8"/>
<path d="M50 17C50 17.5523 49.5523 18 49 18C48.4477 18 48 17.5523 48 17C48 16.4477 48.4477 16 49 16C49.5523 16 50 16.4477 50 17Z" fill="#C4C4C4" fill-opacity="0.8"/>
<path d="M66 17C66 17.5523 65.5523 18 65 18C64.4477 18 64 17.5523 64 17C64 16.4477 64.4477 16 65 16C65.5523 16 66 16.4477 66 17Z" fill="#C4C4C4" fill-opacity="0.8"/>
<path d="M2 33C2 33.5523 1.55228 34 1 34C0.447715 34 0 33.5523 0 33C0 32.4477 0.447715 32 1 32C1.55228 32 2 32.4477 2 33Z" fill="#C4C4C4" fill-opacity="0.8"/>
<path d="M18 33C18 33.5523 17.5523 34 17 34C16.4477 34 16 33.5523 16 33C16 32.4477 16.4477 32 17 32C17.5523 32 18 32.4477 18 33Z" fill="#C4C4C4" fill-opacity="0.8"/>
<path d="M34 33C34 33.5523 33.5523 34 33 34C32.4477 34 32 33.5523 32 33C32 32.4477 32.4477 32 33 32C33.5523 32 34 32.4477 34 33Z" fill="#C4C4C4" fill-opacity="0.8"/>
<path d="M50 33C50 33.5523 49.5523 34 49 34C48.4477 34 48 33.5523 48 33C48 32.4477 48.4477 32 49 32C49.5523 32 50 32.4477 50 33Z" fill="#C4C4C4" fill-opacity="0.8"/>
<path d="M66 33C66 33.5523 65.5523 34 65 34C64.4477 34 64 33.5523 64 33C64 32.4477 64.4477 32 65 32C65.5523 32 66 32.4477 66 33Z" fill="#C4C4C4" fill-opacity="0.8"/>
<path d="M2 49C2 49.5523 1.55228 50 1 50C0.447715 50 0 49.5523 0 49C0 48.4477 0.447715 48 1 48C1.55228 48 2 48.4477 2 49Z" fill="#C4C4C4" fill-opacity="0.8"/>
<path d="M18 49C18 49.5523 17.5523 50 17 50C16.4477 50 16 49.5523 16 49C16 48.4477 16.4477 48 17 48C17.5523 48 18 48.4477 18 49Z" fill="#C4C4C4" fill-opacity="0.8"/>
<path d="M34 49C34 49.5523 33.5523 50 33 50C32.4477 50 32 49.5523 32 49C32 48.4477 32.4477 48 33 48C33.5523 48 34 48.4477 34 49Z" fill="#C4C4C4" fill-opacity="0.8"/>
<path d="M50 49C50 49.5523 49.5523 50 49 50C48.4477 50 48 49.5523 48 49C48 48.4477 48.4477 48 49 48C49.5523 48 50 48.4477 50 49Z" fill="#C4C4C4" fill-opacity="0.8"/>
<path d="M66 49C66 49.5523 65.5523 50 65 50C64.4477 50 64 49.5523 64 49C64 48.4477 64.4477 48 65 48C65.5523 48 66 48.4477 66 49Z" fill="#C4C4C4" fill-opacity="0.8"/>
<path d="M2 65C2 65.5523 1.55228 66 1 66C0.447715 66 0 65.5523 0 65C0 64.4477 0.447715 64 1 64C1.55228 64 2 64.4477 2 65Z" fill="#C4C4C4" fill-opacity="0.8"/>
<path d="M18 65C18 65.5523 17.5523 66 17 66C16.4477 66 16 65.5523 16 65C16 64.4477 16.4477 64 17 64C17.5523 64 18 64.4477 18 65Z" fill="#C4C4C4" fill-opacity="0.8"/>
<path d="M34 65C34 65.5523 33.5523 66 33 66C32.4477 66 32 65.5523 32 65C32 64.4477 32.4477 64 33 64C33.5523 64 34 64.4477 34 65Z" fill="#C4C4C4" fill-opacity="0.8"/>
<path d="M50 65C50 65.5523 49.5523 66 49 66C48.4477 66 48 65.5523 48 65C48 64.4477 48.4477 64 49 64C49.5523 64 50 64.4477 50 65Z" fill="#C4C4C4" fill-opacity="0.8"/>
<path d="M66 65C66 65.5523 65.5523 66 65 66C64.4477 66 64 65.5523 64 65C64 64.4477 64.4477 64 65 64C65.5523 64 66 64.4477 66 65Z" fill="#C4C4C4" fill-opacity="0.8"/>
<path d="M82 1C82 1.55228 81.5523 2 81 2C80.4477 2 80 1.55228 80 1C80 0.447715 80.4477 0 81 0C81.5523 0 82 0.447715 82 1Z" fill="#C4C4C4" fill-opacity="0.8"/>
<path d="M98 1C98 1.55228 97.5523 2 97 2C96.4477 2 96 1.55228 96 1C96 0.447715 96.4477 0 97 0C97.5523 0 98 0.447715 98 1Z" fill="#C4C4C4" fill-opacity="0.8"/>
<path d="M114 1C114 1.55228 113.552 2 113 2C112.448 2 112 1.55228 112 1C112 0.447715 112.448 0 113 0C113.552 0 114 0.447715 114 1Z" fill="#C4C4C4" fill-opacity="0.8"/>
<path d="M130 1C130 1.55228 129.552 2 129 2C128.448 2 128 1.55228 128 1C128 0.447715 128.448 0 129 0C129.552 0 130 0.447715 130 1Z" fill="#C4C4C4" fill-opacity="0.8"/>
<path d="M146 1C146 1.55228 145.552 2 145 2C144.448 2 144 1.55228 144 1C144 0.447715 144.448 0 145 0C145.552 0 146 0.447715 146 1Z" fill="#C4C4C4" fill-opacity="0.8"/>
<path d="M82 17C82 17.5523 81.5523 18 81 18C80.4477 18 80 17.5523 80 17C80 16.4477 80.4477 16 81 16C81.5523 16 82 16.4477 82 17Z" fill="#C4C4C4" fill-opacity="0.8"/>
<path d="M98 17C98 17.5523 97.5523 18 97 18C96.4477 18 96 17.5523 96 17C96 16.4477 96.4477 16 97 16C97.5523 16 98 16.4477 98 17Z" fill="#C4C4C4" fill-opacity="0.8"/>
<path d="M114 17C114 17.5523 113.552 18 113 18C112.448 18 112 17.5523 112 17C112 16.4477 112.448 16 113 16C113.552 16 114 16.4477 114 17Z" fill="#C4C4C4" fill-opacity="0.8"/>
<path d="M130 17C130 17.5523 129.552 18 129 18C128.448 18 128 17.5523 128 17C128 16.4477 128.448 16 129 16C129.552 16 130 16.4477 130 17Z" fill="#C4C4C4" fill-opacity="0.8"/>
<path d="M146 17C146 17.5523 145.552 18 145 18C144.448 18 144 17.5523 144 17C144 16.4477 144.448 16 145 16C145.552 16 146 16.4477 146 17Z" fill="#C4C4C4" fill-opacity="0.8"/>
<path d="M82 33C82 33.5523 81.5523 34 81 34C80.4477 34 80 33.5523 80 33C80 32.4477 80.4477 32 81 32C81.5523 32 82 32.4477 82 33Z" fill="#C4C4C4" fill-opacity="0.8"/>
<path d="M98 33C98 33.5523 97.5523 34 97 34C96.4477 34 96 33.5523 96 33C96 32.4477 96.4477 32 97 32C97.5523 32 98 32.4477 98 33Z" fill="#C4C4C4" fill-opacity="0.8"/>
<path d="M114 33C114 33.5523 113.552 34 113 34C112.448 34 112 33.5523 112 33C112 32.4477 112.448 32 113 32C113.552 32 114 32.4477 114 33Z" fill="#C4C4C4" fill-opacity="0.8"/>
<path d="M130 33C130 33.5523 129.552 34 129 34C128.448 34 128 33.5523 128 33C128 32.4477 128.448 32 129 32C129.552 32 130 32.4477 130 33Z" fill="#C4C4C4" fill-opacity="0.8"/>
<path d="M146 33C146 33.5523 145.552 34 145 34C144.448 34 144 33.5523 144 33C144 32.4477 144.448 32 145 32C145.552 32 146 32.4477 146 33Z" fill="#C4C4C4" fill-opacity="0.8"/>
<path d="M82 49C82 49.5523 81.5523 50 81 50C80.4477 50 80 49.5523 80 49C80 48.4477 80.4477 48 81 48C81.5523 48 82 48.4477 82 49Z" fill="#C4C4C4" fill-opacity="0.8"/>
<path d="M98 49C98 49.5523 97.5523 50 97 50C96.4477 50 96 49.5523 96 49C96 48.4477 96.4477 48 97 48C97.5523 48 98 48.4477 98 49Z" fill="#C4C4C4" fill-opacity="0.8"/>
<path d="M114 49C114 49.5523 113.552 50 113 50C112.448 50 112 49.5523 112 49C112 48.4477 112.448 48 113 48C113.552 48 114 48.4477 114 49Z" fill="#C4C4C4" fill-opacity="0.8"/>
<path d="M130 49C130 49.5523 129.552 50 129 50C128.448 50 128 49.5523 128 49C128 48.4477 128.448 48 129 48C129.552 48 130 48.4477 130 49Z" fill="#C4C4C4" fill-opacity="0.8"/>
<path d="M146 49C146 49.5523 145.552 50 145 50C144.448 50 144 49.5523 144 49C144 48.4477 144.448 48 145 48C145.552 48 146 48.4477 146 49Z" fill="#C4C4C4" fill-opacity="0.8"/>
<path d="M82 65C82 65.5523 81.5523 66 81 66C80.4477 66 80 65.5523 80 65C80 64.4477 80.4477 64 81 64C81.5523 64 82 64.4477 82 65Z" fill="#C4C4C4" fill-opacity="0.8"/>
<path d="M98 65C98 65.5523 97.5523 66 97 66C96.4477 66 96 65.5523 96 65C96 64.4477 96.4477 64 97 64C97.5523 64 98 64.4477 98 65Z" fill="#C4C4C4" fill-opacity="0.8"/>
<path d="M114 65C114 65.5523 113.552 66 113 66C112.448 66 112 65.5523 112 65C112 64.4477 112.448 64 113 64C113.552 64 114 64.4477 114 65Z" fill="#C4C4C4" fill-opacity="0.8"/>
<path d="M130 65C130 65.5523 129.552 66 129 66C128.448 66 128 65.5523 128 65C128 64.4477 128.448 64 129 64C129.552 64 130 64.4477 130 65Z" fill="#C4C4C4" fill-opacity="0.8"/>
<path d="M146 65C146 65.5523 145.552 66 145 66C144.448 66 144 65.5523 144 65C144 64.4477 144.448 64 145 64C145.552 64 146 64.4477 146 65Z" fill="#C4C4C4" fill-opacity="0.8"/>
</svg>
