<svg width="305" height="227" viewBox="0 0 305 227" fill="none" xmlns="http://www.w3.org/2000/svg">
<path d="M-17 65C-17 64.4477 -16.5523 64 -16 64C-15.4477 64 -15 64.4477 -15 65C-15 65.5523 -15.4477 66 -16 66C-16.5523 66 -17 65.5523 -17 65Z" fill="#C4C4C4"/>
<path d="M-33 65C-33 64.4477 -32.5523 64 -32 64C-31.4477 64 -31 64.4477 -31 65C-31 65.5523 -31.4477 66 -32 66C-32.5523 66 -33 65.5523 -33 65Z" fill="#C4C4C4"/>
<path d="M-49 65C-49 64.4477 -48.5523 64 -48 64C-47.4477 64 -47 64.4477 -47 65C-47 65.5523 -47.4477 66 -48 66C-48.5523 66 -49 65.5523 -49 65Z" fill="#C4C4C4"/>
<path d="M-65 65C-65 64.4477 -64.5523 64 -64 64C-63.4477 64 -63 64.4477 -63 65C-63 65.5523 -63.4477 66 -64 66C-64.5523 66 -65 65.5523 -65 65Z" fill="#C4C4C4"/>
<path d="M-81 65C-81 64.4477 -80.5523 64 -80 64C-79.4477 64 -79 64.4477 -79 65C-79 65.5523 -79.4477 66 -80 66C-80.5523 66 -81 65.5523 -81 65Z" fill="#C4C4C4"/>
<path d="M-17 49C-17 48.4477 -16.5523 48 -16 48C-15.4477 48 -15 48.4477 -15 49C-15 49.5523 -15.4477 50 -16 50C-16.5523 50 -17 49.5523 -17 49Z" fill="#C4C4C4"/>
<path d="M-33 49C-33 48.4477 -32.5523 48 -32 48C-31.4477 48 -31 48.4477 -31 49C-31 49.5523 -31.4477 50 -32 50C-32.5523 50 -33 49.5523 -33 49Z" fill="#C4C4C4"/>
<path d="M-49 49C-49 48.4477 -48.5523 48 -48 48C-47.4477 48 -47 48.4477 -47 49C-47 49.5523 -47.4477 50 -48 50C-48.5523 50 -49 49.5523 -49 49Z" fill="#C4C4C4"/>
<path d="M-65 49C-65 48.4477 -64.5523 48 -64 48C-63.4477 48 -63 48.4477 -63 49C-63 49.5523 -63.4477 50 -64 50C-64.5523 50 -65 49.5523 -65 49Z" fill="#C4C4C4"/>
<path d="M-81 49C-81 48.4477 -80.5523 48 -80 48C-79.4477 48 -79 48.4477 -79 49C-79 49.5523 -79.4477 50 -80 50C-80.5523 50 -81 49.5523 -81 49Z" fill="#C4C4C4"/>
<path d="M-17 33C-17 32.4477 -16.5523 32 -16 32C-15.4477 32 -15 32.4477 -15 33C-15 33.5523 -15.4477 34 -16 34C-16.5523 34 -17 33.5523 -17 33Z" fill="#C4C4C4"/>
<path d="M-33 33C-33 32.4477 -32.5523 32 -32 32C-31.4477 32 -31 32.4477 -31 33C-31 33.5523 -31.4477 34 -32 34C-32.5523 34 -33 33.5523 -33 33Z" fill="#C4C4C4"/>
<path d="M-49 33C-49 32.4477 -48.5523 32 -48 32C-47.4477 32 -47 32.4477 -47 33C-47 33.5523 -47.4477 34 -48 34C-48.5523 34 -49 33.5523 -49 33Z" fill="#C4C4C4"/>
<path d="M-65 33C-65 32.4477 -64.5523 32 -64 32C-63.4477 32 -63 32.4477 -63 33C-63 33.5523 -63.4477 34 -64 34C-64.5523 34 -65 33.5523 -65 33Z" fill="#C4C4C4"/>
<path d="M-81 33C-81 32.4477 -80.5523 32 -80 32C-79.4477 32 -79 32.4477 -79 33C-79 33.5523 -79.4477 34 -80 34C-80.5523 34 -81 33.5523 -81 33Z" fill="#C4C4C4"/>
<path d="M-17 17C-17 16.4477 -16.5523 16 -16 16C-15.4477 16 -15 16.4477 -15 17C-15 17.5523 -15.4477 18 -16 18C-16.5523 18 -17 17.5523 -17 17Z" fill="#C4C4C4"/>
<path d="M-33 17C-33 16.4477 -32.5523 16 -32 16C-31.4477 16 -31 16.4477 -31 17C-31 17.5523 -31.4477 18 -32 18C-32.5523 18 -33 17.5523 -33 17Z" fill="#C4C4C4"/>
<path d="M-49 17C-49 16.4477 -48.5523 16 -48 16C-47.4477 16 -47 16.4477 -47 17C-47 17.5523 -47.4477 18 -48 18C-48.5523 18 -49 17.5523 -49 17Z" fill="#C4C4C4"/>
<path d="M-65 17C-65 16.4477 -64.5523 16 -64 16C-63.4477 16 -63 16.4477 -63 17C-63 17.5523 -63.4477 18 -64 18C-64.5523 18 -65 17.5523 -65 17Z" fill="#C4C4C4"/>
<path d="M-81 17C-81 16.4477 -80.5523 16 -80 16C-79.4477 16 -79 16.4477 -79 17C-79 17.5523 -79.4477 18 -80 18C-80.5523 18 -81 17.5523 -81 17Z" fill="#C4C4C4"/>
<path d="M-17 0.999972C-17 0.44768 -16.5523 -2.8111e-05 -16 -2.80627e-05C-15.4477 -2.80144e-05 -15 0.44768 -15 0.999972C-15 1.55226 -15.4477 1.99997 -16 1.99997C-16.5523 1.99997 -17 1.55226 -17 0.999972Z" fill="#C4C4C4"/>
<path d="M-33 0.99997C-33 0.447679 -32.5523 -2.95098e-05 -32 -2.94615e-05C-31.4477 -2.94132e-05 -31 0.447679 -31 0.999971C-31 1.55226 -31.4477 1.99997 -32 1.99997C-32.5523 1.99997 -33 1.55226 -33 0.99997Z" fill="#C4C4C4"/>
<path d="M-49 0.999969C-49 0.447677 -48.5523 -3.09085e-05 -48 -3.08602e-05C-47.4477 -3.0812e-05 -47 0.447677 -47 0.999969C-47 1.55226 -47.4477 1.99997 -48 1.99997C-48.5523 1.99997 -49 1.55226 -49 0.999969Z" fill="#C4C4C4"/>
<path d="M-65 0.999968C-65 0.447676 -64.5523 -3.23073e-05 -64 -3.2259e-05C-63.4477 -3.22107e-05 -63 0.447676 -63 0.999968C-63 1.55226 -63.4477 1.99997 -64 1.99997C-64.5523 1.99997 -65 1.55226 -65 0.999968Z" fill="#C4C4C4"/>
<path d="M-81 0.999966C-81 0.447674 -80.5523 -3.37061e-05 -80 -3.36578e-05C-79.4477 -3.36095e-05 -79 0.447675 -79 0.999966C-79 1.55226 -79.4477 1.99997 -80 1.99997C-80.5523 1.99997 -81 1.55226 -81 0.999966Z" fill="#C4C4C4"/>
<path d="M-97 65C-97 64.4477 -96.5523 64 -96 64C-95.4477 64 -95 64.4477 -95 65C-95 65.5523 -95.4477 66 -96 66C-96.5523 66 -97 65.5523 -97 65Z" fill="#C4C4C4"/>
<path d="M-113 65C-113 64.4477 -112.552 64 -112 64C-111.448 64 -111 64.4477 -111 65C-111 65.5523 -111.448 66 -112 66C-112.552 66 -113 65.5523 -113 65Z" fill="#C4C4C4"/>
<path d="M-129 65C-129 64.4477 -128.552 64 -128 64C-127.448 64 -127 64.4477 -127 65C-127 65.5523 -127.448 66 -128 66C-128.552 66 -129 65.5523 -129 65Z" fill="#C4C4C4"/>
<path d="M-145 65C-145 64.4477 -144.552 64 -144 64C-143.448 64 -143 64.4477 -143 65C-143 65.5523 -143.448 66 -144 66C-144.552 66 -145 65.5523 -145 65Z" fill="#C4C4C4"/>
<path d="M-161 65C-161 64.4477 -160.552 64 -160 64C-159.448 64 -159 64.4477 -159 65C-159 65.5523 -159.448 66 -160 66C-160.552 66 -161 65.5523 -161 65Z" fill="#C4C4C4"/>
<path d="M-97 49C-97 48.4477 -96.5523 48 -96 48C-95.4477 48 -95 48.4477 -95 49C-95 49.5523 -95.4477 50 -96 50C-96.5523 50 -97 49.5523 -97 49Z" fill="#C4C4C4"/>
<path d="M-113 49C-113 48.4477 -112.552 48 -112 48C-111.448 48 -111 48.4477 -111 49C-111 49.5523 -111.448 50 -112 50C-112.552 50 -113 49.5523 -113 49Z" fill="#C4C4C4"/>
<path d="M-129 49C-129 48.4477 -128.552 48 -128 48C-127.448 48 -127 48.4477 -127 49C-127 49.5523 -127.448 50 -128 50C-128.552 50 -129 49.5523 -129 49Z" fill="#C4C4C4"/>
<path d="M-145 49C-145 48.4477 -144.552 48 -144 48C-143.448 48 -143 48.4477 -143 49C-143 49.5523 -143.448 50 -144 50C-144.552 50 -145 49.5523 -145 49Z" fill="#C4C4C4"/>
<path d="M-161 49C-161 48.4477 -160.552 48 -160 48C-159.448 48 -159 48.4477 -159 49C-159 49.5523 -159.448 50 -160 50C-160.552 50 -161 49.5523 -161 49Z" fill="#C4C4C4"/>
<path d="M-97 33C-97 32.4477 -96.5523 32 -96 32C-95.4477 32 -95 32.4477 -95 33C-95 33.5523 -95.4477 34 -96 34C-96.5523 34 -97 33.5523 -97 33Z" fill="#C4C4C4"/>
<path d="M-113 33C-113 32.4477 -112.552 32 -112 32C-111.448 32 -111 32.4477 -111 33C-111 33.5523 -111.448 34 -112 34C-112.552 34 -113 33.5523 -113 33Z" fill="#C4C4C4"/>
<path d="M-129 33C-129 32.4477 -128.552 32 -128 32C-127.448 32 -127 32.4477 -127 33C-127 33.5523 -127.448 34 -128 34C-128.552 34 -129 33.5523 -129 33Z" fill="#C4C4C4"/>
<path d="M-145 33C-145 32.4477 -144.552 32 -144 32C-143.448 32 -143 32.4477 -143 33C-143 33.5523 -143.448 34 -144 34C-144.552 34 -145 33.5523 -145 33Z" fill="#C4C4C4"/>
<path d="M-161 33C-161 32.4477 -160.552 32 -160 32C-159.448 32 -159 32.4477 -159 33C-159 33.5523 -159.448 34 -160 34C-160.552 34 -161 33.5523 -161 33Z" fill="#C4C4C4"/>
<path d="M-97 17C-97 16.4477 -96.5523 16 -96 16C-95.4477 16 -95 16.4477 -95 17C-95 17.5523 -95.4477 18 -96 18C-96.5523 18 -97 17.5523 -97 17Z" fill="#C4C4C4"/>
<path d="M-113 17C-113 16.4477 -112.552 16 -112 16C-111.448 16 -111 16.4477 -111 17C-111 17.5523 -111.448 18 -112 18C-112.552 18 -113 17.5523 -113 17Z" fill="#C4C4C4"/>
<path d="M-129 17C-129 16.4477 -128.552 16 -128 16C-127.448 16 -127 16.4477 -127 17C-127 17.5523 -127.448 18 -128 18C-128.552 18 -129 17.5523 -129 17Z" fill="#C4C4C4"/>
<path d="M-145 17C-145 16.4477 -144.552 16 -144 16C-143.448 16 -143 16.4477 -143 17C-143 17.5523 -143.448 18 -144 18C-144.552 18 -145 17.5523 -145 17Z" fill="#C4C4C4"/>
<path d="M-161 17C-161 16.4477 -160.552 16 -160 16C-159.448 16 -159 16.4477 -159 17C-159 17.5523 -159.448 18 -160 18C-160.552 18 -161 17.5523 -161 17Z" fill="#C4C4C4"/>
<path d="M-97 0.999965C-97 0.447673 -96.5523 -3.51048e-05 -96 -3.50565e-05C-95.4477 -3.50083e-05 -95 0.447673 -95 0.999965C-95 1.55226 -95.4477 1.99996 -96 1.99996C-96.5523 1.99996 -97 1.55226 -97 0.999965Z" fill="#C4C4C4"/>
<path d="M-113 0.999963C-113 0.447672 -112.552 -3.65036e-05 -112 -3.64553e-05C-111.448 -3.6407e-05 -111 0.447672 -111 0.999964C-111 1.55226 -111.448 1.99996 -112 1.99996C-112.552 1.99996 -113 1.55226 -113 0.999963Z" fill="#C4C4C4"/>
<path d="M-129 0.999962C-129 0.44767 -128.552 -3.79023e-05 -128 -3.78541e-05C-127.448 -3.78058e-05 -127 0.44767 -127 0.999962C-127 1.55225 -127.448 1.99996 -128 1.99996C-128.552 1.99996 -129 1.55225 -129 0.999962Z" fill="#C4C4C4"/>
<path d="M-145 0.999961C-145 0.447669 -144.552 -3.93011e-05 -144 -3.92528e-05C-143.448 -3.92045e-05 -143 0.447669 -143 0.999961C-143 1.55225 -143.448 1.99996 -144 1.99996C-144.552 1.99996 -145 1.55225 -145 0.999961Z" fill="#C4C4C4"/>
<path d="M-161 0.999959C-161 0.447667 -160.552 -4.06999e-05 -160 -4.06516e-05C-159.448 -4.06033e-05 -159 0.447668 -159 0.999959C-159 1.55225 -159.448 1.99996 -160 1.99996C-160.552 1.99996 -161 1.55225 -161 0.999959Z" fill="#C4C4C4"/>
<path d="M-177 65C-177 64.4477 -176.552 64 -176 64C-175.448 64 -175 64.4477 -175 65C-175 65.5522 -175.448 66 -176 66C-176.552 66 -177 65.5522 -177 65Z" fill="#C4C4C4"/>
<path d="M-193 65C-193 64.4477 -192.552 64 -192 64C-191.448 64 -191 64.4477 -191 65C-191 65.5522 -191.448 66 -192 66C-192.552 66 -193 65.5522 -193 65Z" fill="#C4C4C4"/>
<path d="M-209 65C-209 64.4477 -208.552 64 -208 64C-207.448 64 -207 64.4477 -207 65C-207 65.5522 -207.448 66 -208 66C-208.552 66 -209 65.5522 -209 65Z" fill="#C4C4C4"/>
<path d="M-225 65C-225 64.4477 -224.552 64 -224 64C-223.448 64 -223 64.4477 -223 65C-223 65.5522 -223.448 66 -224 66C-224.552 66 -225 65.5522 -225 65Z" fill="#C4C4C4"/>
<path d="M-241 65C-241 64.4477 -240.552 64 -240 64C-239.448 64 -239 64.4477 -239 65C-239 65.5522 -239.448 66 -240 66C-240.552 66 -241 65.5522 -241 65Z" fill="#C4C4C4"/>
<path d="M-177 49C-177 48.4477 -176.552 48 -176 48C-175.448 48 -175 48.4477 -175 49C-175 49.5522 -175.448 50 -176 50C-176.552 50 -177 49.5522 -177 49Z" fill="#C4C4C4"/>
<path d="M-193 49C-193 48.4477 -192.552 48 -192 48C-191.448 48 -191 48.4477 -191 49C-191 49.5522 -191.448 50 -192 50C-192.552 50 -193 49.5522 -193 49Z" fill="#C4C4C4"/>
<path d="M-209 49C-209 48.4477 -208.552 48 -208 48C-207.448 48 -207 48.4477 -207 49C-207 49.5522 -207.448 50 -208 50C-208.552 50 -209 49.5522 -209 49Z" fill="#C4C4C4"/>
<path d="M-225 49C-225 48.4477 -224.552 48 -224 48C-223.448 48 -223 48.4477 -223 49C-223 49.5522 -223.448 50 -224 50C-224.552 50 -225 49.5522 -225 49Z" fill="#C4C4C4"/>
<path d="M-241 49C-241 48.4477 -240.552 48 -240 48C-239.448 48 -239 48.4477 -239 49C-239 49.5522 -239.448 50 -240 50C-240.552 50 -241 49.5522 -241 49Z" fill="#C4C4C4"/>
<path d="M-177 33C-177 32.4477 -176.552 32 -176 32C-175.448 32 -175 32.4477 -175 33C-175 33.5522 -175.448 34 -176 34C-176.552 34 -177 33.5522 -177 33Z" fill="#C4C4C4"/>
<path d="M-193 33C-193 32.4477 -192.552 32 -192 32C-191.448 32 -191 32.4477 -191 33C-191 33.5522 -191.448 34 -192 34C-192.552 34 -193 33.5522 -193 33Z" fill="#C4C4C4"/>
<path d="M-209 33C-209 32.4477 -208.552 32 -208 32C-207.448 32 -207 32.4477 -207 33C-207 33.5522 -207.448 34 -208 34C-208.552 34 -209 33.5522 -209 33Z" fill="#C4C4C4"/>
<path d="M-225 33C-225 32.4477 -224.552 32 -224 32C-223.448 32 -223 32.4477 -223 33C-223 33.5522 -223.448 34 -224 34C-224.552 34 -225 33.5522 -225 33Z" fill="#C4C4C4"/>
<path d="M-241 33C-241 32.4477 -240.552 32 -240 32C-239.448 32 -239 32.4477 -239 33C-239 33.5522 -239.448 34 -240 34C-240.552 34 -241 33.5522 -241 33Z" fill="#C4C4C4"/>
<path d="M-177 17C-177 16.4477 -176.552 16 -176 16C-175.448 16 -175 16.4477 -175 17C-175 17.5522 -175.448 18 -176 18C-176.552 18 -177 17.5522 -177 17Z" fill="#C4C4C4"/>
<path d="M-193 17C-193 16.4477 -192.552 16 -192 16C-191.448 16 -191 16.4477 -191 17C-191 17.5522 -191.448 18 -192 18C-192.552 18 -193 17.5522 -193 17Z" fill="#C4C4C4"/>
<path d="M-209 17C-209 16.4477 -208.552 16 -208 16C-207.448 16 -207 16.4477 -207 17C-207 17.5522 -207.448 18 -208 18C-208.552 18 -209 17.5522 -209 17Z" fill="#C4C4C4"/>
<path d="M-225 17C-225 16.4477 -224.552 16 -224 16C-223.448 16 -223 16.4477 -223 17C-223 17.5522 -223.448 18 -224 18C-224.552 18 -225 17.5522 -225 17Z" fill="#C4C4C4"/>
<path d="M-241 17C-241 16.4477 -240.552 16 -240 16C-239.448 16 -239 16.4477 -239 17C-239 17.5522 -239.448 18 -240 18C-240.552 18 -241 17.5522 -241 17Z" fill="#C4C4C4"/>
<path d="M-177 0.999958C-177 0.447666 -176.552 -4.20986e-05 -176 -4.20504e-05C-175.448 -4.20021e-05 -175 0.447666 -175 0.999958C-175 1.55225 -175.448 1.99996 -176 1.99996C-176.552 1.99996 -177 1.55225 -177 0.999958Z" fill="#C4C4C4"/>
<path d="M-193 0.999956C-193 0.447665 -192.552 -4.34974e-05 -192 -4.34491e-05C-191.448 -4.34008e-05 -191 0.447665 -191 0.999957C-191 1.55225 -191.448 1.99996 -192 1.99996C-192.552 1.99996 -193 1.55225 -193 0.999956Z" fill="#C4C4C4"/>
<path d="M-209 0.999955C-209 0.447663 -208.552 -4.48962e-05 -208 -4.48479e-05C-207.448 -4.47996e-05 -207 0.447663 -207 0.999955C-207 1.55225 -207.448 1.99996 -208 1.99996C-208.552 1.99996 -209 1.55225 -209 0.999955Z" fill="#C4C4C4"/>
<path d="M-225 0.999954C-225 0.447662 -224.552 -4.62949e-05 -224 -4.62466e-05C-223.448 -4.61984e-05 -223 0.447662 -223 0.999954C-223 1.55225 -223.448 1.99995 -224 1.99995C-224.552 1.99995 -225 1.55225 -225 0.999954Z" fill="#C4C4C4"/>
<path d="M-241 0.999952C-241 0.44766 -240.552 -4.76937e-05 -240 -4.76454e-05C-239.448 -4.75971e-05 -239 0.447661 -239 0.999952C-239 1.55224 -239.448 1.99995 -240 1.99995C-240.552 1.99995 -241 1.55224 -241 0.999952Z" fill="#C4C4C4"/>
<path d="M143 65C143 64.4477 143.448 64 144 64C144.552 64 145 64.4477 145 65C145 65.5523 144.552 66 144 66C143.448 66 143 65.5523 143 65Z" fill="#C4C4C4"/>
<path d="M127 65C127 64.4477 127.448 64 128 64C128.552 64 129 64.4477 129 65C129 65.5523 128.552 66 128 66C127.448 66 127 65.5523 127 65Z" fill="#C4C4C4"/>
<path d="M111 65C111 64.4477 111.448 64 112 64C112.552 64 113 64.4477 113 65C113 65.5523 112.552 66 112 66C111.448 66 111 65.5523 111 65Z" fill="#C4C4C4"/>
<path d="M95 65C95 64.4477 95.4477 64 96 64C96.5523 64 97 64.4477 97 65C97 65.5523 96.5523 66 96 66C95.4477 66 95 65.5523 95 65Z" fill="#C4C4C4"/>
<path d="M79 65C79 64.4477 79.4477 64 80 64C80.5523 64 81 64.4477 81 65C81 65.5523 80.5523 66 80 66C79.4477 66 79 65.5523 79 65Z" fill="#C4C4C4"/>
<path d="M143 49C143 48.4477 143.448 48 144 48C144.552 48 145 48.4477 145 49C145 49.5523 144.552 50 144 50C143.448 50 143 49.5523 143 49Z" fill="#C4C4C4"/>
<path d="M127 49C127 48.4477 127.448 48 128 48C128.552 48 129 48.4477 129 49C129 49.5523 128.552 50 128 50C127.448 50 127 49.5523 127 49Z" fill="#C4C4C4"/>
<path d="M111 49C111 48.4477 111.448 48 112 48C112.552 48 113 48.4477 113 49C113 49.5523 112.552 50 112 50C111.448 50 111 49.5523 111 49Z" fill="#C4C4C4"/>
<path d="M95 49C95 48.4477 95.4477 48 96 48C96.5523 48 97 48.4477 97 49C97 49.5523 96.5523 50 96 50C95.4477 50 95 49.5523 95 49Z" fill="#C4C4C4"/>
<path d="M79 49C79 48.4477 79.4477 48 80 48C80.5523 48 81 48.4477 81 49C81 49.5523 80.5523 50 80 50C79.4477 50 79 49.5523 79 49Z" fill="#C4C4C4"/>
<path d="M143 33C143 32.4477 143.448 32 144 32C144.552 32 145 32.4477 145 33C145 33.5523 144.552 34 144 34C143.448 34 143 33.5523 143 33Z" fill="#C4C4C4"/>
<path d="M127 33C127 32.4477 127.448 32 128 32C128.552 32 129 32.4477 129 33C129 33.5523 128.552 34 128 34C127.448 34 127 33.5523 127 33Z" fill="#C4C4C4"/>
<path d="M111 33C111 32.4477 111.448 32 112 32C112.552 32 113 32.4477 113 33C113 33.5523 112.552 34 112 34C111.448 34 111 33.5523 111 33Z" fill="#C4C4C4"/>
<path d="M95 33C95 32.4477 95.4477 32 96 32C96.5523 32 97 32.4477 97 33C97 33.5523 96.5523 34 96 34C95.4477 34 95 33.5523 95 33Z" fill="#C4C4C4"/>
<path d="M79 33C79 32.4477 79.4477 32 80 32C80.5523 32 81 32.4477 81 33C81 33.5523 80.5523 34 80 34C79.4477 34 79 33.5523 79 33Z" fill="#C4C4C4"/>
<path d="M143 17C143 16.4477 143.448 16 144 16C144.552 16 145 16.4477 145 17C145 17.5523 144.552 18 144 18C143.448 18 143 17.5523 143 17Z" fill="#C4C4C4"/>
<path d="M127 17C127 16.4477 127.448 16 128 16C128.552 16 129 16.4477 129 17C129 17.5523 128.552 18 128 18C127.448 18 127 17.5523 127 17Z" fill="#C4C4C4"/>
<path d="M111 17C111 16.4477 111.448 16 112 16C112.552 16 113 16.4477 113 17C113 17.5523 112.552 18 112 18C111.448 18 111 17.5523 111 17Z" fill="#C4C4C4"/>
<path d="M95 17C95 16.4477 95.4477 16 96 16C96.5523 16 97 16.4477 97 17C97 17.5523 96.5523 18 96 18C95.4477 18 95 17.5523 95 17Z" fill="#C4C4C4"/>
<path d="M79 17C79 16.4477 79.4477 16 80 16C80.5523 16 81 16.4477 81 17C81 17.5523 80.5523 18 80 18C79.4477 18 79 17.5523 79 17Z" fill="#C4C4C4"/>
<path d="M143 0.999986C143 0.447694 143.448 -1.41233e-05 144 -1.40751e-05C144.552 -1.40268e-05 145 0.447694 145 0.999986C145 1.55228 144.552 1.99999 144 1.99999C143.448 1.99999 143 1.55228 143 0.999986Z" fill="#C4C4C4"/>
<path d="M127 0.999984C127 0.447693 127.448 -1.55221e-05 128 -1.54738e-05C128.552 -1.54255e-05 129 0.447693 129 0.999985C129 1.55228 128.552 1.99998 128 1.99998C127.448 1.99998 127 1.55228 127 0.999984Z" fill="#C4C4C4"/>
<path d="M111 0.999983C111 0.447691 111.448 -1.69209e-05 112 -1.68726e-05C112.552 -1.68243e-05 113 0.447691 113 0.999983C113 1.55228 112.552 1.99998 112 1.99998C111.448 1.99998 111 1.55227 111 0.999983Z" fill="#C4C4C4"/>
<path d="M95 0.999982C95 0.44769 95.4477 -1.83196e-05 96 -1.82714e-05C96.5523 -1.82231e-05 97 0.44769 97 0.999982C97 1.55227 96.5523 1.99998 96 1.99998C95.4477 1.99998 95 1.55227 95 0.999982Z" fill="#C4C4C4"/>
<path d="M79 0.99998C79 0.447688 79.4477 -1.97184e-05 80 -1.96701e-05C80.5523 -1.96218e-05 81 0.447689 81 0.99998C81 1.55227 80.5523 1.99998 80 1.99998C79.4477 1.99998 79 1.55227 79 0.99998Z" fill="#C4C4C4"/>
<path d="M63 65C63 64.4477 63.4477 64 64 64C64.5523 64 65 64.4477 65 65C65 65.5523 64.5523 66 64 66C63.4477 66 63 65.5523 63 65Z" fill="#C4C4C4"/>
<path d="M47 65C47 64.4477 47.4477 64 48 64C48.5523 64 49 64.4477 49 65C49 65.5523 48.5523 66 48 66C47.4477 66 47 65.5523 47 65Z" fill="#C4C4C4"/>
<path d="M31 65C31 64.4477 31.4477 64 32 64C32.5523 64 33 64.4477 33 65C33 65.5523 32.5523 66 32 66C31.4477 66 31 65.5523 31 65Z" fill="#C4C4C4"/>
<path d="M15 65C15 64.4477 15.4477 64 16 64C16.5523 64 17 64.4477 17 65C17 65.5523 16.5523 66 16 66C15.4477 66 15 65.5523 15 65Z" fill="#C4C4C4"/>
<path d="M-0.999986 65C-0.999986 64.4477 -0.552262 64 1.42499e-05 64C0.552291 64 1.00001 64.4477 1.00001 65C1.00001 65.5523 0.552291 66 1.40751e-05 66C-0.552263 66 -0.999986 65.5523 -0.999986 65Z" fill="#C4C4C4"/>
<path d="M63 49C63 48.4477 63.4477 48 64 48C64.5523 48 65 48.4477 65 49C65 49.5523 64.5523 50 64 50C63.4477 50 63 49.5523 63 49Z" fill="#C4C4C4"/>
<path d="M47 49C47 48.4477 47.4477 48 48 48C48.5523 48 49 48.4477 49 49C49 49.5523 48.5523 50 48 50C47.4477 50 47 49.5523 47 49Z" fill="#C4C4C4"/>
<path d="M31 49C31 48.4477 31.4477 48 32 48C32.5523 48 33 48.4477 33 49C33 49.5523 32.5523 50 32 50C31.4477 50 31 49.5523 31 49Z" fill="#C4C4C4"/>
<path d="M15 49C15 48.4477 15.4477 48 16 48C16.5523 48 17 48.4477 17 49C17 49.5523 16.5523 50 16 50C15.4477 50 15 49.5523 15 49Z" fill="#C4C4C4"/>
<path d="M-0.999984 49C-0.999984 48.4477 -0.552261 48 1.56487e-05 48C0.552292 48 1.00002 48.4477 1.00002 49C1.00002 49.5523 0.552292 50 1.54738e-05 50C-0.552261 50 -0.999984 49.5523 -0.999984 49Z" fill="#C4C4C4"/>
<path d="M63 33C63 32.4477 63.4477 32 64 32C64.5523 32 65 32.4477 65 33C65 33.5523 64.5523 34 64 34C63.4477 34 63 33.5523 63 33Z" fill="#C4C4C4"/>
<path d="M47 33C47 32.4477 47.4477 32 48 32C48.5523 32 49 32.4477 49 33C49 33.5523 48.5523 34 48 34C47.4477 34 47 33.5523 47 33Z" fill="#C4C4C4"/>
<path d="M31 33C31 32.4477 31.4477 32 32 32C32.5523 32 33 32.4477 33 33C33 33.5523 32.5523 34 32 34C31.4477 34 31 33.5523 31 33Z" fill="#C4C4C4"/>
<path d="M15 33C15 32.4477 15.4477 32 16 32C16.5523 32 17 32.4477 17 33C17 33.5523 16.5523 34 16 34C15.4477 34 15 33.5523 15 33Z" fill="#C4C4C4"/>
<path d="M-0.999983 33C-0.999983 32.4477 -0.55226 32 1.70474e-05 32C0.552294 32 1.00002 32.4477 1.00002 33C1.00002 33.5523 0.552293 34 1.68726e-05 34C-0.55226 34 -0.999983 33.5523 -0.999983 33Z" fill="#C4C4C4"/>
<path d="M63 17C63 16.4477 63.4477 16 64 16C64.5523 16 65 16.4477 65 17C65 17.5523 64.5523 18 64 18C63.4477 18 63 17.5523 63 17Z" fill="#C4C4C4"/>
<path d="M47 17C47 16.4477 47.4477 16 48 16C48.5523 16 49 16.4477 49 17C49 17.5523 48.5523 18 48 18C47.4477 18 47 17.5523 47 17Z" fill="#C4C4C4"/>
<path d="M31 17C31 16.4477 31.4477 16 32 16C32.5523 16 33 16.4477 33 17C33 17.5523 32.5523 18 32 18C31.4477 18 31 17.5523 31 17Z" fill="#C4C4C4"/>
<path d="M15 17C15 16.4477 15.4477 16 16 16C16.5523 16 17 16.4477 17 17C17 17.5523 16.5523 18 16 18C15.4477 18 15 17.5523 15 17Z" fill="#C4C4C4"/>
<path d="M-0.999982 17C-0.999982 16.4477 -0.552258 16 1.84462e-05 16C0.552295 16 1.00002 16.4477 1.00002 17C1.00002 17.5523 0.552295 18 1.82714e-05 18C-0.552258 18 -0.999982 17.5523 -0.999982 17Z" fill="#C4C4C4"/>
<path d="M63 0.999979C63 0.447687 63.4477 -2.11172e-05 64 -2.10689e-05C64.5523 -2.10206e-05 65 0.447687 65 0.999979C65 1.55227 64.5523 1.99998 64 1.99998C63.4477 1.99998 63 1.55227 63 0.999979Z" fill="#C4C4C4"/>
<path d="M47 0.999977C47 0.447686 47.4477 -2.25159e-05 48 -2.24677e-05C48.5523 -2.24194e-05 49 0.447686 49 0.999978C49 1.55227 48.5523 1.99998 48 1.99998C47.4477 1.99998 47 1.55227 47 0.999977Z" fill="#C4C4C4"/>
<path d="M31 0.999976C31 0.447684 31.4477 -2.39147e-05 32 -2.38664e-05C32.5523 -2.38181e-05 33 0.447684 33 0.999976C33 1.55227 32.5523 1.99998 32 1.99998C31.4477 1.99998 31 1.55227 31 0.999976Z" fill="#C4C4C4"/>
<path d="M15 0.999975C15 0.447683 15.4477 -2.53135e-05 16 -2.52652e-05C16.5523 -2.52169e-05 17 0.447683 17 0.999975C17 1.55227 16.5523 1.99997 16 1.99997C15.4477 1.99997 15 1.55227 15 0.999975Z" fill="#C4C4C4"/>
<path d="M-0.99998 0.999973C-0.99998 0.447681 -0.552257 -2.67122e-05 1.9845e-05 -2.66639e-05C0.552296 -2.66157e-05 1.00002 0.447682 1.00002 0.999973C1.00002 1.55227 0.552296 1.99997 1.96701e-05 1.99997C-0.552257 1.99997 -0.99998 1.55227 -0.99998 0.999973Z" fill="#C4C4C4"/>
<path d="M303 65C303 64.4477 303.448 64 304 64C304.552 64 305 64.4477 305 65C305 65.5523 304.552 66 304 66C303.448 66 303 65.5523 303 65Z" fill="#C4C4C4"/>
<path d="M287 65C287 64.4477 287.448 64 288 64C288.552 64 289 64.4477 289 65C289 65.5523 288.552 66 288 66C287.448 66 287 65.5523 287 65Z" fill="#C4C4C4"/>
<path d="M271 65C271 64.4477 271.448 64 272 64C272.552 64 273 64.4477 273 65C273 65.5523 272.552 66 272 66C271.448 66 271 65.5523 271 65Z" fill="#C4C4C4"/>
<path d="M255 65C255 64.4477 255.448 64 256 64C256.552 64 257 64.4477 257 65C257 65.5523 256.552 66 256 66C255.448 66 255 65.5523 255 65Z" fill="#C4C4C4"/>
<path d="M239 65C239 64.4477 239.448 64 240 64C240.552 64 241 64.4477 241 65C241 65.5523 240.552 66 240 66C239.448 66 239 65.5523 239 65Z" fill="#C4C4C4"/>
<path d="M303 49C303 48.4477 303.448 48 304 48C304.552 48 305 48.4477 305 49C305 49.5523 304.552 50 304 50C303.448 50 303 49.5523 303 49Z" fill="#C4C4C4"/>
<path d="M287 49C287 48.4477 287.448 48 288 48C288.552 48 289 48.4477 289 49C289 49.5523 288.552 50 288 50C287.448 50 287 49.5523 287 49Z" fill="#C4C4C4"/>
<path d="M271 49C271 48.4477 271.448 48 272 48C272.552 48 273 48.4477 273 49C273 49.5523 272.552 50 272 50C271.448 50 271 49.5523 271 49Z" fill="#C4C4C4"/>
<path d="M255 49C255 48.4477 255.448 48 256 48C256.552 48 257 48.4477 257 49C257 49.5523 256.552 50 256 50C255.448 50 255 49.5523 255 49Z" fill="#C4C4C4"/>
<path d="M239 49C239 48.4477 239.448 48 240 48C240.552 48 241 48.4477 241 49C241 49.5523 240.552 50 240 50C239.448 50 239 49.5523 239 49Z" fill="#C4C4C4"/>
<path d="M303 33C303 32.4477 303.448 32 304 32C304.552 32 305 32.4477 305 33C305 33.5523 304.552 34 304 34C303.448 34 303 33.5523 303 33Z" fill="#C4C4C4"/>
<path d="M287 33C287 32.4477 287.448 32 288 32C288.552 32 289 32.4477 289 33C289 33.5523 288.552 34 288 34C287.448 34 287 33.5523 287 33Z" fill="#C4C4C4"/>
<path d="M271 33C271 32.4477 271.448 32 272 32C272.552 32 273 32.4477 273 33C273 33.5523 272.552 34 272 34C271.448 34 271 33.5523 271 33Z" fill="#C4C4C4"/>
<path d="M255 33C255 32.4477 255.448 32 256 32C256.552 32 257 32.4477 257 33C257 33.5523 256.552 34 256 34C255.448 34 255 33.5523 255 33Z" fill="#C4C4C4"/>
<path d="M239 33C239 32.4477 239.448 32 240 32C240.552 32 241 32.4477 241 33C241 33.5523 240.552 34 240 34C239.448 34 239 33.5523 239 33Z" fill="#C4C4C4"/>
<path d="M303 17C303 16.4477 303.448 16 304 16C304.552 16 305 16.4477 305 17C305 17.5523 304.552 18 304 18C303.448 18 303 17.5523 303 17Z" fill="#C4C4C4"/>
<path d="M287 17C287 16.4477 287.448 16 288 16C288.552 16 289 16.4477 289 17C289 17.5523 288.552 18 288 18C287.448 18 287 17.5523 287 17Z" fill="#C4C4C4"/>
<path d="M271 17C271 16.4477 271.448 16 272 16C272.552 16 273 16.4477 273 17C273 17.5523 272.552 18 272 18C271.448 18 271 17.5523 271 17Z" fill="#C4C4C4"/>
<path d="M255 17C255 16.4477 255.448 16 256 16C256.552 16 257 16.4477 257 17C257 17.5523 256.552 18 256 18C255.448 18 255 17.5523 255 17Z" fill="#C4C4C4"/>
<path d="M239 17C239 16.4477 239.448 16 240 16C240.552 16 241 16.4477 241 17C241 17.5523 240.552 18 240 18C239.448 18 239 17.5523 239 17Z" fill="#C4C4C4"/>
<path d="M303 1C303 0.447708 303.448 -1.35705e-07 304 -8.74228e-08C304.552 -3.91405e-08 305 0.447708 305 1C305 1.55229 304.552 2 304 2C303.448 2 303 1.55229 303 1Z" fill="#C4C4C4"/>
<path d="M287 0.999998C287 0.447707 287.448 -1.53447e-06 288 -1.48619e-06C288.552 -1.4379e-06 289 0.447707 289 0.999999C289 1.55229 288.552 2 288 2C287.448 2 287 1.55229 287 0.999998Z" fill="#C4C4C4"/>
<path d="M271 0.999997C271 0.447705 271.448 -2.93323e-06 272 -2.88495e-06C272.552 -2.83667e-06 273 0.447705 273 0.999997C273 1.55229 272.552 2 272 2C271.448 2 271 1.55229 271 0.999997Z" fill="#C4C4C4"/>
<path d="M255 0.999996C255 0.447704 255.448 -4.332e-06 256 -4.28372e-06C256.552 -4.23543e-06 257 0.447704 257 0.999996C257 1.55229 256.552 2 256 2C255.448 2 255 1.55229 255 0.999996Z" fill="#C4C4C4"/>
<path d="M239 0.999994C239 0.447702 239.448 -5.73076e-06 240 -5.68248e-06C240.552 -5.6342e-06 241 0.447703 241 0.999994C241 1.55229 240.552 1.99999 240 1.99999C239.448 1.99999 239 1.55229 239 0.999994Z" fill="#C4C4C4"/>
<path d="M223 65C223 64.4477 223.448 64 224 64C224.552 64 225 64.4477 225 65C225 65.5523 224.552 66 224 66C223.448 66 223 65.5523 223 65Z" fill="#C4C4C4"/>
<path d="M207 65C207 64.4477 207.448 64 208 64C208.552 64 209 64.4477 209 65C209 65.5523 208.552 66 208 66C207.448 66 207 65.5523 207 65Z" fill="#C4C4C4"/>
<path d="M191 65C191 64.4477 191.448 64 192 64C192.552 64 193 64.4477 193 65C193 65.5523 192.552 66 192 66C191.448 66 191 65.5523 191 65Z" fill="#C4C4C4"/>
<path d="M175 65C175 64.4477 175.448 64 176 64C176.552 64 177 64.4477 177 65C177 65.5523 176.552 66 176 66C175.448 66 175 65.5523 175 65Z" fill="#C4C4C4"/>
<path d="M159 65C159 64.4477 159.448 64 160 64C160.552 64 161 64.4477 161 65C161 65.5523 160.552 66 160 66C159.448 66 159 65.5523 159 65Z" fill="#C4C4C4"/>
<path d="M223 49C223 48.4477 223.448 48 224 48C224.552 48 225 48.4477 225 49C225 49.5523 224.552 50 224 50C223.448 50 223 49.5523 223 49Z" fill="#C4C4C4"/>
<path d="M207 49C207 48.4477 207.448 48 208 48C208.552 48 209 48.4477 209 49C209 49.5523 208.552 50 208 50C207.448 50 207 49.5523 207 49Z" fill="#C4C4C4"/>
<path d="M191 49C191 48.4477 191.448 48 192 48C192.552 48 193 48.4477 193 49C193 49.5523 192.552 50 192 50C191.448 50 191 49.5523 191 49Z" fill="#C4C4C4"/>
<path d="M175 49C175 48.4477 175.448 48 176 48C176.552 48 177 48.4477 177 49C177 49.5523 176.552 50 176 50C175.448 50 175 49.5523 175 49Z" fill="#C4C4C4"/>
<path d="M159 49C159 48.4477 159.448 48 160 48C160.552 48 161 48.4477 161 49C161 49.5523 160.552 50 160 50C159.448 50 159 49.5523 159 49Z" fill="#C4C4C4"/>
<path d="M223 33C223 32.4477 223.448 32 224 32C224.552 32 225 32.4477 225 33C225 33.5523 224.552 34 224 34C223.448 34 223 33.5523 223 33Z" fill="#C4C4C4"/>
<path d="M207 33C207 32.4477 207.448 32 208 32C208.552 32 209 32.4477 209 33C209 33.5523 208.552 34 208 34C207.448 34 207 33.5523 207 33Z" fill="#C4C4C4"/>
<path d="M191 33C191 32.4477 191.448 32 192 32C192.552 32 193 32.4477 193 33C193 33.5523 192.552 34 192 34C191.448 34 191 33.5523 191 33Z" fill="#C4C4C4"/>
<path d="M175 33C175 32.4477 175.448 32 176 32C176.552 32 177 32.4477 177 33C177 33.5523 176.552 34 176 34C175.448 34 175 33.5523 175 33Z" fill="#C4C4C4"/>
<path d="M159 33C159 32.4477 159.448 32 160 32C160.552 32 161 32.4477 161 33C161 33.5523 160.552 34 160 34C159.448 34 159 33.5523 159 33Z" fill="#C4C4C4"/>
<path d="M223 17C223 16.4477 223.448 16 224 16C224.552 16 225 16.4477 225 17C225 17.5523 224.552 18 224 18C223.448 18 223 17.5523 223 17Z" fill="#C4C4C4"/>
<path d="M207 17C207 16.4477 207.448 16 208 16C208.552 16 209 16.4477 209 17C209 17.5523 208.552 18 208 18C207.448 18 207 17.5523 207 17Z" fill="#C4C4C4"/>
<path d="M191 17C191 16.4477 191.448 16 192 16C192.552 16 193 16.4477 193 17C193 17.5523 192.552 18 192 18C191.448 18 191 17.5523 191 17Z" fill="#C4C4C4"/>
<path d="M175 17C175 16.4477 175.448 16 176 16C176.552 16 177 16.4477 177 17C177 17.5523 176.552 18 176 18C175.448 18 175 17.5523 175 17Z" fill="#C4C4C4"/>
<path d="M159 17C159 16.4477 159.448 16 160 16C160.552 16 161 16.4477 161 17C161 17.5523 160.552 18 160 18C159.448 18 159 17.5523 159 17Z" fill="#C4C4C4"/>
<path d="M223 0.999993C223 0.447701 223.448 -7.12953e-06 224 -7.08124e-06C224.552 -7.03296e-06 225 0.447701 225 0.999993C225 1.55228 224.552 1.99999 224 1.99999C223.448 1.99999 223 1.55228 223 0.999993Z" fill="#C4C4C4"/>
<path d="M207 0.999991C207 0.4477 207.448 -8.52829e-06 208 -8.48001e-06C208.552 -8.43173e-06 209 0.4477 209 0.999992C209 1.55228 208.552 1.99999 208 1.99999C207.448 1.99999 207 1.55228 207 0.999991Z" fill="#C4C4C4"/>
<path d="M191 0.99999C191 0.447698 191.448 -9.92706e-06 192 -9.87877e-06C192.552 -9.83049e-06 193 0.447698 193 0.99999C193 1.55228 192.552 1.99999 192 1.99999C191.448 1.99999 191 1.55228 191 0.99999Z" fill="#C4C4C4"/>
<path d="M175 0.999989C175 0.447697 175.448 -1.13258e-05 176 -1.12775e-05C176.552 -1.12293e-05 177 0.447697 177 0.999989C177 1.55228 176.552 1.99999 176 1.99999C175.448 1.99999 175 1.55228 175 0.999989Z" fill="#C4C4C4"/>
<path d="M159 0.999987C159 0.447695 159.448 -1.27246e-05 160 -1.26763e-05C160.552 -1.2628e-05 161 0.447696 161 0.999987C161 1.55228 160.552 1.99999 160 1.99999C159.448 1.99999 159 1.55228 159 0.999987Z" fill="#C4C4C4"/>
<path d="M-17 146C-17 145.448 -16.5523 145 -16 145C-15.4477 145 -15 145.448 -15 146C-15 146.552 -15.4477 147 -16 147C-16.5523 147 -17 146.552 -17 146Z" fill="#C4C4C4"/>
<path d="M-33 146C-33 145.448 -32.5523 145 -32 145C-31.4477 145 -31 145.448 -31 146C-31 146.552 -31.4477 147 -32 147C-32.5523 147 -33 146.552 -33 146Z" fill="#C4C4C4"/>
<path d="M-49 146C-49 145.448 -48.5523 145 -48 145C-47.4477 145 -47 145.448 -47 146C-47 146.552 -47.4477 147 -48 147C-48.5523 147 -49 146.552 -49 146Z" fill="#C4C4C4"/>
<path d="M-65 146C-65 145.448 -64.5523 145 -64 145C-63.4477 145 -63 145.448 -63 146C-63 146.552 -63.4477 147 -64 147C-64.5523 147 -65 146.552 -65 146Z" fill="#C4C4C4"/>
<path d="M-81 146C-81 145.448 -80.5523 145 -80 145C-79.4477 145 -79 145.448 -79 146C-79 146.552 -79.4477 147 -80 147C-80.5523 147 -81 146.552 -81 146Z" fill="#C4C4C4"/>
<path d="M-17 130C-17 129.448 -16.5523 129 -16 129C-15.4477 129 -15 129.448 -15 130C-15 130.552 -15.4477 131 -16 131C-16.5523 131 -17 130.552 -17 130Z" fill="#C4C4C4"/>
<path d="M-33 130C-33 129.448 -32.5523 129 -32 129C-31.4477 129 -31 129.448 -31 130C-31 130.552 -31.4477 131 -32 131C-32.5523 131 -33 130.552 -33 130Z" fill="#C4C4C4"/>
<path d="M-49 130C-49 129.448 -48.5523 129 -48 129C-47.4477 129 -47 129.448 -47 130C-47 130.552 -47.4477 131 -48 131C-48.5523 131 -49 130.552 -49 130Z" fill="#C4C4C4"/>
<path d="M-65 130C-65 129.448 -64.5523 129 -64 129C-63.4477 129 -63 129.448 -63 130C-63 130.552 -63.4477 131 -64 131C-64.5523 131 -65 130.552 -65 130Z" fill="#C4C4C4"/>
<path d="M-81 130C-81 129.448 -80.5523 129 -80 129C-79.4477 129 -79 129.448 -79 130C-79 130.552 -79.4477 131 -80 131C-80.5523 131 -81 130.552 -81 130Z" fill="#C4C4C4"/>
<path d="M-17 114C-17 113.448 -16.5523 113 -16 113C-15.4477 113 -15 113.448 -15 114C-15 114.552 -15.4477 115 -16 115C-16.5523 115 -17 114.552 -17 114Z" fill="#C4C4C4"/>
<path d="M-33 114C-33 113.448 -32.5523 113 -32 113C-31.4477 113 -31 113.448 -31 114C-31 114.552 -31.4477 115 -32 115C-32.5523 115 -33 114.552 -33 114Z" fill="#C4C4C4"/>
<path d="M-49 114C-49 113.448 -48.5523 113 -48 113C-47.4477 113 -47 113.448 -47 114C-47 114.552 -47.4477 115 -48 115C-48.5523 115 -49 114.552 -49 114Z" fill="#C4C4C4"/>
<path d="M-65 114C-65 113.448 -64.5523 113 -64 113C-63.4477 113 -63 113.448 -63 114C-63 114.552 -63.4477 115 -64 115C-64.5523 115 -65 114.552 -65 114Z" fill="#C4C4C4"/>
<path d="M-81 114C-81 113.448 -80.5523 113 -80 113C-79.4477 113 -79 113.448 -79 114C-79 114.552 -79.4477 115 -80 115C-80.5523 115 -81 114.552 -81 114Z" fill="#C4C4C4"/>
<path d="M-17 98C-17 97.4477 -16.5523 97 -16 97C-15.4477 97 -15 97.4477 -15 98C-15 98.5523 -15.4477 99 -16 99C-16.5523 99 -17 98.5523 -17 98Z" fill="#C4C4C4"/>
<path d="M-33 98C-33 97.4477 -32.5523 97 -32 97C-31.4477 97 -31 97.4477 -31 98C-31 98.5523 -31.4477 99 -32 99C-32.5523 99 -33 98.5523 -33 98Z" fill="#C4C4C4"/>
<path d="M-49 98C-49 97.4477 -48.5523 97 -48 97C-47.4477 97 -47 97.4477 -47 98C-47 98.5523 -47.4477 99 -48 99C-48.5523 99 -49 98.5523 -49 98Z" fill="#C4C4C4"/>
<path d="M-65 98C-65 97.4477 -64.5523 97 -64 97C-63.4477 97 -63 97.4477 -63 98C-63 98.5523 -63.4477 99 -64 99C-64.5523 99 -65 98.5523 -65 98Z" fill="#C4C4C4"/>
<path d="M-81 98C-81 97.4477 -80.5523 97 -80 97C-79.4477 97 -79 97.4477 -79 98C-79 98.5523 -79.4477 99 -80 99C-80.5523 99 -81 98.5523 -81 98Z" fill="#C4C4C4"/>
<path d="M-17 82C-17 81.4477 -16.5523 81 -16 81C-15.4477 81 -15 81.4477 -15 82C-15 82.5523 -15.4477 83 -16 83C-16.5523 83 -17 82.5523 -17 82Z" fill="#C4C4C4"/>
<path d="M-33 82C-33 81.4477 -32.5523 81 -32 81C-31.4477 81 -31 81.4477 -31 82C-31 82.5523 -31.4477 83 -32 83C-32.5523 83 -33 82.5523 -33 82Z" fill="#C4C4C4"/>
<path d="M-49 82C-49 81.4477 -48.5523 81 -48 81C-47.4477 81 -47 81.4477 -47 82C-47 82.5523 -47.4477 83 -48 83C-48.5523 83 -49 82.5523 -49 82Z" fill="#C4C4C4"/>
<path d="M-65 82C-65 81.4477 -64.5523 81 -64 81C-63.4477 81 -63 81.4477 -63 82C-63 82.5523 -63.4477 83 -64 83C-64.5523 83 -65 82.5523 -65 82Z" fill="#C4C4C4"/>
<path d="M-81 82C-81 81.4477 -80.5523 81 -80 81C-79.4477 81 -79 81.4477 -79 82C-79 82.5523 -79.4477 83 -80 83C-80.5523 83 -81 82.5523 -81 82Z" fill="#C4C4C4"/>
<path d="M-97 146C-97 145.448 -96.5523 145 -96 145C-95.4477 145 -95 145.448 -95 146C-95 146.552 -95.4477 147 -96 147C-96.5523 147 -97 146.552 -97 146Z" fill="#C4C4C4"/>
<path d="M-113 146C-113 145.448 -112.552 145 -112 145C-111.448 145 -111 145.448 -111 146C-111 146.552 -111.448 147 -112 147C-112.552 147 -113 146.552 -113 146Z" fill="#C4C4C4"/>
<path d="M-129 146C-129 145.448 -128.552 145 -128 145C-127.448 145 -127 145.448 -127 146C-127 146.552 -127.448 147 -128 147C-128.552 147 -129 146.552 -129 146Z" fill="#C4C4C4"/>
<path d="M-145 146C-145 145.448 -144.552 145 -144 145C-143.448 145 -143 145.448 -143 146C-143 146.552 -143.448 147 -144 147C-144.552 147 -145 146.552 -145 146Z" fill="#C4C4C4"/>
<path d="M-161 146C-161 145.448 -160.552 145 -160 145C-159.448 145 -159 145.448 -159 146C-159 146.552 -159.448 147 -160 147C-160.552 147 -161 146.552 -161 146Z" fill="#C4C4C4"/>
<path d="M-97 130C-97 129.448 -96.5523 129 -96 129C-95.4477 129 -95 129.448 -95 130C-95 130.552 -95.4477 131 -96 131C-96.5523 131 -97 130.552 -97 130Z" fill="#C4C4C4"/>
<path d="M-113 130C-113 129.448 -112.552 129 -112 129C-111.448 129 -111 129.448 -111 130C-111 130.552 -111.448 131 -112 131C-112.552 131 -113 130.552 -113 130Z" fill="#C4C4C4"/>
<path d="M-129 130C-129 129.448 -128.552 129 -128 129C-127.448 129 -127 129.448 -127 130C-127 130.552 -127.448 131 -128 131C-128.552 131 -129 130.552 -129 130Z" fill="#C4C4C4"/>
<path d="M-145 130C-145 129.448 -144.552 129 -144 129C-143.448 129 -143 129.448 -143 130C-143 130.552 -143.448 131 -144 131C-144.552 131 -145 130.552 -145 130Z" fill="#C4C4C4"/>
<path d="M-161 130C-161 129.448 -160.552 129 -160 129C-159.448 129 -159 129.448 -159 130C-159 130.552 -159.448 131 -160 131C-160.552 131 -161 130.552 -161 130Z" fill="#C4C4C4"/>
<path d="M-97 114C-97 113.448 -96.5523 113 -96 113C-95.4477 113 -95 113.448 -95 114C-95 114.552 -95.4477 115 -96 115C-96.5523 115 -97 114.552 -97 114Z" fill="#C4C4C4"/>
<path d="M-113 114C-113 113.448 -112.552 113 -112 113C-111.448 113 -111 113.448 -111 114C-111 114.552 -111.448 115 -112 115C-112.552 115 -113 114.552 -113 114Z" fill="#C4C4C4"/>
<path d="M-129 114C-129 113.448 -128.552 113 -128 113C-127.448 113 -127 113.448 -127 114C-127 114.552 -127.448 115 -128 115C-128.552 115 -129 114.552 -129 114Z" fill="#C4C4C4"/>
<path d="M-145 114C-145 113.448 -144.552 113 -144 113C-143.448 113 -143 113.448 -143 114C-143 114.552 -143.448 115 -144 115C-144.552 115 -145 114.552 -145 114Z" fill="#C4C4C4"/>
<path d="M-161 114C-161 113.448 -160.552 113 -160 113C-159.448 113 -159 113.448 -159 114C-159 114.552 -159.448 115 -160 115C-160.552 115 -161 114.552 -161 114Z" fill="#C4C4C4"/>
<path d="M-97 98C-97 97.4477 -96.5523 97 -96 97C-95.4477 97 -95 97.4477 -95 98C-95 98.5523 -95.4477 99 -96 99C-96.5523 99 -97 98.5523 -97 98Z" fill="#C4C4C4"/>
<path d="M-113 98C-113 97.4477 -112.552 97 -112 97C-111.448 97 -111 97.4477 -111 98C-111 98.5523 -111.448 99 -112 99C-112.552 99 -113 98.5523 -113 98Z" fill="#C4C4C4"/>
<path d="M-129 98C-129 97.4477 -128.552 97 -128 97C-127.448 97 -127 97.4477 -127 98C-127 98.5523 -127.448 99 -128 99C-128.552 99 -129 98.5523 -129 98Z" fill="#C4C4C4"/>
<path d="M-145 98C-145 97.4477 -144.552 97 -144 97C-143.448 97 -143 97.4477 -143 98C-143 98.5523 -143.448 99 -144 99C-144.552 99 -145 98.5523 -145 98Z" fill="#C4C4C4"/>
<path d="M-161 98C-161 97.4477 -160.552 97 -160 97C-159.448 97 -159 97.4477 -159 98C-159 98.5523 -159.448 99 -160 99C-160.552 99 -161 98.5523 -161 98Z" fill="#C4C4C4"/>
<path d="M-97 82C-97 81.4477 -96.5523 81 -96 81C-95.4477 81 -95 81.4477 -95 82C-95 82.5523 -95.4477 83 -96 83C-96.5523 83 -97 82.5523 -97 82Z" fill="#C4C4C4"/>
<path d="M-113 82C-113 81.4477 -112.552 81 -112 81C-111.448 81 -111 81.4477 -111 82C-111 82.5523 -111.448 83 -112 83C-112.552 83 -113 82.5523 -113 82Z" fill="#C4C4C4"/>
<path d="M-129 82C-129 81.4477 -128.552 81 -128 81C-127.448 81 -127 81.4477 -127 82C-127 82.5523 -127.448 83 -128 83C-128.552 83 -129 82.5523 -129 82Z" fill="#C4C4C4"/>
<path d="M-145 82C-145 81.4477 -144.552 81 -144 81C-143.448 81 -143 81.4477 -143 82C-143 82.5523 -143.448 83 -144 83C-144.552 83 -145 82.5523 -145 82Z" fill="#C4C4C4"/>
<path d="M-161 82C-161 81.4477 -160.552 81 -160 81C-159.448 81 -159 81.4477 -159 82C-159 82.5523 -159.448 83 -160 83C-160.552 83 -161 82.5523 -161 82Z" fill="#C4C4C4"/>
<path d="M-177 146C-177 145.448 -176.552 145 -176 145C-175.448 145 -175 145.448 -175 146C-175 146.552 -175.448 147 -176 147C-176.552 147 -177 146.552 -177 146Z" fill="#C4C4C4"/>
<path d="M-193 146C-193 145.448 -192.552 145 -192 145C-191.448 145 -191 145.448 -191 146C-191 146.552 -191.448 147 -192 147C-192.552 147 -193 146.552 -193 146Z" fill="#C4C4C4"/>
<path d="M-209 146C-209 145.448 -208.552 145 -208 145C-207.448 145 -207 145.448 -207 146C-207 146.552 -207.448 147 -208 147C-208.552 147 -209 146.552 -209 146Z" fill="#C4C4C4"/>
<path d="M-225 146C-225 145.448 -224.552 145 -224 145C-223.448 145 -223 145.448 -223 146C-223 146.552 -223.448 147 -224 147C-224.552 147 -225 146.552 -225 146Z" fill="#C4C4C4"/>
<path d="M-241 146C-241 145.448 -240.552 145 -240 145C-239.448 145 -239 145.448 -239 146C-239 146.552 -239.448 147 -240 147C-240.552 147 -241 146.552 -241 146Z" fill="#C4C4C4"/>
<path d="M-177 130C-177 129.448 -176.552 129 -176 129C-175.448 129 -175 129.448 -175 130C-175 130.552 -175.448 131 -176 131C-176.552 131 -177 130.552 -177 130Z" fill="#C4C4C4"/>
<path d="M-193 130C-193 129.448 -192.552 129 -192 129C-191.448 129 -191 129.448 -191 130C-191 130.552 -191.448 131 -192 131C-192.552 131 -193 130.552 -193 130Z" fill="#C4C4C4"/>
<path d="M-209 130C-209 129.448 -208.552 129 -208 129C-207.448 129 -207 129.448 -207 130C-207 130.552 -207.448 131 -208 131C-208.552 131 -209 130.552 -209 130Z" fill="#C4C4C4"/>
<path d="M-225 130C-225 129.448 -224.552 129 -224 129C-223.448 129 -223 129.448 -223 130C-223 130.552 -223.448 131 -224 131C-224.552 131 -225 130.552 -225 130Z" fill="#C4C4C4"/>
<path d="M-241 130C-241 129.448 -240.552 129 -240 129C-239.448 129 -239 129.448 -239 130C-239 130.552 -239.448 131 -240 131C-240.552 131 -241 130.552 -241 130Z" fill="#C4C4C4"/>
<path d="M-177 114C-177 113.448 -176.552 113 -176 113C-175.448 113 -175 113.448 -175 114C-175 114.552 -175.448 115 -176 115C-176.552 115 -177 114.552 -177 114Z" fill="#C4C4C4"/>
<path d="M-193 114C-193 113.448 -192.552 113 -192 113C-191.448 113 -191 113.448 -191 114C-191 114.552 -191.448 115 -192 115C-192.552 115 -193 114.552 -193 114Z" fill="#C4C4C4"/>
<path d="M-209 114C-209 113.448 -208.552 113 -208 113C-207.448 113 -207 113.448 -207 114C-207 114.552 -207.448 115 -208 115C-208.552 115 -209 114.552 -209 114Z" fill="#C4C4C4"/>
<path d="M-225 114C-225 113.448 -224.552 113 -224 113C-223.448 113 -223 113.448 -223 114C-223 114.552 -223.448 115 -224 115C-224.552 115 -225 114.552 -225 114Z" fill="#C4C4C4"/>
<path d="M-241 114C-241 113.448 -240.552 113 -240 113C-239.448 113 -239 113.448 -239 114C-239 114.552 -239.448 115 -240 115C-240.552 115 -241 114.552 -241 114Z" fill="#C4C4C4"/>
<path d="M-177 98C-177 97.4477 -176.552 97 -176 97C-175.448 97 -175 97.4477 -175 98C-175 98.5522 -175.448 99 -176 99C-176.552 99 -177 98.5522 -177 98Z" fill="#C4C4C4"/>
<path d="M-193 98C-193 97.4477 -192.552 97 -192 97C-191.448 97 -191 97.4477 -191 98C-191 98.5522 -191.448 99 -192 99C-192.552 99 -193 98.5522 -193 98Z" fill="#C4C4C4"/>
<path d="M-209 98C-209 97.4477 -208.552 97 -208 97C-207.448 97 -207 97.4477 -207 98C-207 98.5522 -207.448 99 -208 99C-208.552 99 -209 98.5522 -209 98Z" fill="#C4C4C4"/>
<path d="M-225 98C-225 97.4477 -224.552 97 -224 97C-223.448 97 -223 97.4477 -223 98C-223 98.5522 -223.448 99 -224 99C-224.552 99 -225 98.5522 -225 98Z" fill="#C4C4C4"/>
<path d="M-241 98C-241 97.4477 -240.552 97 -240 97C-239.448 97 -239 97.4477 -239 98C-239 98.5522 -239.448 99 -240 99C-240.552 99 -241 98.5522 -241 98Z" fill="#C4C4C4"/>
<path d="M-177 82C-177 81.4477 -176.552 81 -176 81C-175.448 81 -175 81.4477 -175 82C-175 82.5522 -175.448 83 -176 83C-176.552 83 -177 82.5522 -177 82Z" fill="#C4C4C4"/>
<path d="M-193 82C-193 81.4477 -192.552 81 -192 81C-191.448 81 -191 81.4477 -191 82C-191 82.5522 -191.448 83 -192 83C-192.552 83 -193 82.5522 -193 82Z" fill="#C4C4C4"/>
<path d="M-209 82C-209 81.4477 -208.552 81 -208 81C-207.448 81 -207 81.4477 -207 82C-207 82.5522 -207.448 83 -208 83C-208.552 83 -209 82.5522 -209 82Z" fill="#C4C4C4"/>
<path d="M-225 82C-225 81.4477 -224.552 81 -224 81C-223.448 81 -223 81.4477 -223 82C-223 82.5522 -223.448 83 -224 83C-224.552 83 -225 82.5522 -225 82Z" fill="#C4C4C4"/>
<path d="M-241 82C-241 81.4477 -240.552 81 -240 81C-239.448 81 -239 81.4477 -239 82C-239 82.5522 -239.448 83 -240 83C-240.552 83 -241 82.5522 -241 82Z" fill="#C4C4C4"/>
<path d="M143 146C143 145.448 143.448 145 144 145C144.552 145 145 145.448 145 146C145 146.552 144.552 147 144 147C143.448 147 143 146.552 143 146Z" fill="#C4C4C4"/>
<path d="M127 146C127 145.448 127.448 145 128 145C128.552 145 129 145.448 129 146C129 146.552 128.552 147 128 147C127.448 147 127 146.552 127 146Z" fill="#C4C4C4"/>
<path d="M111 146C111 145.448 111.448 145 112 145C112.552 145 113 145.448 113 146C113 146.552 112.552 147 112 147C111.448 147 111 146.552 111 146Z" fill="#C4C4C4"/>
<path d="M95 146C95 145.448 95.4477 145 96 145C96.5523 145 97 145.448 97 146C97 146.552 96.5523 147 96 147C95.4477 147 95 146.552 95 146Z" fill="#C4C4C4"/>
<path d="M79 146C79 145.448 79.4477 145 80 145C80.5523 145 81 145.448 81 146C81 146.552 80.5523 147 80 147C79.4477 147 79 146.552 79 146Z" fill="#C4C4C4"/>
<path d="M143 130C143 129.448 143.448 129 144 129C144.552 129 145 129.448 145 130C145 130.552 144.552 131 144 131C143.448 131 143 130.552 143 130Z" fill="#C4C4C4"/>
<path d="M127 130C127 129.448 127.448 129 128 129C128.552 129 129 129.448 129 130C129 130.552 128.552 131 128 131C127.448 131 127 130.552 127 130Z" fill="#C4C4C4"/>
<path d="M111 130C111 129.448 111.448 129 112 129C112.552 129 113 129.448 113 130C113 130.552 112.552 131 112 131C111.448 131 111 130.552 111 130Z" fill="#C4C4C4"/>
<path d="M95 130C95 129.448 95.4477 129 96 129C96.5523 129 97 129.448 97 130C97 130.552 96.5523 131 96 131C95.4477 131 95 130.552 95 130Z" fill="#C4C4C4"/>
<path d="M79 130C79 129.448 79.4477 129 80 129C80.5523 129 81 129.448 81 130C81 130.552 80.5523 131 80 131C79.4477 131 79 130.552 79 130Z" fill="#C4C4C4"/>
<path d="M143 114C143 113.448 143.448 113 144 113C144.552 113 145 113.448 145 114C145 114.552 144.552 115 144 115C143.448 115 143 114.552 143 114Z" fill="#C4C4C4"/>
<path d="M127 114C127 113.448 127.448 113 128 113C128.552 113 129 113.448 129 114C129 114.552 128.552 115 128 115C127.448 115 127 114.552 127 114Z" fill="#C4C4C4"/>
<path d="M111 114C111 113.448 111.448 113 112 113C112.552 113 113 113.448 113 114C113 114.552 112.552 115 112 115C111.448 115 111 114.552 111 114Z" fill="#C4C4C4"/>
<path d="M95 114C95 113.448 95.4477 113 96 113C96.5523 113 97 113.448 97 114C97 114.552 96.5523 115 96 115C95.4477 115 95 114.552 95 114Z" fill="#C4C4C4"/>
<path d="M79 114C79 113.448 79.4477 113 80 113C80.5523 113 81 113.448 81 114C81 114.552 80.5523 115 80 115C79.4477 115 79 114.552 79 114Z" fill="#C4C4C4"/>
<path d="M143 98C143 97.4477 143.448 97 144 97C144.552 97 145 97.4477 145 98C145 98.5523 144.552 99 144 99C143.448 99 143 98.5523 143 98Z" fill="#C4C4C4"/>
<path d="M127 98C127 97.4477 127.448 97 128 97C128.552 97 129 97.4477 129 98C129 98.5523 128.552 99 128 99C127.448 99 127 98.5523 127 98Z" fill="#C4C4C4"/>
<path d="M111 98C111 97.4477 111.448 97 112 97C112.552 97 113 97.4477 113 98C113 98.5523 112.552 99 112 99C111.448 99 111 98.5523 111 98Z" fill="#C4C4C4"/>
<path d="M95 98C95 97.4477 95.4477 97 96 97C96.5523 97 97 97.4477 97 98C97 98.5523 96.5523 99 96 99C95.4477 99 95 98.5523 95 98Z" fill="#C4C4C4"/>
<path d="M79 98C79 97.4477 79.4477 97 80 97C80.5523 97 81 97.4477 81 98C81 98.5523 80.5523 99 80 99C79.4477 99 79 98.5523 79 98Z" fill="#C4C4C4"/>
<path d="M143 82C143 81.4477 143.448 81 144 81C144.552 81 145 81.4477 145 82C145 82.5523 144.552 83 144 83C143.448 83 143 82.5523 143 82Z" fill="#C4C4C4"/>
<path d="M127 82C127 81.4477 127.448 81 128 81C128.552 81 129 81.4477 129 82C129 82.5523 128.552 83 128 83C127.448 83 127 82.5523 127 82Z" fill="#C4C4C4"/>
<path d="M111 82C111 81.4477 111.448 81 112 81C112.552 81 113 81.4477 113 82C113 82.5523 112.552 83 112 83C111.448 83 111 82.5523 111 82Z" fill="#C4C4C4"/>
<path d="M95 82C95 81.4477 95.4477 81 96 81C96.5523 81 97 81.4477 97 82C97 82.5523 96.5523 83 96 83C95.4477 83 95 82.5523 95 82Z" fill="#C4C4C4"/>
<path d="M79 82C79 81.4477 79.4477 81 80 81C80.5523 81 81 81.4477 81 82C81 82.5523 80.5523 83 80 83C79.4477 83 79 82.5523 79 82Z" fill="#C4C4C4"/>
<path d="M63 146C63 145.448 63.4477 145 64 145C64.5523 145 65 145.448 65 146C65 146.552 64.5523 147 64 147C63.4477 147 63 146.552 63 146Z" fill="#C4C4C4"/>
<path d="M47 146C47 145.448 47.4477 145 48 145C48.5523 145 49 145.448 49 146C49 146.552 48.5523 147 48 147C47.4477 147 47 146.552 47 146Z" fill="#C4C4C4"/>
<path d="M31 146C31 145.448 31.4477 145 32 145C32.5523 145 33 145.448 33 146C33 146.552 32.5523 147 32 147C31.4477 147 31 146.552 31 146Z" fill="#C4C4C4"/>
<path d="M15 146C15 145.448 15.4477 145 16 145C16.5523 145 17 145.448 17 146C17 146.552 16.5523 147 16 147C15.4477 147 15 146.552 15 146Z" fill="#C4C4C4"/>
<path d="M-0.999993 146C-0.999993 145.448 -0.552269 145 7.16867e-06 145C0.552284 145 1.00001 145.448 1.00001 146C1.00001 146.552 0.552284 147 6.99382e-06 147C-0.55227 147 -0.999993 146.552 -0.999993 146Z" fill="#C4C4C4"/>
<path d="M63 130C63 129.448 63.4477 129 64 129C64.5523 129 65 129.448 65 130C65 130.552 64.5523 131 64 131C63.4477 131 63 130.552 63 130Z" fill="#C4C4C4"/>
<path d="M47 130C47 129.448 47.4477 129 48 129C48.5523 129 49 129.448 49 130C49 130.552 48.5523 131 48 131C47.4477 131 47 130.552 47 130Z" fill="#C4C4C4"/>
<path d="M31 130C31 129.448 31.4477 129 32 129C32.5523 129 33 129.448 33 130C33 130.552 32.5523 131 32 131C31.4477 131 31 130.552 31 130Z" fill="#C4C4C4"/>
<path d="M15 130C15 129.448 15.4477 129 16 129C16.5523 129 17 129.448 17 130C17 130.552 16.5523 131 16 131C15.4477 131 15 130.552 15 130Z" fill="#C4C4C4"/>
<path d="M-0.999992 130C-0.999991 129.448 -0.552268 129 8.56743e-06 129C0.552285 129 1.00001 129.448 1.00001 130C1.00001 130.552 0.552285 131 8.39259e-06 131C-0.552268 131 -0.999992 130.552 -0.999992 130Z" fill="#C4C4C4"/>
<path d="M63 114C63 113.448 63.4477 113 64 113C64.5523 113 65 113.448 65 114C65 114.552 64.5523 115 64 115C63.4477 115 63 114.552 63 114Z" fill="#C4C4C4"/>
<path d="M47 114C47 113.448 47.4477 113 48 113C48.5523 113 49 113.448 49 114C49 114.552 48.5523 115 48 115C47.4477 115 47 114.552 47 114Z" fill="#C4C4C4"/>
<path d="M31 114C31 113.448 31.4477 113 32 113C32.5523 113 33 113.448 33 114C33 114.552 32.5523 115 32 115C31.4477 115 31 114.552 31 114Z" fill="#C4C4C4"/>
<path d="M15 114C15 113.448 15.4477 113 16 113C16.5523 113 17 113.448 17 114C17 114.552 16.5523 115 16 115C15.4477 115 15 114.552 15 114Z" fill="#C4C4C4"/>
<path d="M-0.99999 114C-0.99999 113.448 -0.552267 113 9.9662e-06 113C0.552287 113 1.00001 113.448 1.00001 114C1.00001 114.552 0.552286 115 9.79135e-06 115C-0.552267 115 -0.99999 114.552 -0.99999 114Z" fill="#C4C4C4"/>
<path d="M63 98C63 97.4477 63.4477 97 64 97C64.5523 97 65 97.4477 65 98C65 98.5523 64.5523 99 64 99C63.4477 99 63 98.5523 63 98Z" fill="#C4C4C4"/>
<path d="M47 98C47 97.4477 47.4477 97 48 97C48.5523 97 49 97.4477 49 98C49 98.5523 48.5523 99 48 99C47.4477 99 47 98.5523 47 98Z" fill="#C4C4C4"/>
<path d="M31 98C31 97.4477 31.4477 97 32 97C32.5523 97 33 97.4477 33 98C33 98.5523 32.5523 99 32 99C31.4477 99 31 98.5523 31 98Z" fill="#C4C4C4"/>
<path d="M15 98C15 97.4477 15.4477 97 16 97C16.5523 97 17 97.4477 17 98C17 98.5523 16.5523 99 16 99C15.4477 99 15 98.5523 15 98Z" fill="#C4C4C4"/>
<path d="M-0.999989 98C-0.999989 97.4477 -0.552265 97 1.1365e-05 97C0.552288 97 1.00001 97.4477 1.00001 98C1.00001 98.5523 0.552288 99 1.11901e-05 99C-0.552265 99 -0.999989 98.5523 -0.999989 98Z" fill="#C4C4C4"/>
<path d="M63 82C63 81.4477 63.4477 81 64 81C64.5523 81 65 81.4477 65 82C65 82.5523 64.5523 83 64 83C63.4477 83 63 82.5523 63 82Z" fill="#C4C4C4"/>
<path d="M47 82C47 81.4477 47.4477 81 48 81C48.5523 81 49 81.4477 49 82C49 82.5523 48.5523 83 48 83C47.4477 83 47 82.5523 47 82Z" fill="#C4C4C4"/>
<path d="M31 82C31 81.4477 31.4477 81 32 81C32.5523 81 33 81.4477 33 82C33 82.5523 32.5523 83 32 83C31.4477 83 31 82.5523 31 82Z" fill="#C4C4C4"/>
<path d="M15 82C15 81.4477 15.4477 81 16 81C16.5523 81 17 81.4477 17 82C17 82.5523 16.5523 83 16 83C15.4477 83 15 82.5523 15 82Z" fill="#C4C4C4"/>
<path d="M-0.999987 82C-0.999987 81.4477 -0.552264 81 1.27637e-05 81C0.552289 81 1.00001 81.4477 1.00001 82C1.00001 82.5523 0.552289 83 1.25889e-05 83C-0.552264 83 -0.999987 82.5523 -0.999987 82Z" fill="#C4C4C4"/>
<path d="M303 146C303 145.448 303.448 145 304 145C304.552 145 305 145.448 305 146C305 146.552 304.552 147 304 147C303.448 147 303 146.552 303 146Z" fill="#C4C4C4"/>
<path d="M287 146C287 145.448 287.448 145 288 145C288.552 145 289 145.448 289 146C289 146.552 288.552 147 288 147C287.448 147 287 146.552 287 146Z" fill="#C4C4C4"/>
<path d="M271 146C271 145.448 271.448 145 272 145C272.552 145 273 145.448 273 146C273 146.552 272.552 147 272 147C271.448 147 271 146.552 271 146Z" fill="#C4C4C4"/>
<path d="M255 146C255 145.448 255.448 145 256 145C256.552 145 257 145.448 257 146C257 146.552 256.552 147 256 147C255.448 147 255 146.552 255 146Z" fill="#C4C4C4"/>
<path d="M239 146C239 145.448 239.448 145 240 145C240.552 145 241 145.448 241 146C241 146.552 240.552 147 240 147C239.448 147 239 146.552 239 146Z" fill="#C4C4C4"/>
<path d="M303 130C303 129.448 303.448 129 304 129C304.552 129 305 129.448 305 130C305 130.552 304.552 131 304 131C303.448 131 303 130.552 303 130Z" fill="#C4C4C4"/>
<path d="M287 130C287 129.448 287.448 129 288 129C288.552 129 289 129.448 289 130C289 130.552 288.552 131 288 131C287.448 131 287 130.552 287 130Z" fill="#C4C4C4"/>
<path d="M271 130C271 129.448 271.448 129 272 129C272.552 129 273 129.448 273 130C273 130.552 272.552 131 272 131C271.448 131 271 130.552 271 130Z" fill="#C4C4C4"/>
<path d="M255 130C255 129.448 255.448 129 256 129C256.552 129 257 129.448 257 130C257 130.552 256.552 131 256 131C255.448 131 255 130.552 255 130Z" fill="#C4C4C4"/>
<path d="M239 130C239 129.448 239.448 129 240 129C240.552 129 241 129.448 241 130C241 130.552 240.552 131 240 131C239.448 131 239 130.552 239 130Z" fill="#C4C4C4"/>
<path d="M303 114C303 113.448 303.448 113 304 113C304.552 113 305 113.448 305 114C305 114.552 304.552 115 304 115C303.448 115 303 114.552 303 114Z" fill="#C4C4C4"/>
<path d="M287 114C287 113.448 287.448 113 288 113C288.552 113 289 113.448 289 114C289 114.552 288.552 115 288 115C287.448 115 287 114.552 287 114Z" fill="#C4C4C4"/>
<path d="M271 114C271 113.448 271.448 113 272 113C272.552 113 273 113.448 273 114C273 114.552 272.552 115 272 115C271.448 115 271 114.552 271 114Z" fill="#C4C4C4"/>
<path d="M255 114C255 113.448 255.448 113 256 113C256.552 113 257 113.448 257 114C257 114.552 256.552 115 256 115C255.448 115 255 114.552 255 114Z" fill="#C4C4C4"/>
<path d="M239 114C239 113.448 239.448 113 240 113C240.552 113 241 113.448 241 114C241 114.552 240.552 115 240 115C239.448 115 239 114.552 239 114Z" fill="#C4C4C4"/>
<path d="M303 98C303 97.4477 303.448 97 304 97C304.552 97 305 97.4477 305 98C305 98.5523 304.552 99 304 99C303.448 99 303 98.5523 303 98Z" fill="#C4C4C4"/>
<path d="M287 98C287 97.4477 287.448 97 288 97C288.552 97 289 97.4477 289 98C289 98.5523 288.552 99 288 99C287.448 99 287 98.5523 287 98Z" fill="#C4C4C4"/>
<path d="M271 98C271 97.4477 271.448 97 272 97C272.552 97 273 97.4477 273 98C273 98.5523 272.552 99 272 99C271.448 99 271 98.5523 271 98Z" fill="#C4C4C4"/>
<path d="M255 98C255 97.4477 255.448 97 256 97C256.552 97 257 97.4477 257 98C257 98.5523 256.552 99 256 99C255.448 99 255 98.5523 255 98Z" fill="#C4C4C4"/>
<path d="M239 98C239 97.4477 239.448 97 240 97C240.552 97 241 97.4477 241 98C241 98.5523 240.552 99 240 99C239.448 99 239 98.5523 239 98Z" fill="#C4C4C4"/>
<path d="M303 82C303 81.4477 303.448 81 304 81C304.552 81 305 81.4477 305 82C305 82.5523 304.552 83 304 83C303.448 83 303 82.5523 303 82Z" fill="#C4C4C4"/>
<path d="M287 82C287 81.4477 287.448 81 288 81C288.552 81 289 81.4477 289 82C289 82.5523 288.552 83 288 83C287.448 83 287 82.5523 287 82Z" fill="#C4C4C4"/>
<path d="M271 82C271 81.4477 271.448 81 272 81C272.552 81 273 81.4477 273 82C273 82.5523 272.552 83 272 83C271.448 83 271 82.5523 271 82Z" fill="#C4C4C4"/>
<path d="M255 82C255 81.4477 255.448 81 256 81C256.552 81 257 81.4477 257 82C257 82.5523 256.552 83 256 83C255.448 83 255 82.5523 255 82Z" fill="#C4C4C4"/>
<path d="M239 82C239 81.4477 239.448 81 240 81C240.552 81 241 81.4477 241 82C241 82.5523 240.552 83 240 83C239.448 83 239 82.5523 239 82Z" fill="#C4C4C4"/>
<path d="M223 146C223 145.448 223.448 145 224 145C224.552 145 225 145.448 225 146C225 146.552 224.552 147 224 147C223.448 147 223 146.552 223 146Z" fill="#C4C4C4"/>
<path d="M207 146C207 145.448 207.448 145 208 145C208.552 145 209 145.448 209 146C209 146.552 208.552 147 208 147C207.448 147 207 146.552 207 146Z" fill="#C4C4C4"/>
<path d="M191 146C191 145.448 191.448 145 192 145C192.552 145 193 145.448 193 146C193 146.552 192.552 147 192 147C191.448 147 191 146.552 191 146Z" fill="#C4C4C4"/>
<path d="M175 146C175 145.448 175.448 145 176 145C176.552 145 177 145.448 177 146C177 146.552 176.552 147 176 147C175.448 147 175 146.552 175 146Z" fill="#C4C4C4"/>
<path d="M159 146C159 145.448 159.448 145 160 145C160.552 145 161 145.448 161 146C161 146.552 160.552 147 160 147C159.448 147 159 146.552 159 146Z" fill="#C4C4C4"/>
<path d="M223 130C223 129.448 223.448 129 224 129C224.552 129 225 129.448 225 130C225 130.552 224.552 131 224 131C223.448 131 223 130.552 223 130Z" fill="#C4C4C4"/>
<path d="M207 130C207 129.448 207.448 129 208 129C208.552 129 209 129.448 209 130C209 130.552 208.552 131 208 131C207.448 131 207 130.552 207 130Z" fill="#C4C4C4"/>
<path d="M191 130C191 129.448 191.448 129 192 129C192.552 129 193 129.448 193 130C193 130.552 192.552 131 192 131C191.448 131 191 130.552 191 130Z" fill="#C4C4C4"/>
<path d="M175 130C175 129.448 175.448 129 176 129C176.552 129 177 129.448 177 130C177 130.552 176.552 131 176 131C175.448 131 175 130.552 175 130Z" fill="#C4C4C4"/>
<path d="M159 130C159 129.448 159.448 129 160 129C160.552 129 161 129.448 161 130C161 130.552 160.552 131 160 131C159.448 131 159 130.552 159 130Z" fill="#C4C4C4"/>
<path d="M223 114C223 113.448 223.448 113 224 113C224.552 113 225 113.448 225 114C225 114.552 224.552 115 224 115C223.448 115 223 114.552 223 114Z" fill="#C4C4C4"/>
<path d="M207 114C207 113.448 207.448 113 208 113C208.552 113 209 113.448 209 114C209 114.552 208.552 115 208 115C207.448 115 207 114.552 207 114Z" fill="#C4C4C4"/>
<path d="M191 114C191 113.448 191.448 113 192 113C192.552 113 193 113.448 193 114C193 114.552 192.552 115 192 115C191.448 115 191 114.552 191 114Z" fill="#C4C4C4"/>
<path d="M175 114C175 113.448 175.448 113 176 113C176.552 113 177 113.448 177 114C177 114.552 176.552 115 176 115C175.448 115 175 114.552 175 114Z" fill="#C4C4C4"/>
<path d="M159 114C159 113.448 159.448 113 160 113C160.552 113 161 113.448 161 114C161 114.552 160.552 115 160 115C159.448 115 159 114.552 159 114Z" fill="#C4C4C4"/>
<path d="M223 98C223 97.4477 223.448 97 224 97C224.552 97 225 97.4477 225 98C225 98.5523 224.552 99 224 99C223.448 99 223 98.5523 223 98Z" fill="#C4C4C4"/>
<path d="M207 98C207 97.4477 207.448 97 208 97C208.552 97 209 97.4477 209 98C209 98.5523 208.552 99 208 99C207.448 99 207 98.5523 207 98Z" fill="#C4C4C4"/>
<path d="M191 98C191 97.4477 191.448 97 192 97C192.552 97 193 97.4477 193 98C193 98.5523 192.552 99 192 99C191.448 99 191 98.5523 191 98Z" fill="#C4C4C4"/>
<path d="M175 98C175 97.4477 175.448 97 176 97C176.552 97 177 97.4477 177 98C177 98.5523 176.552 99 176 99C175.448 99 175 98.5523 175 98Z" fill="#C4C4C4"/>
<path d="M159 98C159 97.4477 159.448 97 160 97C160.552 97 161 97.4477 161 98C161 98.5523 160.552 99 160 99C159.448 99 159 98.5523 159 98Z" fill="#C4C4C4"/>
<path d="M223 82C223 81.4477 223.448 81 224 81C224.552 81 225 81.4477 225 82C225 82.5523 224.552 83 224 83C223.448 83 223 82.5523 223 82Z" fill="#C4C4C4"/>
<path d="M207 82C207 81.4477 207.448 81 208 81C208.552 81 209 81.4477 209 82C209 82.5523 208.552 83 208 83C207.448 83 207 82.5523 207 82Z" fill="#C4C4C4"/>
<path d="M191 82C191 81.4477 191.448 81 192 81C192.552 81 193 81.4477 193 82C193 82.5523 192.552 83 192 83C191.448 83 191 82.5523 191 82Z" fill="#C4C4C4"/>
<path d="M175 82C175 81.4477 175.448 81 176 81C176.552 81 177 81.4477 177 82C177 82.5523 176.552 83 176 83C175.448 83 175 82.5523 175 82Z" fill="#C4C4C4"/>
<path d="M159 82C159 81.4477 159.448 81 160 81C160.552 81 161 81.4477 161 82C161 82.5523 160.552 83 160 83C159.448 83 159 82.5523 159 82Z" fill="#C4C4C4"/>
<path d="M-17 226C-17 225.448 -16.5523 225 -16 225C-15.4477 225 -15 225.448 -15 226C-15 226.552 -15.4477 227 -16 227C-16.5523 227 -17 226.552 -17 226Z" fill="#C4C4C4"/>
<path d="M-33 226C-33 225.448 -32.5523 225 -32 225C-31.4477 225 -31 225.448 -31 226C-31 226.552 -31.4477 227 -32 227C-32.5523 227 -33 226.552 -33 226Z" fill="#C4C4C4"/>
<path d="M-49 226C-49 225.448 -48.5523 225 -48 225C-47.4477 225 -47 225.448 -47 226C-47 226.552 -47.4477 227 -48 227C-48.5523 227 -49 226.552 -49 226Z" fill="#C4C4C4"/>
<path d="M-65 226C-65 225.448 -64.5523 225 -64 225C-63.4477 225 -63 225.448 -63 226C-63 226.552 -63.4477 227 -64 227C-64.5523 227 -65 226.552 -65 226Z" fill="#C4C4C4"/>
<path d="M-81 226C-81 225.448 -80.5523 225 -80 225C-79.4477 225 -79 225.448 -79 226C-79 226.552 -79.4477 227 -80 227C-80.5523 227 -81 226.552 -81 226Z" fill="#C4C4C4"/>
<path d="M-17 210C-17 209.448 -16.5523 209 -16 209C-15.4477 209 -15 209.448 -15 210C-15 210.552 -15.4477 211 -16 211C-16.5523 211 -17 210.552 -17 210Z" fill="#C4C4C4"/>
<path d="M-33 210C-33 209.448 -32.5523 209 -32 209C-31.4477 209 -31 209.448 -31 210C-31 210.552 -31.4477 211 -32 211C-32.5523 211 -33 210.552 -33 210Z" fill="#C4C4C4"/>
<path d="M-49 210C-49 209.448 -48.5523 209 -48 209C-47.4477 209 -47 209.448 -47 210C-47 210.552 -47.4477 211 -48 211C-48.5523 211 -49 210.552 -49 210Z" fill="#C4C4C4"/>
<path d="M-65 210C-65 209.448 -64.5523 209 -64 209C-63.4477 209 -63 209.448 -63 210C-63 210.552 -63.4477 211 -64 211C-64.5523 211 -65 210.552 -65 210Z" fill="#C4C4C4"/>
<path d="M-81 210C-81 209.448 -80.5523 209 -80 209C-79.4477 209 -79 209.448 -79 210C-79 210.552 -79.4477 211 -80 211C-80.5523 211 -81 210.552 -81 210Z" fill="#C4C4C4"/>
<path d="M-17 194C-17 193.448 -16.5523 193 -16 193C-15.4477 193 -15 193.448 -15 194C-15 194.552 -15.4477 195 -16 195C-16.5523 195 -17 194.552 -17 194Z" fill="#C4C4C4"/>
<path d="M-33 194C-33 193.448 -32.5523 193 -32 193C-31.4477 193 -31 193.448 -31 194C-31 194.552 -31.4477 195 -32 195C-32.5523 195 -33 194.552 -33 194Z" fill="#C4C4C4"/>
<path d="M-49 194C-49 193.448 -48.5523 193 -48 193C-47.4477 193 -47 193.448 -47 194C-47 194.552 -47.4477 195 -48 195C-48.5523 195 -49 194.552 -49 194Z" fill="#C4C4C4"/>
<path d="M-65 194C-65 193.448 -64.5523 193 -64 193C-63.4477 193 -63 193.448 -63 194C-63 194.552 -63.4477 195 -64 195C-64.5523 195 -65 194.552 -65 194Z" fill="#C4C4C4"/>
<path d="M-81 194C-81 193.448 -80.5523 193 -80 193C-79.4477 193 -79 193.448 -79 194C-79 194.552 -79.4477 195 -80 195C-80.5523 195 -81 194.552 -81 194Z" fill="#C4C4C4"/>
<path d="M-17 178C-17 177.448 -16.5523 177 -16 177C-15.4477 177 -15 177.448 -15 178C-15 178.552 -15.4477 179 -16 179C-16.5523 179 -17 178.552 -17 178Z" fill="#C4C4C4"/>
<path d="M-33 178C-33 177.448 -32.5523 177 -32 177C-31.4477 177 -31 177.448 -31 178C-31 178.552 -31.4477 179 -32 179C-32.5523 179 -33 178.552 -33 178Z" fill="#C4C4C4"/>
<path d="M-49 178C-49 177.448 -48.5523 177 -48 177C-47.4477 177 -47 177.448 -47 178C-47 178.552 -47.4477 179 -48 179C-48.5523 179 -49 178.552 -49 178Z" fill="#C4C4C4"/>
<path d="M-65 178C-65 177.448 -64.5523 177 -64 177C-63.4477 177 -63 177.448 -63 178C-63 178.552 -63.4477 179 -64 179C-64.5523 179 -65 178.552 -65 178Z" fill="#C4C4C4"/>
<path d="M-81 178C-81 177.448 -80.5523 177 -80 177C-79.4477 177 -79 177.448 -79 178C-79 178.552 -79.4477 179 -80 179C-80.5523 179 -81 178.552 -81 178Z" fill="#C4C4C4"/>
<path d="M-17 162C-17 161.448 -16.5523 161 -16 161C-15.4477 161 -15 161.448 -15 162C-15 162.552 -15.4477 163 -16 163C-16.5523 163 -17 162.552 -17 162Z" fill="#C4C4C4"/>
<path d="M-33 162C-33 161.448 -32.5523 161 -32 161C-31.4477 161 -31 161.448 -31 162C-31 162.552 -31.4477 163 -32 163C-32.5523 163 -33 162.552 -33 162Z" fill="#C4C4C4"/>
<path d="M-49 162C-49 161.448 -48.5523 161 -48 161C-47.4477 161 -47 161.448 -47 162C-47 162.552 -47.4477 163 -48 163C-48.5523 163 -49 162.552 -49 162Z" fill="#C4C4C4"/>
<path d="M-65 162C-65 161.448 -64.5523 161 -64 161C-63.4477 161 -63 161.448 -63 162C-63 162.552 -63.4477 163 -64 163C-64.5523 163 -65 162.552 -65 162Z" fill="#C4C4C4"/>
<path d="M-81 162C-81 161.448 -80.5523 161 -80 161C-79.4477 161 -79 161.448 -79 162C-79 162.552 -79.4477 163 -80 163C-80.5523 163 -81 162.552 -81 162Z" fill="#C4C4C4"/>
<path d="M-97 226C-97 225.448 -96.5523 225 -96 225C-95.4477 225 -95 225.448 -95 226C-95 226.552 -95.4477 227 -96 227C-96.5523 227 -97 226.552 -97 226Z" fill="#C4C4C4"/>
<path d="M-113 226C-113 225.448 -112.552 225 -112 225C-111.448 225 -111 225.448 -111 226C-111 226.552 -111.448 227 -112 227C-112.552 227 -113 226.552 -113 226Z" fill="#C4C4C4"/>
<path d="M-129 226C-129 225.448 -128.552 225 -128 225C-127.448 225 -127 225.448 -127 226C-127 226.552 -127.448 227 -128 227C-128.552 227 -129 226.552 -129 226Z" fill="#C4C4C4"/>
<path d="M-145 226C-145 225.448 -144.552 225 -144 225C-143.448 225 -143 225.448 -143 226C-143 226.552 -143.448 227 -144 227C-144.552 227 -145 226.552 -145 226Z" fill="#C4C4C4"/>
<path d="M-161 226C-161 225.448 -160.552 225 -160 225C-159.448 225 -159 225.448 -159 226C-159 226.552 -159.448 227 -160 227C-160.552 227 -161 226.552 -161 226Z" fill="#C4C4C4"/>
<path d="M-97 210C-97 209.448 -96.5523 209 -96 209C-95.4477 209 -95 209.448 -95 210C-95 210.552 -95.4477 211 -96 211C-96.5523 211 -97 210.552 -97 210Z" fill="#C4C4C4"/>
<path d="M-113 210C-113 209.448 -112.552 209 -112 209C-111.448 209 -111 209.448 -111 210C-111 210.552 -111.448 211 -112 211C-112.552 211 -113 210.552 -113 210Z" fill="#C4C4C4"/>
<path d="M-129 210C-129 209.448 -128.552 209 -128 209C-127.448 209 -127 209.448 -127 210C-127 210.552 -127.448 211 -128 211C-128.552 211 -129 210.552 -129 210Z" fill="#C4C4C4"/>
<path d="M-145 210C-145 209.448 -144.552 209 -144 209C-143.448 209 -143 209.448 -143 210C-143 210.552 -143.448 211 -144 211C-144.552 211 -145 210.552 -145 210Z" fill="#C4C4C4"/>
<path d="M-161 210C-161 209.448 -160.552 209 -160 209C-159.448 209 -159 209.448 -159 210C-159 210.552 -159.448 211 -160 211C-160.552 211 -161 210.552 -161 210Z" fill="#C4C4C4"/>
<path d="M-97 194C-97 193.448 -96.5523 193 -96 193C-95.4477 193 -95 193.448 -95 194C-95 194.552 -95.4477 195 -96 195C-96.5523 195 -97 194.552 -97 194Z" fill="#C4C4C4"/>
<path d="M-113 194C-113 193.448 -112.552 193 -112 193C-111.448 193 -111 193.448 -111 194C-111 194.552 -111.448 195 -112 195C-112.552 195 -113 194.552 -113 194Z" fill="#C4C4C4"/>
<path d="M-129 194C-129 193.448 -128.552 193 -128 193C-127.448 193 -127 193.448 -127 194C-127 194.552 -127.448 195 -128 195C-128.552 195 -129 194.552 -129 194Z" fill="#C4C4C4"/>
<path d="M-145 194C-145 193.448 -144.552 193 -144 193C-143.448 193 -143 193.448 -143 194C-143 194.552 -143.448 195 -144 195C-144.552 195 -145 194.552 -145 194Z" fill="#C4C4C4"/>
<path d="M-161 194C-161 193.448 -160.552 193 -160 193C-159.448 193 -159 193.448 -159 194C-159 194.552 -159.448 195 -160 195C-160.552 195 -161 194.552 -161 194Z" fill="#C4C4C4"/>
<path d="M-97 178C-97 177.448 -96.5523 177 -96 177C-95.4477 177 -95 177.448 -95 178C-95 178.552 -95.4477 179 -96 179C-96.5523 179 -97 178.552 -97 178Z" fill="#C4C4C4"/>
<path d="M-113 178C-113 177.448 -112.552 177 -112 177C-111.448 177 -111 177.448 -111 178C-111 178.552 -111.448 179 -112 179C-112.552 179 -113 178.552 -113 178Z" fill="#C4C4C4"/>
<path d="M-129 178C-129 177.448 -128.552 177 -128 177C-127.448 177 -127 177.448 -127 178C-127 178.552 -127.448 179 -128 179C-128.552 179 -129 178.552 -129 178Z" fill="#C4C4C4"/>
<path d="M-145 178C-145 177.448 -144.552 177 -144 177C-143.448 177 -143 177.448 -143 178C-143 178.552 -143.448 179 -144 179C-144.552 179 -145 178.552 -145 178Z" fill="#C4C4C4"/>
<path d="M-161 178C-161 177.448 -160.552 177 -160 177C-159.448 177 -159 177.448 -159 178C-159 178.552 -159.448 179 -160 179C-160.552 179 -161 178.552 -161 178Z" fill="#C4C4C4"/>
<path d="M-97 162C-97 161.448 -96.5523 161 -96 161C-95.4477 161 -95 161.448 -95 162C-95 162.552 -95.4477 163 -96 163C-96.5523 163 -97 162.552 -97 162Z" fill="#C4C4C4"/>
<path d="M-113 162C-113 161.448 -112.552 161 -112 161C-111.448 161 -111 161.448 -111 162C-111 162.552 -111.448 163 -112 163C-112.552 163 -113 162.552 -113 162Z" fill="#C4C4C4"/>
<path d="M-129 162C-129 161.448 -128.552 161 -128 161C-127.448 161 -127 161.448 -127 162C-127 162.552 -127.448 163 -128 163C-128.552 163 -129 162.552 -129 162Z" fill="#C4C4C4"/>
<path d="M-145 162C-145 161.448 -144.552 161 -144 161C-143.448 161 -143 161.448 -143 162C-143 162.552 -143.448 163 -144 163C-144.552 163 -145 162.552 -145 162Z" fill="#C4C4C4"/>
<path d="M-161 162C-161 161.448 -160.552 161 -160 161C-159.448 161 -159 161.448 -159 162C-159 162.552 -159.448 163 -160 163C-160.552 163 -161 162.552 -161 162Z" fill="#C4C4C4"/>
<path d="M-177 226C-177 225.448 -176.552 225 -176 225C-175.448 225 -175 225.448 -175 226C-175 226.552 -175.448 227 -176 227C-176.552 227 -177 226.552 -177 226Z" fill="#C4C4C4"/>
<path d="M-193 226C-193 225.448 -192.552 225 -192 225C-191.448 225 -191 225.448 -191 226C-191 226.552 -191.448 227 -192 227C-192.552 227 -193 226.552 -193 226Z" fill="#C4C4C4"/>
<path d="M-209 226C-209 225.448 -208.552 225 -208 225C-207.448 225 -207 225.448 -207 226C-207 226.552 -207.448 227 -208 227C-208.552 227 -209 226.552 -209 226Z" fill="#C4C4C4"/>
<path d="M-225 226C-225 225.448 -224.552 225 -224 225C-223.448 225 -223 225.448 -223 226C-223 226.552 -223.448 227 -224 227C-224.552 227 -225 226.552 -225 226Z" fill="#C4C4C4"/>
<path d="M-241 226C-241 225.448 -240.552 225 -240 225C-239.448 225 -239 225.448 -239 226C-239 226.552 -239.448 227 -240 227C-240.552 227 -241 226.552 -241 226Z" fill="#C4C4C4"/>
<path d="M-177 210C-177 209.448 -176.552 209 -176 209C-175.448 209 -175 209.448 -175 210C-175 210.552 -175.448 211 -176 211C-176.552 211 -177 210.552 -177 210Z" fill="#C4C4C4"/>
<path d="M-193 210C-193 209.448 -192.552 209 -192 209C-191.448 209 -191 209.448 -191 210C-191 210.552 -191.448 211 -192 211C-192.552 211 -193 210.552 -193 210Z" fill="#C4C4C4"/>
<path d="M-209 210C-209 209.448 -208.552 209 -208 209C-207.448 209 -207 209.448 -207 210C-207 210.552 -207.448 211 -208 211C-208.552 211 -209 210.552 -209 210Z" fill="#C4C4C4"/>
<path d="M-225 210C-225 209.448 -224.552 209 -224 209C-223.448 209 -223 209.448 -223 210C-223 210.552 -223.448 211 -224 211C-224.552 211 -225 210.552 -225 210Z" fill="#C4C4C4"/>
<path d="M-241 210C-241 209.448 -240.552 209 -240 209C-239.448 209 -239 209.448 -239 210C-239 210.552 -239.448 211 -240 211C-240.552 211 -241 210.552 -241 210Z" fill="#C4C4C4"/>
<path d="M-177 194C-177 193.448 -176.552 193 -176 193C-175.448 193 -175 193.448 -175 194C-175 194.552 -175.448 195 -176 195C-176.552 195 -177 194.552 -177 194Z" fill="#C4C4C4"/>
<path d="M-193 194C-193 193.448 -192.552 193 -192 193C-191.448 193 -191 193.448 -191 194C-191 194.552 -191.448 195 -192 195C-192.552 195 -193 194.552 -193 194Z" fill="#C4C4C4"/>
<path d="M-209 194C-209 193.448 -208.552 193 -208 193C-207.448 193 -207 193.448 -207 194C-207 194.552 -207.448 195 -208 195C-208.552 195 -209 194.552 -209 194Z" fill="#C4C4C4"/>
<path d="M-225 194C-225 193.448 -224.552 193 -224 193C-223.448 193 -223 193.448 -223 194C-223 194.552 -223.448 195 -224 195C-224.552 195 -225 194.552 -225 194Z" fill="#C4C4C4"/>
<path d="M-241 194C-241 193.448 -240.552 193 -240 193C-239.448 193 -239 193.448 -239 194C-239 194.552 -239.448 195 -240 195C-240.552 195 -241 194.552 -241 194Z" fill="#C4C4C4"/>
<path d="M-177 178C-177 177.448 -176.552 177 -176 177C-175.448 177 -175 177.448 -175 178C-175 178.552 -175.448 179 -176 179C-176.552 179 -177 178.552 -177 178Z" fill="#C4C4C4"/>
<path d="M-193 178C-193 177.448 -192.552 177 -192 177C-191.448 177 -191 177.448 -191 178C-191 178.552 -191.448 179 -192 179C-192.552 179 -193 178.552 -193 178Z" fill="#C4C4C4"/>
<path d="M-209 178C-209 177.448 -208.552 177 -208 177C-207.448 177 -207 177.448 -207 178C-207 178.552 -207.448 179 -208 179C-208.552 179 -209 178.552 -209 178Z" fill="#C4C4C4"/>
<path d="M-225 178C-225 177.448 -224.552 177 -224 177C-223.448 177 -223 177.448 -223 178C-223 178.552 -223.448 179 -224 179C-224.552 179 -225 178.552 -225 178Z" fill="#C4C4C4"/>
<path d="M-241 178C-241 177.448 -240.552 177 -240 177C-239.448 177 -239 177.448 -239 178C-239 178.552 -239.448 179 -240 179C-240.552 179 -241 178.552 -241 178Z" fill="#C4C4C4"/>
<path d="M-177 162C-177 161.448 -176.552 161 -176 161C-175.448 161 -175 161.448 -175 162C-175 162.552 -175.448 163 -176 163C-176.552 163 -177 162.552 -177 162Z" fill="#C4C4C4"/>
<path d="M-193 162C-193 161.448 -192.552 161 -192 161C-191.448 161 -191 161.448 -191 162C-191 162.552 -191.448 163 -192 163C-192.552 163 -193 162.552 -193 162Z" fill="#C4C4C4"/>
<path d="M-209 162C-209 161.448 -208.552 161 -208 161C-207.448 161 -207 161.448 -207 162C-207 162.552 -207.448 163 -208 163C-208.552 163 -209 162.552 -209 162Z" fill="#C4C4C4"/>
<path d="M-225 162C-225 161.448 -224.552 161 -224 161C-223.448 161 -223 161.448 -223 162C-223 162.552 -223.448 163 -224 163C-224.552 163 -225 162.552 -225 162Z" fill="#C4C4C4"/>
<path d="M-241 162C-241 161.448 -240.552 161 -240 161C-239.448 161 -239 161.448 -239 162C-239 162.552 -239.448 163 -240 163C-240.552 163 -241 162.552 -241 162Z" fill="#C4C4C4"/>
<path d="M143 226C143 225.448 143.448 225 144 225C144.552 225 145 225.448 145 226C145 226.552 144.552 227 144 227C143.448 227 143 226.552 143 226Z" fill="#C4C4C4"/>
<path d="M127 226C127 225.448 127.448 225 128 225C128.552 225 129 225.448 129 226C129 226.552 128.552 227 128 227C127.448 227 127 226.552 127 226Z" fill="#C4C4C4"/>
<path d="M111 226C111 225.448 111.448 225 112 225C112.552 225 113 225.448 113 226C113 226.552 112.552 227 112 227C111.448 227 111 226.552 111 226Z" fill="#C4C4C4"/>
<path d="M95 226C95 225.448 95.4477 225 96 225C96.5523 225 97 225.448 97 226C97 226.552 96.5523 227 96 227C95.4477 227 95 226.552 95 226Z" fill="#C4C4C4"/>
<path d="M79 226C79 225.448 79.4477 225 80 225C80.5523 225 81 225.448 81 226C81 226.552 80.5523 227 80 227C79.4477 227 79 226.552 79 226Z" fill="#C4C4C4"/>
<path d="M143 210C143 209.448 143.448 209 144 209C144.552 209 145 209.448 145 210C145 210.552 144.552 211 144 211C143.448 211 143 210.552 143 210Z" fill="#C4C4C4"/>
<path d="M127 210C127 209.448 127.448 209 128 209C128.552 209 129 209.448 129 210C129 210.552 128.552 211 128 211C127.448 211 127 210.552 127 210Z" fill="#C4C4C4"/>
<path d="M111 210C111 209.448 111.448 209 112 209C112.552 209 113 209.448 113 210C113 210.552 112.552 211 112 211C111.448 211 111 210.552 111 210Z" fill="#C4C4C4"/>
<path d="M95 210C95 209.448 95.4477 209 96 209C96.5523 209 97 209.448 97 210C97 210.552 96.5523 211 96 211C95.4477 211 95 210.552 95 210Z" fill="#C4C4C4"/>
<path d="M79 210C79 209.448 79.4477 209 80 209C80.5523 209 81 209.448 81 210C81 210.552 80.5523 211 80 211C79.4477 211 79 210.552 79 210Z" fill="#C4C4C4"/>
<path d="M143 194C143 193.448 143.448 193 144 193C144.552 193 145 193.448 145 194C145 194.552 144.552 195 144 195C143.448 195 143 194.552 143 194Z" fill="#C4C4C4"/>
<path d="M127 194C127 193.448 127.448 193 128 193C128.552 193 129 193.448 129 194C129 194.552 128.552 195 128 195C127.448 195 127 194.552 127 194Z" fill="#C4C4C4"/>
<path d="M111 194C111 193.448 111.448 193 112 193C112.552 193 113 193.448 113 194C113 194.552 112.552 195 112 195C111.448 195 111 194.552 111 194Z" fill="#C4C4C4"/>
<path d="M95 194C95 193.448 95.4477 193 96 193C96.5523 193 97 193.448 97 194C97 194.552 96.5523 195 96 195C95.4477 195 95 194.552 95 194Z" fill="#C4C4C4"/>
<path d="M79 194C79 193.448 79.4477 193 80 193C80.5523 193 81 193.448 81 194C81 194.552 80.5523 195 80 195C79.4477 195 79 194.552 79 194Z" fill="#C4C4C4"/>
<path d="M143 178C143 177.448 143.448 177 144 177C144.552 177 145 177.448 145 178C145 178.552 144.552 179 144 179C143.448 179 143 178.552 143 178Z" fill="#C4C4C4"/>
<path d="M127 178C127 177.448 127.448 177 128 177C128.552 177 129 177.448 129 178C129 178.552 128.552 179 128 179C127.448 179 127 178.552 127 178Z" fill="#C4C4C4"/>
<path d="M111 178C111 177.448 111.448 177 112 177C112.552 177 113 177.448 113 178C113 178.552 112.552 179 112 179C111.448 179 111 178.552 111 178Z" fill="#C4C4C4"/>
<path d="M95 178C95 177.448 95.4477 177 96 177C96.5523 177 97 177.448 97 178C97 178.552 96.5523 179 96 179C95.4477 179 95 178.552 95 178Z" fill="#C4C4C4"/>
<path d="M79 178C79 177.448 79.4477 177 80 177C80.5523 177 81 177.448 81 178C81 178.552 80.5523 179 80 179C79.4477 179 79 178.552 79 178Z" fill="#C4C4C4"/>
<path d="M143 162C143 161.448 143.448 161 144 161C144.552 161 145 161.448 145 162C145 162.552 144.552 163 144 163C143.448 163 143 162.552 143 162Z" fill="#C4C4C4"/>
<path d="M127 162C127 161.448 127.448 161 128 161C128.552 161 129 161.448 129 162C129 162.552 128.552 163 128 163C127.448 163 127 162.552 127 162Z" fill="#C4C4C4"/>
<path d="M111 162C111 161.448 111.448 161 112 161C112.552 161 113 161.448 113 162C113 162.552 112.552 163 112 163C111.448 163 111 162.552 111 162Z" fill="#C4C4C4"/>
<path d="M95 162C95 161.448 95.4477 161 96 161C96.5523 161 97 161.448 97 162C97 162.552 96.5523 163 96 163C95.4477 163 95 162.552 95 162Z" fill="#C4C4C4"/>
<path d="M79 162C79 161.448 79.4477 161 80 161C80.5523 161 81 161.448 81 162C81 162.552 80.5523 163 80 163C79.4477 163 79 162.552 79 162Z" fill="#C4C4C4"/>
<path d="M63 226C63 225.448 63.4477 225 64 225C64.5523 225 65 225.448 65 226C65 226.552 64.5523 227 64 227C63.4477 227 63 226.552 63 226Z" fill="#C4C4C4"/>
<path d="M47 226C47 225.448 47.4477 225 48 225C48.5523 225 49 225.448 49 226C49 226.552 48.5523 227 48 227C47.4477 227 47 226.552 47 226Z" fill="#C4C4C4"/>
<path d="M31 226C31 225.448 31.4477 225 32 225C32.5523 225 33 225.448 33 226C33 226.552 32.5523 227 32 227C31.4477 227 31 226.552 31 226Z" fill="#C4C4C4"/>
<path d="M15 226C15 225.448 15.4477 225 16 225C16.5523 225 17 225.448 17 226C17 226.552 16.5523 227 16 227C15.4477 227 15 226.552 15 226Z" fill="#C4C4C4"/>
<path d="M-1 226C-1 225.448 -0.552276 225 1.74846e-07 225C0.552277 225 1 225.448 1 226C1 226.552 0.552277 227 0 227C-0.552277 227 -1 226.552 -1 226Z" fill="#C4C4C4"/>
<path d="M63 210C63 209.448 63.4477 209 64 209C64.5523 209 65 209.448 65 210C65 210.552 64.5523 211 64 211C63.4477 211 63 210.552 63 210Z" fill="#C4C4C4"/>
<path d="M47 210C47 209.448 47.4477 209 48 209C48.5523 209 49 209.448 49 210C49 210.552 48.5523 211 48 211C47.4477 211 47 210.552 47 210Z" fill="#C4C4C4"/>
<path d="M31 210C31 209.448 31.4477 209 32 209C32.5523 209 33 209.448 33 210C33 210.552 32.5523 211 32 211C31.4477 211 31 210.552 31 210Z" fill="#C4C4C4"/>
<path d="M15 210C15 209.448 15.4477 209 16 209C16.5523 209 17 209.448 17 210C17 210.552 16.5523 211 16 211C15.4477 211 15 210.552 15 210Z" fill="#C4C4C4"/>
<path d="M-0.999999 210C-0.999998 209.448 -0.552275 209 1.57361e-06 209C0.552278 209 1 209.448 1 210C1 210.552 0.552278 211 1.39876e-06 211C-0.552275 211 -0.999999 210.552 -0.999999 210Z" fill="#C4C4C4"/>
<path d="M63 194C63 193.448 63.4477 193 64 193C64.5523 193 65 193.448 65 194C65 194.552 64.5523 195 64 195C63.4477 195 63 194.552 63 194Z" fill="#C4C4C4"/>
<path d="M47 194C47 193.448 47.4477 193 48 193C48.5523 193 49 193.448 49 194C49 194.552 48.5523 195 48 195C47.4477 195 47 194.552 47 194Z" fill="#C4C4C4"/>
<path d="M31 194C31 193.448 31.4477 193 32 193C32.5523 193 33 193.448 33 194C33 194.552 32.5523 195 32 195C31.4477 195 31 194.552 31 194Z" fill="#C4C4C4"/>
<path d="M15 194C15 193.448 15.4477 193 16 193C16.5523 193 17 193.448 17 194C17 194.552 16.5523 195 16 195C15.4477 195 15 194.552 15 194Z" fill="#C4C4C4"/>
<path d="M-0.999997 194C-0.999997 193.448 -0.552274 193 2.97237e-06 193C0.55228 193 1 193.448 1 194C1 194.552 0.552279 195 2.79753e-06 195C-0.552274 195 -0.999997 194.552 -0.999997 194Z" fill="#C4C4C4"/>
<path d="M63 178C63 177.448 63.4477 177 64 177C64.5523 177 65 177.448 65 178C65 178.552 64.5523 179 64 179C63.4477 179 63 178.552 63 178Z" fill="#C4C4C4"/>
<path d="M47 178C47 177.448 47.4477 177 48 177C48.5523 177 49 177.448 49 178C49 178.552 48.5523 179 48 179C47.4477 179 47 178.552 47 178Z" fill="#C4C4C4"/>
<path d="M31 178C31 177.448 31.4477 177 32 177C32.5523 177 33 177.448 33 178C33 178.552 32.5523 179 32 179C31.4477 179 31 178.552 31 178Z" fill="#C4C4C4"/>
<path d="M15 178C15 177.448 15.4477 177 16 177C16.5523 177 17 177.448 17 178C17 178.552 16.5523 179 16 179C15.4477 179 15 178.552 15 178Z" fill="#C4C4C4"/>
<path d="M-0.999996 178C-0.999996 177.448 -0.552272 177 4.37114e-06 177C0.552281 177 1 177.448 1 178C1 178.552 0.552281 179 4.19629e-06 179C-0.552272 179 -0.999996 178.552 -0.999996 178Z" fill="#C4C4C4"/>
<path d="M63 162C63 161.448 63.4477 161 64 161C64.5523 161 65 161.448 65 162C65 162.552 64.5523 163 64 163C63.4477 163 63 162.552 63 162Z" fill="#C4C4C4"/>
<path d="M47 162C47 161.448 47.4477 161 48 161C48.5523 161 49 161.448 49 162C49 162.552 48.5523 163 48 163C47.4477 163 47 162.552 47 162Z" fill="#C4C4C4"/>
<path d="M31 162C31 161.448 31.4477 161 32 161C32.5523 161 33 161.448 33 162C33 162.552 32.5523 163 32 163C31.4477 163 31 162.552 31 162Z" fill="#C4C4C4"/>
<path d="M15 162C15 161.448 15.4477 161 16 161C16.5523 161 17 161.448 17 162C17 162.552 16.5523 163 16 163C15.4477 163 15 162.552 15 162Z" fill="#C4C4C4"/>
<path d="M-0.999994 162C-0.999994 161.448 -0.552271 161 5.7699e-06 161C0.552282 161 1.00001 161.448 1.00001 162C1.00001 162.552 0.552282 163 5.59506e-06 163C-0.552271 163 -0.999994 162.552 -0.999994 162Z" fill="#C4C4C4"/>
<path d="M303 226C303 225.448 303.448 225 304 225C304.552 225 305 225.448 305 226C305 226.552 304.552 227 304 227C303.448 227 303 226.552 303 226Z" fill="#C4C4C4"/>
<path d="M287 226C287 225.448 287.448 225 288 225C288.552 225 289 225.448 289 226C289 226.552 288.552 227 288 227C287.448 227 287 226.552 287 226Z" fill="#C4C4C4"/>
<path d="M271 226C271 225.448 271.448 225 272 225C272.552 225 273 225.448 273 226C273 226.552 272.552 227 272 227C271.448 227 271 226.552 271 226Z" fill="#C4C4C4"/>
<path d="M255 226C255 225.448 255.448 225 256 225C256.552 225 257 225.448 257 226C257 226.552 256.552 227 256 227C255.448 227 255 226.552 255 226Z" fill="#C4C4C4"/>
<path d="M239 226C239 225.448 239.448 225 240 225C240.552 225 241 225.448 241 226C241 226.552 240.552 227 240 227C239.448 227 239 226.552 239 226Z" fill="#C4C4C4"/>
<path d="M303 210C303 209.448 303.448 209 304 209C304.552 209 305 209.448 305 210C305 210.552 304.552 211 304 211C303.448 211 303 210.552 303 210Z" fill="#C4C4C4"/>
<path d="M287 210C287 209.448 287.448 209 288 209C288.552 209 289 209.448 289 210C289 210.552 288.552 211 288 211C287.448 211 287 210.552 287 210Z" fill="#C4C4C4"/>
<path d="M271 210C271 209.448 271.448 209 272 209C272.552 209 273 209.448 273 210C273 210.552 272.552 211 272 211C271.448 211 271 210.552 271 210Z" fill="#C4C4C4"/>
<path d="M255 210C255 209.448 255.448 209 256 209C256.552 209 257 209.448 257 210C257 210.552 256.552 211 256 211C255.448 211 255 210.552 255 210Z" fill="#C4C4C4"/>
<path d="M239 210C239 209.448 239.448 209 240 209C240.552 209 241 209.448 241 210C241 210.552 240.552 211 240 211C239.448 211 239 210.552 239 210Z" fill="#C4C4C4"/>
<path d="M303 194C303 193.448 303.448 193 304 193C304.552 193 305 193.448 305 194C305 194.552 304.552 195 304 195C303.448 195 303 194.552 303 194Z" fill="#C4C4C4"/>
<path d="M287 194C287 193.448 287.448 193 288 193C288.552 193 289 193.448 289 194C289 194.552 288.552 195 288 195C287.448 195 287 194.552 287 194Z" fill="#C4C4C4"/>
<path d="M271 194C271 193.448 271.448 193 272 193C272.552 193 273 193.448 273 194C273 194.552 272.552 195 272 195C271.448 195 271 194.552 271 194Z" fill="#C4C4C4"/>
<path d="M255 194C255 193.448 255.448 193 256 193C256.552 193 257 193.448 257 194C257 194.552 256.552 195 256 195C255.448 195 255 194.552 255 194Z" fill="#C4C4C4"/>
<path d="M239 194C239 193.448 239.448 193 240 193C240.552 193 241 193.448 241 194C241 194.552 240.552 195 240 195C239.448 195 239 194.552 239 194Z" fill="#C4C4C4"/>
<path d="M303 178C303 177.448 303.448 177 304 177C304.552 177 305 177.448 305 178C305 178.552 304.552 179 304 179C303.448 179 303 178.552 303 178Z" fill="#C4C4C4"/>
<path d="M287 178C287 177.448 287.448 177 288 177C288.552 177 289 177.448 289 178C289 178.552 288.552 179 288 179C287.448 179 287 178.552 287 178Z" fill="#C4C4C4"/>
<path d="M271 178C271 177.448 271.448 177 272 177C272.552 177 273 177.448 273 178C273 178.552 272.552 179 272 179C271.448 179 271 178.552 271 178Z" fill="#C4C4C4"/>
<path d="M255 178C255 177.448 255.448 177 256 177C256.552 177 257 177.448 257 178C257 178.552 256.552 179 256 179C255.448 179 255 178.552 255 178Z" fill="#C4C4C4"/>
<path d="M239 178C239 177.448 239.448 177 240 177C240.552 177 241 177.448 241 178C241 178.552 240.552 179 240 179C239.448 179 239 178.552 239 178Z" fill="#C4C4C4"/>
<path d="M303 162C303 161.448 303.448 161 304 161C304.552 161 305 161.448 305 162C305 162.552 304.552 163 304 163C303.448 163 303 162.552 303 162Z" fill="#C4C4C4"/>
<path d="M287 162C287 161.448 287.448 161 288 161C288.552 161 289 161.448 289 162C289 162.552 288.552 163 288 163C287.448 163 287 162.552 287 162Z" fill="#C4C4C4"/>
<path d="M271 162C271 161.448 271.448 161 272 161C272.552 161 273 161.448 273 162C273 162.552 272.552 163 272 163C271.448 163 271 162.552 271 162Z" fill="#C4C4C4"/>
<path d="M255 162C255 161.448 255.448 161 256 161C256.552 161 257 161.448 257 162C257 162.552 256.552 163 256 163C255.448 163 255 162.552 255 162Z" fill="#C4C4C4"/>
<path d="M239 162C239 161.448 239.448 161 240 161C240.552 161 241 161.448 241 162C241 162.552 240.552 163 240 163C239.448 163 239 162.552 239 162Z" fill="#C4C4C4"/>
<path d="M223 226C223 225.448 223.448 225 224 225C224.552 225 225 225.448 225 226C225 226.552 224.552 227 224 227C223.448 227 223 226.552 223 226Z" fill="#C4C4C4"/>
<path d="M207 226C207 225.448 207.448 225 208 225C208.552 225 209 225.448 209 226C209 226.552 208.552 227 208 227C207.448 227 207 226.552 207 226Z" fill="#C4C4C4"/>
<path d="M191 226C191 225.448 191.448 225 192 225C192.552 225 193 225.448 193 226C193 226.552 192.552 227 192 227C191.448 227 191 226.552 191 226Z" fill="#C4C4C4"/>
<path d="M175 226C175 225.448 175.448 225 176 225C176.552 225 177 225.448 177 226C177 226.552 176.552 227 176 227C175.448 227 175 226.552 175 226Z" fill="#C4C4C4"/>
<path d="M159 226C159 225.448 159.448 225 160 225C160.552 225 161 225.448 161 226C161 226.552 160.552 227 160 227C159.448 227 159 226.552 159 226Z" fill="#C4C4C4"/>
<path d="M223 210C223 209.448 223.448 209 224 209C224.552 209 225 209.448 225 210C225 210.552 224.552 211 224 211C223.448 211 223 210.552 223 210Z" fill="#C4C4C4"/>
<path d="M207 210C207 209.448 207.448 209 208 209C208.552 209 209 209.448 209 210C209 210.552 208.552 211 208 211C207.448 211 207 210.552 207 210Z" fill="#C4C4C4"/>
<path d="M191 210C191 209.448 191.448 209 192 209C192.552 209 193 209.448 193 210C193 210.552 192.552 211 192 211C191.448 211 191 210.552 191 210Z" fill="#C4C4C4"/>
<path d="M175 210C175 209.448 175.448 209 176 209C176.552 209 177 209.448 177 210C177 210.552 176.552 211 176 211C175.448 211 175 210.552 175 210Z" fill="#C4C4C4"/>
<path d="M159 210C159 209.448 159.448 209 160 209C160.552 209 161 209.448 161 210C161 210.552 160.552 211 160 211C159.448 211 159 210.552 159 210Z" fill="#C4C4C4"/>
<path d="M223 194C223 193.448 223.448 193 224 193C224.552 193 225 193.448 225 194C225 194.552 224.552 195 224 195C223.448 195 223 194.552 223 194Z" fill="#C4C4C4"/>
<path d="M207 194C207 193.448 207.448 193 208 193C208.552 193 209 193.448 209 194C209 194.552 208.552 195 208 195C207.448 195 207 194.552 207 194Z" fill="#C4C4C4"/>
<path d="M191 194C191 193.448 191.448 193 192 193C192.552 193 193 193.448 193 194C193 194.552 192.552 195 192 195C191.448 195 191 194.552 191 194Z" fill="#C4C4C4"/>
<path d="M175 194C175 193.448 175.448 193 176 193C176.552 193 177 193.448 177 194C177 194.552 176.552 195 176 195C175.448 195 175 194.552 175 194Z" fill="#C4C4C4"/>
<path d="M159 194C159 193.448 159.448 193 160 193C160.552 193 161 193.448 161 194C161 194.552 160.552 195 160 195C159.448 195 159 194.552 159 194Z" fill="#C4C4C4"/>
<path d="M223 178C223 177.448 223.448 177 224 177C224.552 177 225 177.448 225 178C225 178.552 224.552 179 224 179C223.448 179 223 178.552 223 178Z" fill="#C4C4C4"/>
<path d="M207 178C207 177.448 207.448 177 208 177C208.552 177 209 177.448 209 178C209 178.552 208.552 179 208 179C207.448 179 207 178.552 207 178Z" fill="#C4C4C4"/>
<path d="M191 178C191 177.448 191.448 177 192 177C192.552 177 193 177.448 193 178C193 178.552 192.552 179 192 179C191.448 179 191 178.552 191 178Z" fill="#C4C4C4"/>
<path d="M175 178C175 177.448 175.448 177 176 177C176.552 177 177 177.448 177 178C177 178.552 176.552 179 176 179C175.448 179 175 178.552 175 178Z" fill="#C4C4C4"/>
<path d="M159 178C159 177.448 159.448 177 160 177C160.552 177 161 177.448 161 178C161 178.552 160.552 179 160 179C159.448 179 159 178.552 159 178Z" fill="#C4C4C4"/>
<path d="M223 162C223 161.448 223.448 161 224 161C224.552 161 225 161.448 225 162C225 162.552 224.552 163 224 163C223.448 163 223 162.552 223 162Z" fill="#C4C4C4"/>
<path d="M207 162C207 161.448 207.448 161 208 161C208.552 161 209 161.448 209 162C209 162.552 208.552 163 208 163C207.448 163 207 162.552 207 162Z" fill="#C4C4C4"/>
<path d="M191 162C191 161.448 191.448 161 192 161C192.552 161 193 161.448 193 162C193 162.552 192.552 163 192 163C191.448 163 191 162.552 191 162Z" fill="#C4C4C4"/>
<path d="M175 162C175 161.448 175.448 161 176 161C176.552 161 177 161.448 177 162C177 162.552 176.552 163 176 163C175.448 163 175 162.552 175 162Z" fill="#C4C4C4"/>
<path d="M159 162C159 161.448 159.448 161 160 161C160.552 161 161 161.448 161 162C161 162.552 160.552 163 160 163C159.448 163 159 162.552 159 162Z" fill="#C4C4C4"/>
</svg>
